<svg xmlns="http://www.w3.org/2000/svg" xmlns:xlink="http://www.w3.org/1999/xlink" width="500" zoomAndPan="magnify" viewBox="0 0 375 374.999991" height="500" preserveAspectRatio="xMidYMid meet" version="1.0"><defs><filter x="0%" y="0%" width="100%" height="100%" id="085e90fb54"><feColorMatrix values="0 0 0 0 1 0 0 0 0 1 0 0 0 0 1 0 0 0 1 0" color-interpolation-filters="sRGB"/></filter><mask id="c4bc6534e1"><g filter="url(#085e90fb54)"><rect x="-37.5" width="450" fill="#000000" y="-37.499999" height="449.999989" fill-opacity="0.5"/></g></mask><clipPath id="2f1e345d9b"><path d="M 112 93 L 374.878906 93 L 374.878906 282 L 112 282 Z M 112 93 " clip-rule="nonzero"/></clipPath><clipPath id="35f5ac6983"><path d="M 0 0.246094 L 358.121094 0.246094 L 358.121094 374.746094 L 0 374.746094 Z M 0 0.246094 " clip-rule="nonzero"/></clipPath><clipPath id="99b5deb20b"><rect x="0" width="375" y="0" height="375"/></clipPath></defs><g mask="url(#c4bc6534e1)"><g transform="matrix(1, 0, 0, 1, 0, 0)"><g clip-path="url(#99b5deb20b)"><g clip-path="url(#2f1e345d9b)"><path fill="#ffffff" d="M 176.300781 206.445312 L 219.410156 249.371094 C 231.34375 260.667969 222.464844 281.902344 206.101562 281.53125 C 201.15625 281.550781 196.265625 279.511719 192.792969 275.988281 L 117.816406 201.011719 C 116.113281 199.230469 114.773438 197.128906 113.878906 194.828125 C 112.007812 190.261719 112.007812 185.148438 113.878906 180.582031 C 114.773438 178.28125 116.113281 176.179688 117.816406 174.394531 L 192.792969 99.417969 C 196.273438 95.914062 201.160156 93.890625 206.101562 93.90625 C 222.484375 93.519531 231.265625 114.726562 219.410156 126.035156 C 219.410156 126.035156 176.300781 168.960938 176.300781 168.960938 L 356.058594 168.960938 C 366.125 168.761719 375 177.632812 374.800781 187.703125 C 374.996094 197.773438 366.128906 206.644531 356.058594 206.445312 L 176.300781 206.445312 " fill-opacity="1" fill-rule="nonzero"/></g><g clip-path="url(#35f5ac6983)"><path fill="#ffffff" d="M 187.355469 0.261719 C 257.511719 -0.671875 325.394531 41.179688 356.058594 104.292969 C 358.292969 108.765625 358.660156 113.945312 357.082031 118.691406 C 352.203125 134.421875 329.34375 136.003906 322.316406 121.160156 C 286.648438 46.679688 191.039062 15.582031 118.390625 54.855469 C 44.730469 92.1875 15.785156 188.46875 56.683594 260.222656 C 113.445312 365.074219 269.972656 362.339844 321.566406 254.246094 C 325.914062 245.089844 337.90625 241.105469 346.871094 245.8125 C 356.015625 250.15625 360.023438 262.144531 355.304688 271.117188 C 265.804688 445.144531 7.453125 387.261719 0.0546875 192.144531 C -3.554688 88.652344 83.800781 -0.859375 187.355469 0.261719 " fill-opacity="1" fill-rule="nonzero"/></g></g></g></g></svg>