<svg xmlns="http://www.w3.org/2000/svg" xmlns:xlink="http://www.w3.org/1999/xlink" width="500" zoomAndPan="magnify" viewBox="0 0 375 374.999991" height="500" preserveAspectRatio="xMidYMid meet" version="1.0"><defs><filter x="0%" y="0%" width="100%" height="100%" id="6160389636"><feColorMatrix values="0 0 0 0 1 0 0 0 0 1 0 0 0 0 1 0 0 0 1 0" color-interpolation-filters="sRGB"/></filter><mask id="280cb9b4bb"><g filter="url(#6160389636)"><rect x="-37.5" width="450" fill="#000000" y="-37.499999" height="449.999989" fill-opacity="0.5"/></g></mask><clipPath id="dd72733575"><path d="M 0 86 L 374.878906 86 L 374.878906 358.421875 L 0 358.421875 Z M 0 86 " clip-rule="nonzero"/></clipPath><clipPath id="14aee1bd30"><path d="M 0 0.671875 L 374.878906 0.671875 L 374.878906 137 L 0 137 Z M 0 0.671875 " clip-rule="nonzero"/></clipPath><clipPath id="9b25d0bd4c"><rect x="0" width="375" y="0" height="359"/></clipPath></defs><g mask="url(#280cb9b4bb)"><g transform="matrix(1, 0, 0, 1, 0, 8)"><g clip-path="url(#9b25d0bd4c)"><g clip-path="url(#dd72733575)"><path fill="#ffffff" d="M 120.238281 130.636719 L 119.375 197.296875 L 68.28125 178.734375 L 68.28125 111.707031 L 0.15625 86.925781 L 0.15625 290.203125 L 187.5 358.328125 L 374.84375 290.203125 L 374.84375 86.925781 L 187.5 155.050781 L 120.238281 130.636719 " fill-opacity="1" fill-rule="nonzero"/></g><g clip-path="url(#14aee1bd30)"><path fill="#ffffff" d="M 153.4375 60.28125 L 204.53125 77.3125 L 120.472656 112.574219 L 187.5 136.921875 L 374.84375 68.796875 L 187.5 0.671875 L 0.15625 68.796875 L 68.28125 93.578125 L 153.4375 60.28125 " fill-opacity="1" fill-rule="nonzero"/></g></g></g></g></svg>