<svg xmlns="http://www.w3.org/2000/svg" xmlns:xlink="http://www.w3.org/1999/xlink" width="500" zoomAndPan="magnify" viewBox="0 0 375 374.999991" height="500" preserveAspectRatio="xMidYMid meet" version="1.0"><defs><clipPath id="af4c3aeb5b"><path d="M 0 94 L 375 94 L 375 366.421875 L 0 366.421875 Z M 0 94 " clip-rule="nonzero"/></clipPath><clipPath id="fb246008d0"><path d="M 0 8.671875 L 375 8.671875 L 375 145 L 0 145 Z M 0 8.671875 " clip-rule="nonzero"/></clipPath></defs><g clip-path="url(#af4c3aeb5b)"><path fill="#ffffff" d="M 120.238281 138.636719 L 119.375 205.296875 L 68.28125 186.734375 L 68.28125 119.707031 L 0.15625 94.925781 L 0.15625 298.203125 L 187.5 366.328125 L 374.84375 298.203125 L 374.84375 94.925781 L 187.5 163.050781 L 120.238281 138.636719 " fill-opacity="1" fill-rule="nonzero"/></g><g clip-path="url(#fb246008d0)"><path fill="#ffffff" d="M 153.4375 68.28125 L 204.53125 85.3125 L 120.472656 120.574219 L 187.5 144.921875 L 374.84375 76.796875 L 187.5 8.671875 L 0.15625 76.796875 L 68.28125 101.578125 L 153.4375 68.28125 " fill-opacity="1" fill-rule="nonzero"/></g></svg>