<svg xmlns="http://www.w3.org/2000/svg" xmlns:xlink="http://www.w3.org/1999/xlink" width="500" zoomAndPan="magnify" viewBox="0 0 375 374.999991" height="500" preserveAspectRatio="xMidYMid meet" version="1.0"><defs><clipPath id="4fe128c5f7"><path d="M 0 73.125 L 375 73.125 L 375 301.875 L 0 301.875 Z M 0 73.125 " clip-rule="nonzero"/></clipPath></defs><g clip-path="url(#4fe128c5f7)"><path fill="#ffffff" d="M 331.675781 230.84375 C 331.675781 228.117188 329.46875 225.902344 326.742188 225.902344 L 296.441406 225.902344 C 293.710938 225.902344 291.503906 228.117188 291.503906 230.84375 L 291.503906 261.144531 C 291.503906 263.871094 293.710938 266.078125 296.441406 266.078125 L 326.742188 266.078125 C 329.46875 266.078125 331.675781 263.871094 331.675781 261.144531 Z M 145.921875 256.859375 L 31.792969 256.859375 L 31.792969 266.078125 L 145.921875 266.078125 Z M 31.792969 235.125 L 112.066406 235.125 L 112.066406 225.902344 L 31.792969 225.902344 Z M 374.855469 156.140625 L 374.855469 275.675781 C 374.855469 290.128906 363.140625 301.84375 348.6875 301.84375 L 26.3125 301.84375 C 11.859375 301.84375 0.144531 290.128906 0.144531 275.675781 L 0.144531 156.140625 Z M 374.855469 99.28125 L 374.855469 119.257812 L 0.144531 119.257812 L 0.144531 99.28125 C 0.144531 84.832031 11.859375 73.113281 26.3125 73.113281 L 348.6875 73.113281 C 363.140625 73.113281 374.855469 84.832031 374.855469 99.28125 " fill-opacity="1" fill-rule="nonzero"/></g></svg>