<svg xmlns="http://www.w3.org/2000/svg" xmlns:xlink="http://www.w3.org/1999/xlink" width="500" zoomAndPan="magnify" viewBox="0 0 375 374.999991" height="500" preserveAspectRatio="xMidYMid meet" version="1.0"><defs><filter x="0%" y="0%" width="100%" height="100%" id="be7e7fa5d4"><feColorMatrix values="0 0 0 0 1 0 0 0 0 1 0 0 0 0 1 0 0 0 1 0" color-interpolation-filters="sRGB"/></filter><mask id="77c55f9e2f"><g filter="url(#be7e7fa5d4)"><rect x="-37.5" width="450" fill="#000000" y="-37.499999" height="449.999989" fill-opacity="0.5"/></g></mask><clipPath id="d7956209d5"><path d="M 0 1.125 L 375 1.125 L 375 229.875 L 0 229.875 Z M 0 1.125 " clip-rule="nonzero"/></clipPath><clipPath id="7d0ddab9ad"><rect x="0" width="375" y="0" height="230"/></clipPath></defs><g mask="url(#77c55f9e2f)"><g transform="matrix(1, 0, 0, 1, 0, 72)"><g clip-path="url(#7d0ddab9ad)"><g clip-path="url(#d7956209d5)"><path fill="#ffffff" d="M 331.675781 158.84375 C 331.675781 156.117188 329.46875 153.902344 326.742188 153.902344 L 296.441406 153.902344 C 293.710938 153.902344 291.503906 156.117188 291.503906 158.84375 L 291.503906 189.144531 C 291.503906 191.871094 293.710938 194.078125 296.441406 194.078125 L 326.742188 194.078125 C 329.46875 194.078125 331.675781 191.871094 331.675781 189.144531 Z M 145.921875 184.859375 L 31.792969 184.859375 L 31.792969 194.078125 L 145.921875 194.078125 Z M 31.792969 163.125 L 112.066406 163.125 L 112.066406 153.902344 L 31.792969 153.902344 Z M 374.855469 84.140625 L 374.855469 203.675781 C 374.855469 218.128906 363.140625 229.84375 348.6875 229.84375 L 26.3125 229.84375 C 11.859375 229.84375 0.144531 218.128906 0.144531 203.675781 L 0.144531 84.140625 Z M 374.855469 27.28125 L 374.855469 47.257812 L 0.144531 47.257812 L 0.144531 27.28125 C 0.144531 12.832031 11.859375 1.113281 26.3125 1.113281 L 348.6875 1.113281 C 363.140625 1.113281 374.855469 12.832031 374.855469 27.28125 " fill-opacity="1" fill-rule="nonzero"/></g></g></g></g></svg>