<svg xmlns="http://www.w3.org/2000/svg" xmlns:xlink="http://www.w3.org/1999/xlink" width="500" zoomAndPan="magnify" viewBox="0 0 375 374.999991" height="500" preserveAspectRatio="xMidYMid meet" version="1.0"><path fill="#ffffff" d="M 368.925781 374.972656 L 6.105469 374.972656 C 2.820312 374.972656 0.160156 372.308594 0.160156 369.023438 L 0.160156 335.132812 C 0.160156 278.742188 46.035156 232.867188 102.421875 232.867188 L 272.605469 232.867188 C 328.996094 232.867188 374.871094 278.742188 374.871094 335.132812 L 374.871094 369.023438 C 374.871094 372.308594 372.210938 374.972656 368.925781 374.972656 Z M 187.515625 216.875 C 127.722656 216.875 79.078125 168.230469 79.078125 108.4375 C 79.078125 48.644531 127.722656 0 187.515625 0 C 247.308594 0 295.953125 48.644531 295.953125 108.4375 C 295.953125 168.230469 247.308594 216.875 187.515625 216.875 Z M 187.515625 216.875 " fill-opacity="1" fill-rule="nonzero"/></svg>