<svg xmlns="http://www.w3.org/2000/svg" xmlns:xlink="http://www.w3.org/1999/xlink" width="500" zoomAndPan="magnify" viewBox="0 0 375 374.999991" height="500" preserveAspectRatio="xMidYMid meet" version="1.0"><path fill="#ffffff" d="M 187.5 0 C 184.429688 0 181.363281 0.0742188 178.300781 0.226562 C 175.234375 0.375 172.175781 0.601562 169.121094 0.902344 C 166.066406 1.203125 163.023438 1.578125 159.988281 2.03125 C 156.953125 2.480469 153.929688 3.003906 150.921875 3.601562 C 147.910156 4.203125 144.917969 4.875 141.941406 5.617188 C 138.964844 6.363281 136.007812 7.183594 133.070312 8.074219 C 130.136719 8.964844 127.222656 9.925781 124.332031 10.960938 C 121.445312 11.996094 118.582031 13.097656 115.746094 14.273438 C 112.910156 15.445312 110.105469 16.691406 107.332031 18.003906 C 104.558594 19.3125 101.820312 20.691406 99.113281 22.140625 C 96.40625 23.585938 93.738281 25.097656 91.105469 26.675781 C 88.472656 28.253906 85.882812 29.894531 83.332031 31.597656 C 80.777344 33.304688 78.269531 35.070312 75.804688 36.898438 C 73.339844 38.726562 70.921875 40.613281 68.550781 42.558594 C 66.179688 44.507812 63.855469 46.511719 61.582031 48.570312 C 59.308594 50.632812 57.085938 52.746094 54.917969 54.917969 C 52.746094 57.085938 50.632812 59.308594 48.570312 61.582031 C 46.511719 63.855469 44.507812 66.179688 42.558594 68.550781 C 40.613281 70.921875 38.726562 73.339844 36.898438 75.804688 C 35.070312 78.269531 33.304688 80.777344 31.597656 83.332031 C 29.894531 85.882812 28.253906 88.472656 26.675781 91.105469 C 25.097656 93.738281 23.585938 96.40625 22.140625 99.113281 C 20.691406 101.820312 19.3125 104.558594 18.003906 107.332031 C 16.691406 110.105469 15.445312 112.910156 14.273438 115.746094 C 13.097656 118.582031 11.996094 121.445312 10.960938 124.332031 C 9.925781 127.222656 8.964844 130.136719 8.074219 133.070312 C 7.183594 136.007812 6.363281 138.964844 5.621094 141.941406 C 4.875 144.917969 4.203125 147.910156 3.601562 150.921875 C 3.003906 153.929688 2.480469 156.953125 2.03125 159.988281 C 1.578125 163.023438 1.203125 166.066406 0.902344 169.121094 C 0.601562 172.175781 0.375 175.234375 0.226562 178.300781 C 0.0742188 181.363281 0 184.429688 0 187.5 C 0 190.570312 0.0742188 193.636719 0.226562 196.699219 C 0.375 199.765625 0.601562 202.824219 0.902344 205.878906 C 1.203125 208.933594 1.578125 211.976562 2.03125 215.011719 C 2.480469 218.046875 3.003906 221.070312 3.601562 224.078125 C 4.203125 227.089844 4.875 230.082031 5.621094 233.058594 C 6.363281 236.035156 7.183594 238.992188 8.074219 241.929688 C 8.964844 244.863281 9.925781 247.777344 10.960938 250.667969 C 11.996094 253.554688 13.097656 256.417969 14.273438 259.253906 C 15.445312 262.089844 16.691406 264.894531 18.003906 267.667969 C 19.3125 270.441406 20.691406 273.179688 22.140625 275.886719 C 23.585938 278.59375 25.097656 281.261719 26.675781 283.894531 C 28.253906 286.527344 29.894531 289.117188 31.597656 291.667969 C 33.304688 294.222656 35.070312 296.730469 36.898438 299.195312 C 38.726562 301.660156 40.613281 304.078125 42.558594 306.449219 C 44.507812 308.820312 46.511719 311.144531 48.570312 313.417969 C 50.632812 315.691406 52.746094 317.914062 54.917969 320.082031 C 57.085938 322.253906 59.308594 324.367188 61.582031 326.429688 C 63.855469 328.488281 66.179688 330.492188 68.550781 332.4375 C 70.921875 334.386719 73.339844 336.273438 75.804688 338.101562 C 78.269531 339.929688 80.777344 341.695312 83.332031 343.402344 C 85.882812 345.105469 88.472656 346.746094 91.105469 348.324219 C 93.738281 349.902344 96.40625 351.414062 99.113281 352.859375 C 101.820312 354.308594 104.558594 355.6875 107.332031 356.996094 C 110.105469 358.308594 112.910156 359.554688 115.746094 360.726562 C 118.582031 361.902344 121.445312 363.003906 124.332031 364.039062 C 127.222656 365.074219 130.136719 366.035156 133.070312 366.925781 C 136.007812 367.816406 138.964844 368.636719 141.941406 369.378906 C 144.917969 370.125 147.910156 370.796875 150.921875 371.398438 C 153.929688 371.996094 156.953125 372.519531 159.988281 372.96875 C 163.023438 373.421875 166.066406 373.796875 169.121094 374.097656 C 172.175781 374.398438 175.234375 374.625 178.300781 374.773438 C 181.363281 374.925781 184.429688 375 187.5 375 C 190.570312 375 193.636719 374.925781 196.699219 374.773438 C 199.765625 374.625 202.824219 374.398438 205.878906 374.097656 C 208.933594 373.796875 211.976562 373.421875 215.011719 372.96875 C 218.046875 372.519531 221.070312 371.996094 224.078125 371.398438 C 227.089844 370.796875 230.082031 370.125 233.058594 369.378906 C 236.035156 368.636719 238.992188 367.816406 241.929688 366.925781 C 244.863281 366.035156 247.777344 365.074219 250.667969 364.039062 C 253.554688 363.003906 256.417969 361.902344 259.253906 360.726562 C 262.089844 359.554688 264.894531 358.308594 267.667969 356.996094 C 270.441406 355.6875 273.179688 354.308594 275.886719 352.859375 C 278.59375 351.414062 281.261719 349.902344 283.894531 348.324219 C 286.527344 346.746094 289.117188 345.105469 291.667969 343.402344 C 294.222656 341.695312 296.730469 339.929688 299.195312 338.101562 C 301.660156 336.273438 304.078125 334.386719 306.449219 332.4375 C 308.820312 330.492188 311.144531 328.488281 313.417969 326.429688 C 315.691406 324.367188 317.914062 322.253906 320.082031 320.082031 C 322.253906 317.914062 324.367188 315.691406 326.429688 313.417969 C 328.488281 311.144531 330.492188 308.820312 332.4375 306.449219 C 334.386719 304.078125 336.273438 301.660156 338.101562 299.195312 C 339.929688 296.730469 341.695312 294.222656 343.402344 291.667969 C 345.105469 289.117188 346.746094 286.527344 348.324219 283.894531 C 349.902344 281.261719 351.414062 278.59375 352.859375 275.886719 C 354.308594 273.179688 355.6875 270.441406 356.996094 267.667969 C 358.308594 264.894531 359.554688 262.089844 360.726562 259.253906 C 361.902344 256.417969 363.003906 253.554688 364.039062 250.667969 C 365.074219 247.777344 366.035156 244.863281 366.925781 241.929688 C 367.816406 238.992188 368.636719 236.035156 369.378906 233.058594 C 370.125 230.082031 370.796875 227.089844 371.398438 224.078125 C 371.996094 221.070312 372.519531 218.046875 372.96875 215.011719 C 373.421875 211.976562 373.796875 208.933594 374.097656 205.878906 C 374.398438 202.824219 374.625 199.765625 374.773438 196.699219 C 374.925781 193.636719 375 190.570312 375 187.5 C 374.996094 184.433594 374.917969 181.367188 374.765625 178.300781 C 374.613281 175.238281 374.386719 172.179688 374.082031 169.125 C 373.78125 166.074219 373.402344 163.03125 372.949219 159.996094 C 372.5 156.960938 371.972656 153.941406 371.371094 150.929688 C 370.769531 147.921875 370.097656 144.929688 369.351562 141.957031 C 368.601562 138.980469 367.785156 136.023438 366.890625 133.089844 C 366 130.152344 365.035156 127.242188 364 124.355469 C 362.964844 121.464844 361.859375 118.605469 360.6875 115.769531 C 359.511719 112.9375 358.265625 110.132812 356.953125 107.359375 C 355.640625 104.589844 354.261719 101.847656 352.8125 99.144531 C 351.367188 96.4375 349.855469 93.769531 348.277344 91.140625 C 346.699219 88.507812 345.058594 85.917969 343.351562 83.367188 C 341.648438 80.816406 339.882812 78.308594 338.054688 75.847656 C 336.226562 73.382812 334.339844 70.964844 332.390625 68.59375 C 330.445312 66.222656 328.441406 63.898438 326.382812 61.625 C 324.320312 59.355469 322.207031 57.132812 320.035156 54.964844 C 317.867188 52.792969 315.644531 50.679688 313.375 48.617188 C 311.101562 46.558594 308.777344 44.554688 306.40625 42.609375 C 304.035156 40.660156 301.617188 38.773438 299.152344 36.945312 C 296.691406 35.117188 294.183594 33.351562 291.632812 31.648438 C 289.082031 29.941406 286.492188 28.300781 283.859375 26.722656 C 281.230469 25.144531 278.5625 23.632812 275.855469 22.1875 C 273.152344 20.738281 270.410156 19.359375 267.640625 18.046875 C 264.867188 16.734375 262.0625 15.488281 259.230469 14.3125 C 256.394531 13.140625 253.535156 12.035156 250.644531 11 C 247.757812 9.964844 244.847656 9 241.910156 8.109375 C 238.976562 7.214844 236.019531 6.398438 233.042969 5.648438 C 230.070312 4.902344 227.078125 4.230469 224.070312 3.628906 C 221.058594 3.027344 218.039062 2.5 215.003906 2.050781 C 211.96875 1.597656 208.925781 1.21875 205.875 0.917969 C 202.820312 0.613281 199.761719 0.386719 196.699219 0.234375 C 193.632812 0.0820312 190.566406 0.00390625 187.5 0 Z M 187.8125 296.875 C 186.785156 296.878906 185.769531 296.785156 184.761719 296.589844 C 183.753906 296.394531 182.777344 296.101562 181.828125 295.714844 C 180.878906 295.328125 179.972656 294.851562 179.117188 294.285156 C 178.261719 293.71875 177.46875 293.074219 176.742188 292.355469 C 176.011719 291.632812 175.359375 290.847656 174.785156 289.996094 C 174.210938 289.144531 173.726562 288.246094 173.328125 287.300781 C 172.929688 286.355469 172.628906 285.378906 172.425781 284.375 C 172.21875 283.371094 172.113281 282.355469 172.109375 281.328125 C 172.105469 280.300781 172.199219 279.285156 172.394531 278.277344 C 172.589844 277.269531 172.882812 276.292969 173.269531 275.34375 C 173.65625 274.394531 174.132812 273.488281 174.699219 272.632812 C 175.265625 271.777344 175.910156 270.984375 176.628906 270.257812 C 177.351562 269.527344 178.136719 268.875 178.988281 268.300781 C 179.839844 267.726562 180.738281 267.242188 181.683594 266.84375 C 182.628906 266.445312 183.605469 266.144531 184.609375 265.941406 C 185.613281 265.734375 186.628906 265.628906 187.65625 265.625 L 187.8125 265.625 C 188.839844 265.625 189.855469 265.726562 190.859375 265.925781 C 191.867188 266.125 192.84375 266.421875 193.792969 266.8125 C 194.738281 267.207031 195.640625 267.6875 196.492188 268.257812 C 197.347656 268.828125 198.136719 269.476562 198.859375 270.203125 C 199.585938 270.925781 200.234375 271.714844 200.804688 272.570312 C 201.375 273.421875 201.855469 274.324219 202.25 275.269531 C 202.640625 276.21875 202.9375 277.195312 203.136719 278.203125 C 203.335938 279.207031 203.4375 280.222656 203.4375 281.25 C 203.4375 282.277344 203.335938 283.292969 203.136719 284.296875 C 202.9375 285.304688 202.640625 286.28125 202.25 287.230469 C 201.855469 288.175781 201.375 289.078125 200.804688 289.929688 C 200.234375 290.785156 199.585938 291.574219 198.859375 292.296875 C 198.136719 293.023438 197.347656 293.671875 196.492188 294.242188 C 195.640625 294.8125 194.738281 295.292969 193.792969 295.6875 C 192.84375 296.078125 191.867188 296.375 190.859375 296.574219 C 189.855469 296.773438 188.839844 296.875 187.8125 296.875 Z M 217.65625 195.390625 C 216.617188 195.890625 215.613281 196.460938 214.648438 197.097656 C 213.683594 197.734375 212.769531 198.433594 211.898438 199.191406 C 211.027344 199.953125 210.210938 200.765625 209.453125 201.636719 C 208.691406 202.507812 207.992188 203.421875 207.355469 204.386719 C 206.71875 205.351562 206.152344 206.351562 205.648438 207.394531 C 205.148438 208.433594 204.71875 209.503906 204.359375 210.601562 C 204.003906 211.699219 203.722656 212.816406 203.515625 213.953125 C 203.308594 215.089844 203.175781 216.238281 203.125 217.390625 C 203.128906 218.433594 203.035156 219.46875 202.84375 220.496094 C 202.648438 221.523438 202.359375 222.519531 201.972656 223.488281 C 201.585938 224.460938 201.109375 225.382812 200.546875 226.261719 C 199.980469 227.140625 199.335938 227.957031 198.613281 228.710938 C 197.890625 229.464844 197.105469 230.140625 196.25 230.742188 C 195.398438 231.347656 194.496094 231.859375 193.542969 232.289062 C 192.589844 232.714844 191.605469 233.050781 190.589844 233.289062 C 189.574219 233.527344 188.542969 233.664062 187.5 233.703125 C 186.996094 233.722656 186.496094 233.714844 185.992188 233.683594 C 185.492188 233.652344 184.992188 233.59375 184.496094 233.511719 C 184 233.429688 183.507812 233.324219 183.023438 233.191406 C 182.539062 233.0625 182.0625 232.90625 181.589844 232.726562 C 181.121094 232.546875 180.660156 232.347656 180.210938 232.121094 C 179.761719 231.898438 179.324219 231.652344 178.898438 231.382812 C 178.472656 231.113281 178.0625 230.824219 177.667969 230.515625 C 177.269531 230.203125 176.890625 229.875 176.527344 229.527344 C 176.164062 229.179688 175.820312 228.816406 175.492188 228.433594 C 175.164062 228.050781 174.859375 227.652344 174.570312 227.242188 C 174.285156 226.828125 174.019531 226.402344 173.773438 225.960938 C 173.53125 225.523438 173.308594 225.074219 173.109375 224.609375 C 172.910156 224.148438 172.734375 223.679688 172.582031 223.199219 C 172.429688 222.71875 172.300781 222.234375 172.199219 221.742188 C 172.09375 221.25 172.015625 220.753906 171.960938 220.253906 C 171.90625 219.753906 171.878906 219.253906 171.875 218.75 C 171.867188 216.148438 172.035156 213.554688 172.378906 210.976562 C 172.726562 208.398438 173.246094 205.851562 173.941406 203.34375 C 174.632812 200.835938 175.496094 198.386719 176.527344 196 C 177.558594 193.609375 178.746094 191.300781 180.09375 189.074219 C 181.441406 186.847656 182.933594 184.722656 184.570312 182.699219 C 186.210938 180.675781 187.976562 178.777344 189.878906 176.996094 C 191.777344 175.214844 193.789062 173.574219 195.910156 172.070312 C 198.035156 170.566406 200.253906 169.214844 202.5625 168.015625 C 203.996094 167.226562 205.359375 166.328125 206.652344 165.324219 C 207.945312 164.320312 209.152344 163.21875 210.273438 162.027344 C 211.394531 160.832031 212.414062 159.558594 213.335938 158.203125 C 214.253906 156.847656 215.066406 155.429688 215.761719 153.949219 C 216.460938 152.46875 217.035156 150.941406 217.492188 149.367188 C 217.949219 147.796875 218.28125 146.195312 218.488281 144.574219 C 218.695312 142.949219 218.773438 141.316406 218.722656 139.679688 C 218.671875 138.042969 218.492188 136.421875 218.1875 134.8125 C 217.886719 133.277344 217.46875 131.777344 216.945312 130.304688 C 216.417969 128.832031 215.789062 127.40625 215.050781 126.027344 C 214.3125 124.648438 213.480469 123.332031 212.546875 122.078125 C 211.613281 120.820312 210.59375 119.640625 209.488281 118.539062 C 208.382812 117.433594 207.199219 116.417969 205.941406 115.492188 C 204.683594 114.5625 203.363281 113.730469 201.984375 113 C 200.601562 112.265625 199.175781 111.640625 197.699219 111.117188 C 196.226562 110.597656 194.722656 110.1875 193.1875 109.890625 C 192.0625 109.683594 190.929688 109.535156 189.792969 109.453125 C 188.652344 109.367188 187.511719 109.347656 186.367188 109.390625 C 185.226562 109.429688 184.089844 109.535156 182.957031 109.699219 C 181.828125 109.867188 180.707031 110.09375 179.601562 110.382812 C 178.496094 110.671875 177.410156 111.019531 176.34375 111.429688 C 175.273438 111.835938 174.230469 112.300781 173.214844 112.824219 C 172.199219 113.347656 171.214844 113.921875 170.261719 114.554688 C 169.308594 115.183594 168.390625 115.867188 167.511719 116.597656 C 166.632812 117.328125 165.796875 118.105469 165.003906 118.929688 C 164.210938 119.75 163.464844 120.613281 162.765625 121.519531 C 162.066406 122.425781 161.421875 123.363281 160.824219 124.339844 C 160.230469 125.316406 159.6875 126.320312 159.203125 127.355469 C 158.71875 128.390625 158.292969 129.449219 157.921875 130.53125 C 157.554688 131.613281 157.246094 132.710938 156.996094 133.828125 C 156.75 134.945312 156.5625 136.070312 156.4375 137.207031 C 156.3125 138.34375 156.25 139.480469 156.25 140.625 C 156.25 141.652344 156.148438 142.667969 155.949219 143.671875 C 155.75 144.679688 155.453125 145.65625 155.0625 146.605469 C 154.667969 147.550781 154.1875 148.453125 153.617188 149.304688 C 153.046875 150.160156 152.398438 150.949219 151.671875 151.671875 C 150.949219 152.398438 150.160156 153.046875 149.304688 153.617188 C 148.453125 154.1875 147.550781 154.667969 146.605469 155.0625 C 145.65625 155.453125 144.679688 155.75 143.671875 155.949219 C 142.667969 156.148438 141.652344 156.25 140.625 156.25 C 139.597656 156.25 138.582031 156.148438 137.578125 155.949219 C 136.570312 155.75 135.59375 155.453125 134.644531 155.0625 C 133.699219 154.667969 132.796875 154.1875 131.945312 153.617188 C 131.089844 153.046875 130.300781 152.398438 129.578125 151.671875 C 128.851562 150.949219 128.203125 150.160156 127.632812 149.304688 C 127.0625 148.453125 126.582031 147.550781 126.1875 146.605469 C 125.796875 145.65625 125.5 144.679688 125.300781 143.671875 C 125.101562 142.667969 125 141.652344 125 140.625 C 125 138.796875 125.082031 136.972656 125.242188 135.152344 C 125.402344 133.332031 125.644531 131.519531 125.960938 129.722656 C 126.28125 127.921875 126.679688 126.140625 127.15625 124.375 C 127.632812 122.609375 128.183594 120.871094 128.8125 119.152344 C 129.441406 117.4375 130.144531 115.75 130.917969 114.097656 C 131.695312 112.441406 132.542969 110.824219 133.460938 109.246094 C 134.378906 107.664062 135.367188 106.128906 136.417969 104.632812 C 137.472656 103.140625 138.589844 101.695312 139.769531 100.296875 C 140.949219 98.902344 142.1875 97.5625 143.484375 96.273438 C 144.78125 94.988281 146.132812 93.757812 147.539062 92.589844 C 148.945312 91.421875 150.398438 90.316406 151.902344 89.277344 C 153.402344 88.234375 154.949219 87.261719 156.535156 86.355469 C 158.125 85.449219 159.75 84.617188 161.410156 83.851562 C 163.070312 83.089844 164.761719 82.402344 166.484375 81.785156 C 168.203125 81.171875 169.949219 80.632812 171.71875 80.171875 C 173.488281 79.710938 175.273438 79.328125 177.074219 79.023438 C 178.875 78.71875 180.6875 78.492188 182.511719 78.347656 C 184.332031 78.199219 186.15625 78.136719 187.984375 78.148438 C 189.8125 78.164062 191.636719 78.257812 193.457031 78.429688 C 195.273438 78.605469 197.082031 78.859375 198.878906 79.191406 C 200.679688 79.523438 202.457031 79.9375 204.21875 80.425781 C 205.980469 80.914062 207.714844 81.480469 209.425781 82.121094 C 211.140625 82.761719 212.820312 83.476562 214.46875 84.265625 C 216.117188 85.054688 217.726562 85.914062 219.300781 86.84375 C 220.875 87.773438 222.40625 88.769531 223.890625 89.835938 C 225.375 90.898438 226.8125 92.027344 228.199219 93.214844 C 229.585938 94.40625 230.921875 95.65625 232.199219 96.960938 C 233.476562 98.269531 234.691406 99.628906 235.851562 101.042969 C 237.007812 102.457031 238.101562 103.921875 239.132812 105.429688 C 240.164062 106.941406 241.125 108.492188 242.019531 110.085938 C 242.914062 111.679688 243.734375 113.3125 244.484375 114.976562 C 245.234375 116.644531 245.914062 118.339844 246.515625 120.066406 C 247.117188 121.792969 247.640625 123.542969 248.089844 125.3125 C 248.539062 127.085938 248.90625 128.875 249.199219 130.675781 C 249.492188 132.480469 249.703125 134.296875 249.835938 136.117188 C 249.96875 137.941406 250.019531 139.765625 249.992188 141.59375 C 249.964844 143.421875 249.859375 145.246094 249.667969 147.0625 C 249.480469 148.882812 249.214844 150.6875 248.871094 152.480469 C 248.523438 154.277344 248.097656 156.054688 247.597656 157.8125 C 247.09375 159.566406 246.515625 161.300781 245.863281 163.007812 C 245.210938 164.714844 244.480469 166.390625 243.679688 168.03125 C 242.878906 169.675781 242.007812 171.28125 241.066406 172.847656 C 240.125 174.414062 239.117188 175.933594 238.042969 177.414062 C 236.96875 178.890625 235.828125 180.320312 234.628906 181.699219 C 233.429688 183.074219 232.167969 184.398438 230.851562 185.667969 C 229.535156 186.933594 228.167969 188.140625 226.746094 189.289062 C 225.320312 190.4375 223.851562 191.519531 222.335938 192.539062 C 220.816406 193.558594 219.257812 194.507812 217.65625 195.390625 Z M 217.65625 195.390625 " fill-opacity="1" fill-rule="nonzero"/></svg>