<svg xmlns="http://www.w3.org/2000/svg" xmlns:xlink="http://www.w3.org/1999/xlink" width="500" zoomAndPan="magnify" viewBox="0 0 375 374.999991" height="500" preserveAspectRatio="xMidYMid meet" version="1.0"><defs><filter x="0%" y="0%" width="100%" height="100%" id="7e543e5706"><feColorMatrix values="0 0 0 0 1 0 0 0 0 1 0 0 0 0 1 0 0 0 1 0" color-interpolation-filters="sRGB"/></filter><mask id="f278878493"><g filter="url(#7e543e5706)"><rect x="-37.5" width="450" fill="#000000" y="-37.499999" height="449.999989" fill-opacity="0.5"/></g></mask><clipPath id="5876e2673b"><path d="M 0 0 L 375 0 L 375 375 L 0 375 Z M 0 0 " clip-rule="nonzero"/></clipPath><clipPath id="b2e36dee84"><rect x="0" width="375" y="0" height="375"/></clipPath></defs><g mask="url(#f278878493)"><g transform="matrix(1, 0, 0, 1, 0, 0)"><g clip-path="url(#b2e36dee84)"><g clip-path="url(#5876e2673b)"><path fill="#ffffff" d="M 187.335938 -0.109375 C 83.8125 -0.109375 -0.109375 83.820312 -0.109375 187.339844 C -0.109375 290.859375 83.8125 374.792969 187.335938 374.792969 C 290.855469 374.792969 374.789062 290.859375 374.789062 187.339844 C 374.789062 83.816406 290.855469 -0.109375 187.335938 -0.109375 Z M 112.757812 255.402344 C 105.597656 255.402344 99.808594 249.609375 99.808594 242.449219 C 99.808594 235.296875 105.597656 229.503906 112.757812 229.503906 C 119.910156 229.503906 125.703125 235.296875 125.703125 242.449219 C 125.703125 249.609375 119.910156 255.402344 112.757812 255.402344 Z M 112.757812 200.289062 C 105.597656 200.289062 99.808594 194.496094 99.808594 187.335938 C 99.808594 180.179688 105.597656 174.390625 112.757812 174.390625 C 119.910156 174.390625 125.703125 180.179688 125.703125 187.335938 C 125.703125 194.496094 119.910156 200.289062 112.757812 200.289062 Z M 112.757812 145.175781 C 105.597656 145.175781 99.808594 139.386719 99.808594 132.226562 C 99.808594 125.074219 105.597656 119.28125 112.757812 119.28125 C 119.910156 119.28125 125.703125 125.074219 125.703125 132.226562 C 125.703125 139.386719 119.910156 145.175781 112.757812 145.175781 Z M 274.871094 254.589844 L 153.472656 254.589844 C 146.316406 254.589844 140.511719 248.785156 140.511719 241.628906 C 140.511719 234.46875 146.316406 228.664062 153.472656 228.664062 L 274.871094 228.664062 C 282.03125 228.664062 287.835938 234.46875 287.835938 241.628906 C 287.835938 248.785156 282.03125 254.589844 274.871094 254.589844 Z M 274.871094 199.898438 L 153.472656 199.898438 C 146.316406 199.898438 140.511719 194.09375 140.511719 186.933594 C 140.511719 179.773438 146.316406 173.96875 153.472656 173.96875 L 274.871094 173.96875 C 282.03125 173.96875 287.835938 179.773438 287.835938 186.933594 C 287.835938 194.09375 282.03125 199.898438 274.871094 199.898438 Z M 274.871094 145.203125 L 153.472656 145.203125 C 146.316406 145.203125 140.511719 139.398438 140.511719 132.238281 C 140.511719 125.078125 146.316406 119.273438 153.472656 119.273438 L 274.871094 119.273438 C 282.03125 119.273438 287.835938 125.078125 287.835938 132.238281 C 287.835938 139.398438 282.03125 145.203125 274.871094 145.203125 Z M 274.871094 145.203125 " fill-opacity="1" fill-rule="nonzero"/></g></g></g></g></svg>