<svg xmlns="http://www.w3.org/2000/svg" xmlns:xlink="http://www.w3.org/1999/xlink" width="500" zoomAndPan="magnify" viewBox="0 0 375 374.999991" height="500" preserveAspectRatio="xMidYMid meet" version="1.0"><path fill="#ffbe0d" d="M 189.296875 31.957031 C 190.808594 31.957031 194.539062 32.390625 196.554688 36.46875 L 232.179688 108.722656 C 238.476562 121.453125 250.632812 130.292969 264.734375 132.378906 L 344.320312 143.921875 C 345.234375 144.058594 345.808594 144.242188 346.105469 144.355469 C 346.195312 144.378906 346.265625 144.425781 346.355469 144.445312 C 348.832031 145.386719 350.640625 147.605469 351.210938 150.355469 C 351.625 152.300781 351.53125 155.140625 348.875 157.730469 L 291.292969 213.929688 C 281.039062 223.890625 276.390625 238.226562 278.816406 252.265625 L 292.417969 331.640625 C 292.851562 334.113281 292.277344 336.289062 290.746094 338.097656 C 289.140625 340 286.808594 341.121094 284.472656 341.121094 C 283.210938 341.121094 281.953125 340.800781 280.695312 340.136719 L 209.421875 302.648438 C 203.238281 299.417969 196.28125 297.699219 189.296875 297.699219 C 182.3125 297.699219 175.355469 299.417969 169.148438 302.671875 L 97.875 340.160156 C 96.640625 340.824219 95.382812 341.144531 94.121094 341.144531 C 90.457031 341.144531 86.359375 338.167969 86.085938 333.746094 C 86.085938 333.5625 86.0625 333.402344 86.039062 333.21875 C 86.015625 333.058594 86.015625 332.554688 86.152344 331.640625 L 99.800781 252.21875 C 102.15625 238.203125 97.511719 223.890625 87.34375 213.953125 L 29.671875 157.730469 C 26.535156 154.683594 27.039062 151.25 27.613281 149.460938 C 28.070312 148.019531 29.648438 144.585938 34.160156 143.921875 L 113.835938 132.355469 C 127.890625 130.269531 140.050781 121.429688 146.34375 108.699219 L 182.015625 36.445312 C 183.984375 32.550781 187.417969 31.957031 189.296875 31.957031 M 189.296875 14.367188 C 180.140625 14.367188 171.003906 19.132812 166.289062 28.679688 L 130.617188 100.910156 C 126.886719 108.46875 119.671875 113.714844 111.316406 114.949219 L 31.664062 126.515625 C 10.601562 129.582031 2.152344 155.460938 17.421875 170.324219 L 75.074219 226.546875 C 81.09375 232.433594 83.863281 240.929688 82.46875 249.289062 L 68.847656 328.640625 C 68.503906 330.746094 68.363281 332.785156 68.546875 334.753906 C 69.347656 348.425781 81.070312 358.710938 94.144531 358.710938 C 98.105469 358.710938 102.179688 357.769531 106.117188 355.6875 L 177.367188 318.199219 C 181.101562 316.25 185.222656 315.265625 189.320312 315.265625 C 193.417969 315.265625 197.539062 316.25 201.269531 318.199219 L 272.519531 355.6875 C 276.457031 357.746094 280.535156 358.6875 284.472656 358.6875 C 299.421875 358.6875 312.609375 345.222656 309.769531 328.617188 L 296.171875 249.265625 C 294.730469 240.90625 297.5 232.410156 303.566406 226.523438 L 361.171875 170.300781 C 374.976562 156.835938 369.433594 134.417969 352.628906 127.980469 C 350.867188 127.269531 348.988281 126.789062 346.953125 126.492188 L 267.253906 114.925781 C 258.898438 113.691406 251.6875 108.46875 247.953125 100.890625 L 212.328125 28.660156 C 207.589844 19.132812 198.433594 14.367188 189.296875 14.367188 Z M 189.296875 14.367188 " fill-opacity="1" fill-rule="nonzero"/></svg>