<svg xmlns="http://www.w3.org/2000/svg" xmlns:xlink="http://www.w3.org/1999/xlink" width="1920" zoomAndPan="magnify" viewBox="0 0 1440 809.999993" height="1080" preserveAspectRatio="xMidYMid meet" version="1.0"><defs><clipPath id="b1d131e488"><path d="M 1312 364 L 1439.90625 364 L 1439.90625 494 L 1312 494 Z M 1312 364 " clip-rule="nonzero"/></clipPath><clipPath id="3e1b6703df"><path d="M 269.90625 317 L 398 317 L 398 447 L 269.90625 447 Z M 269.90625 317 " clip-rule="nonzero"/></clipPath></defs><rect x="-144" width="1728" fill="#ffffff" y="-80.999999" height="971.999992" fill-opacity="1"/><rect x="-144" width="1728" fill="#3a3a3b" y="-80.999999" height="971.999992" fill-opacity="1"/><path stroke-linecap="round" transform="matrix(0.847478, 0, 0, 0.847546, 345.915428, 123.385809)" fill="none" stroke-linejoin="miter" d="M 104.001785 80.002238 L 39.582734 79.757967 L 7.585235 23.852095 L 40.002177 -31.814115 L 104.416619 -31.569844 L 136.414118 24.336028 Z M 104.001785 80.002238 " stroke="#000000" stroke-width="3.543" stroke-opacity="1" stroke-miterlimit="4"/><path stroke-linecap="round" transform="matrix(0.847478, 0, 0, 0.847546, 427.276737, 170.848387)" fill="none" stroke-linejoin="miter" d="M 103.999503 80.000303 L 39.585062 79.760641 L 7.582953 23.854768 L 39.999895 -31.811441 L 104.414337 -31.571779 L 136.416446 24.334093 Z M 103.999503 80.000303 " stroke="#000000" stroke-width="3.543" stroke-opacity="1" stroke-miterlimit="4"/><path stroke-linecap="round" transform="matrix(0.847478, 0, 0, 0.847546, 427.624209, 76.129161)" fill="none" stroke-linejoin="miter" d="M 103.999721 80.000864 L 39.585279 79.761202 L 7.58317 23.85533 L 40.000113 -31.81088 L 104.414554 -31.571218 L 136.416663 24.334655 Z M 103.999721 80.000864 " stroke="#000000" stroke-width="3.543" stroke-opacity="1" stroke-miterlimit="4"/><path stroke-linecap="round" transform="matrix(0.847478, 0, 0, 0.847546, 508.982141, 123.589219)" fill="none" stroke-linejoin="miter" d="M 104.001424 80.001902 L 39.582373 79.76224 L 7.584873 23.851759 L 40.001815 -31.809842 L 104.416257 -31.570179 L 136.413757 24.335693 Z M 104.001424 80.001902 " stroke="#000000" stroke-width="3.543" stroke-opacity="1" stroke-miterlimit="4"/><path stroke-linecap="round" transform="matrix(0.847478, 0, 0, 0.847546, 427.624209, 266.061746)" fill="none" stroke-linejoin="miter" d="M 103.999721 80.002055 L 39.585279 79.757783 L 7.58317 23.851911 L 40.000113 -31.80969 L 104.414554 -31.570027 L 136.416663 24.335845 Z M 103.999721 80.002055 " stroke="#000000" stroke-width="3.543" stroke-opacity="1" stroke-miterlimit="4"/><path stroke-linecap="round" transform="matrix(0.847478, 0, 0, 0.847546, 508.982141, 313.524321)" fill="none" stroke-linejoin="miter" d="M 104.001424 80.000122 L 39.582373 79.76046 L 7.584873 23.854588 L 40.001815 -31.811622 L 104.416257 -31.57196 L 136.413757 24.333913 Z M 104.001424 80.000122 " stroke="#000000" stroke-width="3.543" stroke-opacity="1" stroke-miterlimit="4"/><path stroke-linecap="round" transform="matrix(0.847478, 0, 0, 0.847546, 509.338037, 218.802549)" fill="none" stroke-linejoin="miter" d="M 104.000919 79.999079 L 39.581868 79.759417 L 7.584369 23.853544 L 40.001311 -31.812665 L 104.415753 -31.573003 L 136.417862 24.332869 Z M 104.000919 79.999079 " stroke="#000000" stroke-width="3.543" stroke-opacity="1" stroke-miterlimit="4"/><path stroke-linecap="round" transform="matrix(0.847478, 0, 0, 0.847546, 590.695993, 266.265153)" fill="none" stroke-linejoin="miter" d="M 103.997985 80.001722 L 39.583543 79.762059 L 7.586043 23.856187 L 39.998377 -31.810023 L 104.417428 -31.57036 L 136.414927 24.335512 Z M 103.997985 80.001722 " stroke="#000000" stroke-width="3.543" stroke-opacity="1" stroke-miterlimit="4"/><path stroke-linecap="round" transform="matrix(0.847478, 0, 0, 0.847546, 589.636609, 170.568703)" fill="none" stroke-linejoin="miter" d="M 103.998917 79.998455 L 39.584475 79.758793 L 7.582367 23.852921 L 39.999309 -31.813289 L 104.413751 -31.573627 L 136.415859 24.332246 Z M 103.998917 79.998455 " stroke="#000000" stroke-width="3.543" stroke-opacity="1" stroke-miterlimit="4"/><path stroke-linecap="round" transform="matrix(0.847478, 0, 0, 0.847546, 670.994564, 218.031292)" fill="none" stroke-linejoin="miter" d="M 104.000592 80.001115 L 39.58615 79.761453 L 7.584041 23.85558 L 40.000983 -31.810629 L 104.415425 -31.570967 L 136.417534 24.334905 Z M 104.000592 80.001115 " stroke="#000000" stroke-width="3.543" stroke-opacity="1" stroke-miterlimit="4"/><path stroke-linecap="round" transform="matrix(0.847478, 0, 0, 0.847546, 671.350508, 123.309535)" fill="none" stroke-linejoin="miter" d="M 104.000031 80.000055 L 39.585589 79.760392 L 7.58348 23.85452 L 40.000423 -31.81169 L 104.414864 -31.572027 L 136.416973 24.333845 Z M 104.000031 80.000055 " stroke="#000000" stroke-width="3.543" stroke-opacity="1" stroke-miterlimit="4"/><path stroke-linecap="round" transform="matrix(0.847478, 0, 0, 0.847546, 752.708416, 170.772112)" fill="none" stroke-linejoin="miter" d="M 104.001762 79.99812 L 39.582711 79.758457 L 7.585211 23.852585 L 40.002154 -31.813625 L 104.416596 -31.573962 L 136.414095 24.33191 Z M 104.001762 79.99812 " stroke="#000000" stroke-width="3.543" stroke-opacity="1" stroke-miterlimit="4"/><path stroke-linecap="round" transform="matrix(0.847478, 0, 0, 0.847546, 671.350508, 313.236155)" fill="none" stroke-linejoin="miter" d="M 104.000031 79.999064 L 39.585589 79.759402 L 7.58348 23.85353 L 40.000423 -31.81268 L 104.414864 -31.573018 L 136.416973 24.332854 Z M 104.000031 79.999064 " stroke="#000000" stroke-width="3.543" stroke-opacity="1" stroke-miterlimit="4"/><path stroke-linecap="round" transform="matrix(0.847478, 0, 0, 0.847546, 752.708416, 360.698733)" fill="none" stroke-linejoin="miter" d="M 104.001762 80.001738 L 39.582711 79.762075 L 7.585211 23.856203 L 40.002154 -31.810006 L 104.416596 -31.570344 L 136.414095 24.335528 Z M 104.001762 80.001738 " stroke="#000000" stroke-width="3.543" stroke-opacity="1" stroke-miterlimit="4"/><path stroke-linecap="round" transform="matrix(0.847478, 0, 0, 0.847546, 753.055864, 265.97699)" fill="none" stroke-linejoin="miter" d="M 104.002008 80.000661 L 39.582957 79.760998 L 7.585457 23.855126 L 39.99779 -31.811084 L 104.416841 -31.571421 L 136.414341 24.334451 Z M 104.002008 80.000661 " stroke="#000000" stroke-width="3.543" stroke-opacity="1" stroke-miterlimit="4"/><path stroke-linecap="round" transform="matrix(0.847478, 0, 0, 0.847546, 834.413868, 313.439594)" fill="none" stroke-linejoin="miter" d="M 103.999016 79.998694 L 39.584575 79.759032 L 7.582466 23.85316 L 39.999408 -31.81305 L 104.41385 -31.573388 L 136.415959 24.332485 Z M 103.999016 79.998694 " stroke="#000000" stroke-width="3.543" stroke-opacity="1" stroke-miterlimit="4"/><path stroke-linecap="round" transform="matrix(0.847478, 0, 0, 0.847546, 508.982141, 408.449519)" fill="none" stroke-linejoin="miter" d="M 104.001424 80.00081 L 39.582373 79.761148 L 7.584873 23.855275 L 40.001815 -31.810934 L 104.416257 -31.571272 L 136.413757 24.3346 Z M 104.001424 80.00081 " stroke="#000000" stroke-width="3.543" stroke-opacity="1" stroke-miterlimit="4"/><path stroke-linecap="round" transform="matrix(0.847478, 0, 0, 0.847546, 590.340097, 455.912037)" fill="none" stroke-linejoin="miter" d="M 103.998489 79.998946 L 39.584047 79.759283 L 7.581938 23.853411 L 39.998881 -31.812799 L 104.417932 -31.573136 L 136.415431 24.332736 Z M 103.998489 79.998946 " stroke="#000000" stroke-width="3.543" stroke-opacity="1" stroke-miterlimit="4"/><path stroke-linecap="round" transform="matrix(0.847478, 0, 0, 0.847546, 590.695993, 361.190335)" fill="none" stroke-linejoin="miter" d="M 103.997985 79.99782 L 39.583543 79.758158 L 7.586043 23.852286 L 39.998377 -31.813924 L 104.417428 -31.574262 L 136.414927 24.336219 Z M 103.997985 79.99782 " stroke="#000000" stroke-width="3.543" stroke-opacity="1" stroke-miterlimit="4"/><path stroke-linecap="round" transform="matrix(0.847478, 0, 0, 0.847546, 672.053948, 408.652919)" fill="none" stroke-linejoin="miter" d="M 103.999659 80.000486 L 39.585217 79.760823 L 7.583109 23.854951 L 40.000051 -31.811259 L 104.414493 -31.571596 L 136.416602 24.334276 Z M 103.999659 80.000486 " stroke="#000000" stroke-width="3.543" stroke-opacity="1" stroke-miterlimit="4"/><path stroke-linecap="round" transform="matrix(0.847478, 0, 0, 0.847546, 590.695993, 551.116984)" fill="none" stroke-linejoin="miter" d="M 103.997985 80.001405 L 39.583543 79.761742 L 7.586043 23.85587 L 39.998377 -31.81034 L 104.417428 -31.570677 L 136.414927 24.335195 Z M 103.997985 80.001405 " stroke="#000000" stroke-width="3.543" stroke-opacity="1" stroke-miterlimit="4"/><path stroke-linecap="round" transform="matrix(0.847478, 0, 0, 0.847546, 672.053948, 598.57955)" fill="none" stroke-linejoin="miter" d="M 103.999659 79.999484 L 39.585217 79.759821 L 7.583109 23.853949 L 40.000051 -31.812261 L 104.414493 -31.572598 L 136.416602 24.333274 Z M 103.999659 79.999484 " stroke="#000000" stroke-width="3.543" stroke-opacity="1" stroke-miterlimit="4"/><path stroke-linecap="round" transform="matrix(0.847478, 0, 0, 0.847546, 672.401348, 503.857795)" fill="none" stroke-linejoin="miter" d="M 103.999962 79.998421 L 39.58552 79.758758 L 7.583411 23.852886 L 40.000353 -31.813324 L 104.414795 -31.573661 L 136.416904 24.332211 Z M 103.999962 79.998421 " stroke="#000000" stroke-width="3.543" stroke-opacity="1" stroke-miterlimit="4"/><path stroke-linecap="round" transform="matrix(0.847478, 0, 0, 0.847546, 753.75928, 551.32036)" fill="none" stroke-linejoin="miter" d="M 104.001664 80.001108 L 39.582613 79.761446 L 7.585114 23.855574 L 40.002056 -31.810636 L 104.416498 -31.570973 L 136.413997 24.334899 Z M 104.001664 80.001108 " stroke="#000000" stroke-width="3.543" stroke-opacity="1" stroke-miterlimit="4"/><path stroke-linecap="round" transform="matrix(0.847478, 0, 0, 0.847546, 752.708416, 455.623941)" fill="none" stroke-linejoin="miter" d="M 104.001762 79.997805 L 39.582711 79.758143 L 7.585211 23.852271 L 40.002154 -31.813939 L 104.416596 -31.574277 L 136.414095 24.336204 Z M 104.001762 79.997805 " stroke="#000000" stroke-width="3.543" stroke-opacity="1" stroke-miterlimit="4"/><path stroke-linecap="round" transform="matrix(0.847478, 0, 0, 0.847546, 834.0663, 503.086507)" fill="none" stroke-linejoin="miter" d="M 103.998912 80.000493 L 39.58447 79.760831 L 7.582362 23.854959 L 39.999304 -31.811251 L 104.413746 -31.571589 L 136.415854 24.334284 Z M 103.998912 80.000493 " stroke="#000000" stroke-width="3.543" stroke-opacity="1" stroke-miterlimit="4"/><path stroke-linecap="round" transform="matrix(0.847478, 0, 0, 0.847546, 834.413868, 408.364751)" fill="none" stroke-linejoin="miter" d="M 103.999016 79.99943 L 39.584575 79.759768 L 7.582466 23.853896 L 39.999408 -31.812314 L 104.41385 -31.572652 L 136.415959 24.33322 Z M 103.999016 79.99943 " stroke="#000000" stroke-width="3.543" stroke-opacity="1" stroke-miterlimit="4"/><path stroke-linecap="round" transform="matrix(0.847478, 0, 0, 0.847546, 915.771752, 455.827317)" fill="none" stroke-linejoin="miter" d="M 104.000776 80.002118 L 39.581725 79.757847 L 7.584225 23.851975 L 40.001168 -31.814235 L 104.415609 -31.569964 L 136.417718 24.335908 Z M 104.000776 80.002118 " stroke="#000000" stroke-width="3.543" stroke-opacity="1" stroke-miterlimit="4"/><path stroke-linecap="round" transform="matrix(0.847478, 0, 0, 0.847546, 834.413868, 598.29983)" fill="none" stroke-linejoin="miter" d="M 103.999016 80.002287 L 39.584575 79.758016 L 7.582466 23.852144 L 39.999408 -31.814066 L 104.41385 -31.569795 L 136.415959 24.336078 Z M 103.999016 80.002287 " stroke="#000000" stroke-width="3.543" stroke-opacity="1" stroke-miterlimit="4"/><path stroke-linecap="round" transform="matrix(0.847478, 0, 0, 0.847546, 915.771752, 645.76242)" fill="none" stroke-linejoin="miter" d="M 104.000776 80.000338 L 39.581725 79.760676 L 7.584225 23.854803 L 40.001168 -31.811406 L 104.415609 -31.571744 L 136.417718 24.334128 Z M 104.000776 80.000338 " stroke="#000000" stroke-width="3.543" stroke-opacity="1" stroke-miterlimit="4"/><path stroke-linecap="round" transform="matrix(0.847478, 0, 0, 0.847546, 916.127648, 551.04064)" fill="none" stroke-linejoin="miter" d="M 104.000272 79.999303 L 39.58583 79.759641 L 7.583721 23.853769 L 40.000663 -31.812441 L 104.415105 -31.572779 L 136.417214 24.333093 Z M 104.000272 79.999303 " stroke="#000000" stroke-width="3.543" stroke-opacity="1" stroke-miterlimit="4"/><path stroke-linecap="round" transform="matrix(0.847478, 0, 0, 0.847546, 997.485652, 598.503206)" fill="none" stroke-linejoin="miter" d="M 104.001889 80.001991 L 39.582838 79.762329 L 7.585339 23.851848 L 40.002281 -31.809753 L 104.416723 -31.570091 L 136.414223 24.335781 Z M 104.001889 80.001991 " stroke="#000000" stroke-width="3.543" stroke-opacity="1" stroke-miterlimit="4"/><path stroke-linecap="round" transform="matrix(0.847478, 0, 0, 0.847546, 914.712392, 360.291945)" fill="none" stroke-linejoin="miter" d="M 104.00168 79.997764 L 39.582629 79.758101 L 7.585129 23.852229 L 40.002072 -31.813981 L 104.416513 -31.569709 L 136.414013 24.336163 Z M 104.00168 79.997764 " stroke="#000000" stroke-width="3.543" stroke-opacity="1" stroke-miterlimit="4"/><path stroke-linecap="round" transform="matrix(0.847478, 0, 0, 0.847546, 996.070396, 407.754551)" fill="none" stroke-linejoin="miter" d="M 103.998688 80.000404 L 39.584247 79.760741 L 7.582138 23.854869 L 39.99908 -31.811341 L 104.418131 -31.571678 L 136.415631 24.334194 Z M 103.998688 80.000404 " stroke="#000000" stroke-width="3.543" stroke-opacity="1" stroke-miterlimit="4"/><path stroke-linecap="round" transform="matrix(0.847478, 0, 0, 0.847546, 996.426292, 313.032748)" fill="none" stroke-linejoin="miter" d="M 103.998184 79.999397 L 39.583743 79.759735 L 7.586243 23.853862 L 39.998576 -31.812347 L 104.417627 -31.572685 L 136.415127 24.333187 Z M 103.998184 79.999397 " stroke="#000000" stroke-width="3.543" stroke-opacity="1" stroke-miterlimit="4"/><path stroke-linecap="round" transform="matrix(0.847478, 0, 0, 0.847546, 1077.784176, 360.495352)" fill="none" stroke-linejoin="miter" d="M 103.999944 80.00204 L 39.585502 79.757768 L 7.583393 23.851896 L 40.000336 -31.809705 L 104.414777 -31.570042 L 136.416886 24.33583 Z M 103.999944 80.00204 " stroke="#000000" stroke-width="3.543" stroke-opacity="1" stroke-miterlimit="4"/><path stroke-linecap="round" transform="matrix(0.847478, 0, 0, 0.847546, 996.426292, 502.967875)" fill="none" stroke-linejoin="miter" d="M 103.998184 80.002198 L 39.583743 79.757926 L 7.586243 23.852054 L 39.998576 -31.814156 L 104.417627 -31.569884 L 136.415127 24.335988 Z M 103.998184 80.002198 " stroke="#000000" stroke-width="3.543" stroke-opacity="1" stroke-miterlimit="4"/><path stroke-linecap="round" transform="matrix(0.847478, 0, 0, 0.847546, 1077.784176, 550.43044)" fill="none" stroke-linejoin="miter" d="M 103.999944 80.000277 L 39.585502 79.760614 L 7.583393 23.854742 L 40.000336 -31.811468 L 104.414777 -31.571805 L 136.416886 24.334067 Z M 103.999944 80.000277 " stroke="#000000" stroke-width="3.543" stroke-opacity="1" stroke-miterlimit="4"/><path stroke-linecap="round" transform="matrix(0.847478, 0, 0, 0.847546, 1078.140192, 455.708661)" fill="none" stroke-linejoin="miter" d="M 103.999298 79.999242 L 39.584856 79.759579 L 7.582748 23.853707 L 39.99969 -31.812503 L 104.414132 -31.57284 L 136.41624 24.333032 Z M 103.999298 79.999242 " stroke="#000000" stroke-width="3.543" stroke-opacity="1" stroke-miterlimit="4"/><path stroke-linecap="round" transform="matrix(0.847478, 0, 0, 0.847546, 1159.53194, 503.171251)" fill="none" stroke-linejoin="miter" d="M 103.997973 80.001901 L 39.583531 79.762239 L 7.586032 23.851758 L 39.998365 -31.809843 L 104.417416 -31.57018 L 136.414915 24.335692 Z M 103.997973 80.001901 " stroke="#000000" stroke-width="3.543" stroke-opacity="1" stroke-miterlimit="4"/><path stroke-linecap="round" transform="matrix(0.847478, 0, 0, 0.847546, 1159.53194, 408.246095)" fill="none" stroke-linejoin="miter" d="M 103.997973 80.001163 L 39.583531 79.7615 L 7.586032 23.855628 L 39.998365 -31.810582 L 104.417416 -31.570919 L 136.414915 24.334953 Z M 103.997973 80.001163 " stroke="#000000" stroke-width="3.543" stroke-opacity="1" stroke-miterlimit="4"/><path stroke-linecap="round" transform="matrix(0.847478, 0, 0, 0.847546, 1240.889824, 455.708661)" fill="none" stroke-linejoin="miter" d="M 103.999732 79.999242 L 39.585291 79.759579 L 7.583182 23.853707 L 40.000124 -31.812503 L 104.414566 -31.57284 L 136.416675 24.333032 Z M 103.999732 79.999242 " stroke="#000000" stroke-width="3.543" stroke-opacity="1" stroke-miterlimit="4"/><path stroke-linecap="round" transform="matrix(0.847478, 0, 0, 0.847546, 1241.228848, 360.986954)" fill="none" stroke-linejoin="miter" d="M 104.0007 79.998122 L 39.586258 79.75846 L 7.584149 23.852587 L 40.001092 -31.813622 L 104.415533 -31.57396 L 136.417642 24.331912 Z M 104.0007 79.998122 " stroke="#000000" stroke-width="3.543" stroke-opacity="1" stroke-miterlimit="4"/><g clip-path="url(#b1d131e488)"><path stroke-linecap="round" transform="matrix(0.847478, 0, 0, 0.847546, 1322.586852, 408.449519)" fill="none" stroke-linejoin="miter" d="M 103.997708 80.00081 L 39.583267 79.761148 L 7.585767 23.855275 L 39.9981 -31.810934 L 104.417151 -31.571272 L 136.414651 24.3346 Z M 103.997708 80.00081 " stroke="#000000" stroke-width="3.543" stroke-opacity="1" stroke-miterlimit="4"/></g><path stroke-linecap="round" transform="matrix(0.847478, 0, 0, 0.847546, 834.0663, 218.395732)" fill="none" stroke-linejoin="miter" d="M 103.998912 79.999748 L 39.58447 79.760085 L 7.582362 23.854213 L 39.999304 -31.811997 L 104.413746 -31.572334 L 136.415854 24.333538 Z M 103.998912 79.999748 " stroke="#000000" stroke-width="3.543" stroke-opacity="1" stroke-miterlimit="4"/><path stroke-linecap="round" transform="matrix(0.847478, 0, 0, 0.847546, 915.424304, 265.858307)" fill="none" stroke-linejoin="miter" d="M 104.00053 79.997816 L 39.586088 79.758153 L 7.58398 23.852281 L 40.000922 -31.813929 L 104.415364 -31.574266 L 136.417472 24.336215 Z M 104.00053 79.997816 " stroke="#000000" stroke-width="3.543" stroke-opacity="1" stroke-miterlimit="4"/><path stroke-linecap="round" transform="matrix(0.847478, 0, 0, 0.847546, 915.771752, 171.136564)" fill="none" stroke-linejoin="miter" d="M 104.000776 80.001347 L 39.581725 79.761685 L 7.584225 23.855813 L 40.001168 -31.810397 L 104.415609 -31.570735 L 136.417718 24.335137 Z M 104.000776 80.001347 " stroke="#000000" stroke-width="3.543" stroke-opacity="1" stroke-miterlimit="4"/><path stroke-linecap="round" transform="matrix(0.847478, 0, 0, 0.847546, 997.129636, 218.599168)" fill="none" stroke-linejoin="miter" d="M 103.997926 79.999381 L 39.583484 79.759718 L 7.585985 23.853846 L 39.998318 -31.812363 L 104.417369 -31.572701 L 136.414868 24.333171 Z M 103.997926 79.999381 " stroke="#000000" stroke-width="3.543" stroke-opacity="1" stroke-miterlimit="4"/><path stroke-linecap="round" transform="matrix(0.847478, 0, 0, 0.847546, 1080.343536, 172.348562)" fill="none" stroke-linejoin="miter" d="M 103.99904 80.000096 L 39.584598 79.760434 L 7.582489 23.854562 L 39.999432 -31.811648 L 104.413873 -31.571985 L 136.415982 24.333887 Z M 103.99904 80.000096 " stroke="#000000" stroke-width="3.543" stroke-opacity="1" stroke-miterlimit="4"/><path stroke-linecap="round" transform="matrix(0.847478, 0, 0, 0.847546, 752.352496, 75.722344)" fill="none" stroke-linejoin="miter" d="M 104.002294 80.001533 L 39.583243 79.761871 L 7.585744 23.855998 L 39.998077 -31.810211 L 104.417128 -31.570549 L 136.414627 24.335323 Z M 104.002294 80.001533 " stroke="#000000" stroke-width="3.543" stroke-opacity="1" stroke-miterlimit="4"/><path stroke-linecap="round" transform="matrix(0.847478, 0, 0, 0.847546, 833.710404, 123.182387)" fill="none" stroke-linejoin="miter" d="M 103.999416 79.997979 L 39.584975 79.758317 L 7.582866 23.852445 L 39.999808 -31.813765 L 104.41425 -31.574103 L 136.416359 24.33177 Z M 103.999416 79.997979 " stroke="#000000" stroke-width="3.543" stroke-opacity="1" stroke-miterlimit="4"/><path stroke-linecap="round" transform="matrix(0.847478, 0, 0, 0.847546, 834.0663, 28.463165)" fill="none" stroke-linejoin="miter" d="M 103.998912 79.998537 L 39.58447 79.758874 L 7.582362 23.853002 L 39.999304 -31.813208 L 104.413746 -31.573545 L 136.415854 24.332327 Z M 103.998912 79.998537 " stroke="#000000" stroke-width="3.543" stroke-opacity="1" stroke-miterlimit="4"/><path stroke-linecap="round" transform="matrix(0.847478, 0, 0, 0.847546, 915.424304, 75.925761)" fill="none" stroke-linejoin="miter" d="M 104.00053 80.001189 L 39.586088 79.761526 L 7.58398 23.855654 L 40.000922 -31.810556 L 104.415364 -31.570893 L 136.417472 24.334979 Z M 104.00053 80.001189 " stroke="#000000" stroke-width="3.543" stroke-opacity="1" stroke-miterlimit="4"/><path stroke-linecap="round" transform="matrix(0.847478, 0, 0, 0.847546, 346.267988, 503.289955)" fill="none" stroke-linejoin="miter" d="M 104.000608 80.000112 L 39.586166 79.76045 L 7.584058 23.854578 L 40.001 -31.811632 L 104.415442 -31.57197 L 136.41755 24.333902 Z M 104.000608 80.000112 " stroke="#000000" stroke-width="3.543" stroke-opacity="1" stroke-miterlimit="4"/><path stroke-linecap="round" transform="matrix(0.847478, 0, 0, 0.847546, 427.624209, 550.75252)" fill="none" stroke-linejoin="miter" d="M 103.999721 79.998191 L 39.585279 79.758529 L 7.58317 23.852657 L 40.000113 -31.813553 L 104.414554 -31.573891 L 136.416663 24.331981 Z M 103.999721 79.998191 " stroke="#000000" stroke-width="3.543" stroke-opacity="1" stroke-miterlimit="4"/><path stroke-linecap="round" transform="matrix(0.847478, 0, 0, 0.847546, 427.980153, 456.030765)" fill="none" stroke-linejoin="miter" d="M 103.99916 80.001737 L 39.584718 79.762075 L 7.58261 23.856202 L 39.999552 -31.810007 L 104.413994 -31.570345 L 136.416102 24.335527 Z M 103.99916 80.001737 " stroke="#000000" stroke-width="3.543" stroke-opacity="1" stroke-miterlimit="4"/><path stroke-linecap="round" transform="matrix(0.847478, 0, 0, 0.847546, 509.338037, 503.493331)" fill="none" stroke-linejoin="miter" d="M 104.000919 79.999816 L 39.581868 79.760154 L 7.584369 23.854281 L 40.001311 -31.811928 L 104.415753 -31.572266 L 136.417862 24.333606 Z M 104.000919 79.999816 " stroke="#000000" stroke-width="3.543" stroke-opacity="1" stroke-miterlimit="4"/><g clip-path="url(#3e1b6703df)"><path stroke-linecap="round" transform="matrix(0.847478, 0, 0, 0.847546, 265.26175, 361.266623)" fill="none" stroke-linejoin="miter" d="M 103.998751 79.999987 L 39.584309 79.760324 L 7.5822 23.854452 L 39.999142 -31.811758 L 104.418193 -31.572095 L 136.415693 24.333777 Z M 103.998751 79.999987 " stroke="#000000" stroke-width="3.543" stroke-opacity="1" stroke-miterlimit="4"/></g><path stroke-linecap="round" transform="matrix(0.847478, 0, 0, 0.847546, 346.619696, 408.729239)" fill="none" stroke-linejoin="miter" d="M 104.000436 79.998006 L 39.585995 79.758344 L 7.583886 23.852472 L 40.000828 -31.813738 L 104.41527 -31.574076 L 136.417379 24.331797 Z M 104.000436 79.998006 " stroke="#000000" stroke-width="3.543" stroke-opacity="1" stroke-miterlimit="4"/><path stroke-linecap="round" transform="matrix(0.847478, 0, 0, 0.847546, 346.972225, 314.007427)" fill="none" stroke-linejoin="miter" d="M 103.999296 80.00162 L 39.584854 79.761958 L 7.582746 23.856086 L 39.999688 -31.810124 L 104.41413 -31.570462 L 136.416239 24.33541 Z M 103.999296 80.00162 " stroke="#000000" stroke-width="3.543" stroke-opacity="1" stroke-miterlimit="4"/><path stroke-linecap="round" transform="matrix(0.847478, 0, 0, 0.847546, 428.327625, 361.470031)" fill="none" stroke-linejoin="miter" d="M 103.999377 79.999654 L 39.584936 79.759991 L 7.582827 23.854119 L 39.999769 -31.812091 L 104.414211 -31.572428 L 136.41632 24.333444 Z M 103.999377 79.999654 " stroke="#000000" stroke-width="3.543" stroke-opacity="1" stroke-miterlimit="4"/><path stroke-linecap="round" transform="matrix(0.847478, 0, 0, 0.847546, 427.980153, 645.965844)" fill="none" stroke-linejoin="miter" d="M 103.99916 79.999985 L 39.584718 79.760323 L 7.58261 23.854451 L 39.999552 -31.811759 L 104.413994 -31.572097 L 136.416102 24.333775 Z M 103.99916 79.999985 " stroke="#000000" stroke-width="3.543" stroke-opacity="1" stroke-miterlimit="4"/><path stroke-linecap="round" transform="matrix(0.847478, 0, 0, 0.847546, 509.338037, 693.428433)" fill="none" stroke-linejoin="miter" d="M 104.000919 79.998036 L 39.581868 79.758374 L 7.584369 23.852501 L 40.001311 -31.813708 L 104.415753 -31.574046 L 136.417862 24.331826 Z M 104.000919 79.998036 " stroke="#000000" stroke-width="3.543" stroke-opacity="1" stroke-miterlimit="4"/><path stroke-linecap="round" transform="matrix(0.847478, 0, 0, 0.847546, 509.685509, 598.706702)" fill="none" stroke-linejoin="miter" d="M 104.001137 80.001553 L 39.582086 79.761891 L 7.584586 23.856019 L 40.001529 -31.810191 L 104.415971 -31.570528 L 136.418079 24.335344 Z M 104.001137 80.001553 " stroke="#000000" stroke-width="3.543" stroke-opacity="1" stroke-miterlimit="4"/><path stroke-linecap="round" transform="matrix(0.847478, 0, 0, 0.847546, 591.043464, 646.169291)" fill="none" stroke-linejoin="miter" d="M 103.998202 79.999604 L 39.58376 79.759942 L 7.586261 23.85407 L 39.998594 -31.81214 L 104.417645 -31.572478 L 136.415144 24.333394 Z M 103.998202 79.999604 " stroke="#000000" stroke-width="3.543" stroke-opacity="1" stroke-miterlimit="4"/><path stroke-linecap="round" transform="matrix(0.847478, 0, 0, 0.847546, 997.129636, 693.225033)" fill="none" stroke-linejoin="miter" d="M 103.997926 79.99836 L 39.583484 79.758698 L 7.585985 23.852826 L 39.998318 -31.813384 L 104.417369 -31.573722 L 136.414868 24.332151 Z M 103.997926 79.99836 " stroke="#000000" stroke-width="3.543" stroke-opacity="1" stroke-miterlimit="4"/><path stroke-linecap="round" transform="matrix(0.847478, 0, 0, 0.847546, 1078.48752, 740.687623)" fill="none" stroke-linejoin="miter" d="M 103.999685 80.00102 L 39.585244 79.761358 L 7.583135 23.855485 L 40.000077 -31.810724 L 104.414519 -31.571062 L 136.416628 24.33481 Z M 103.999685 80.00102 " stroke="#000000" stroke-width="3.543" stroke-opacity="1" stroke-miterlimit="4"/><path stroke-linecap="round" transform="matrix(0.847478, 0, 0, 0.847546, 1078.843536, 645.965844)" fill="none" stroke-linejoin="miter" d="M 103.99904 79.999985 L 39.584598 79.760323 L 7.582489 23.854451 L 39.999432 -31.811759 L 104.413873 -31.572097 L 136.415982 24.333775 Z M 103.99904 79.999985 " stroke="#000000" stroke-width="3.543" stroke-opacity="1" stroke-miterlimit="4"/><path stroke-linecap="round" transform="matrix(0.847478, 0, 0, 0.847546, 1160.209868, 693.428433)" fill="none" stroke-linejoin="miter" d="M 104.000049 79.998036 L 39.585607 79.758374 L 7.583499 23.852501 L 40.000441 -31.813708 L 104.414883 -31.574046 L 136.416992 24.331826 Z M 104.000049 79.998036 " stroke="#000000" stroke-width="3.543" stroke-opacity="1" stroke-miterlimit="4"/><path stroke-linecap="round" transform="matrix(0.847478, 0, 0, 0.847546, 671.69798, 693.140313)" fill="none" stroke-linejoin="miter" d="M 104.000248 80.001533 L 39.585807 79.76187 L 7.583698 23.855998 L 40.00064 -31.810212 L 104.415082 -31.570549 L 136.417191 24.335323 Z M 104.000248 80.001533 " stroke="#000000" stroke-width="3.543" stroke-opacity="1" stroke-miterlimit="4"/><path stroke-linecap="round" transform="matrix(0.847478, 0, 0, 0.847546, 753.055864, 740.602903)" fill="none" stroke-linejoin="miter" d="M 104.002008 79.999583 L 39.582957 79.759921 L 7.585457 23.854049 L 39.99779 -31.812161 L 104.416841 -31.572498 L 136.414341 24.333374 Z M 104.002008 79.999583 " stroke="#000000" stroke-width="3.543" stroke-opacity="1" stroke-miterlimit="4"/><path stroke-linecap="round" transform="matrix(0.847478, 0, 0, 0.847546, 753.41188, 645.881124)" fill="none" stroke-linejoin="miter" d="M 104.001362 79.998549 L 39.582311 79.758886 L 7.584812 23.853014 L 40.001754 -31.813196 L 104.416196 -31.573533 L 136.418304 24.332339 Z M 104.001362 79.998549 " stroke="#000000" stroke-width="3.543" stroke-opacity="1" stroke-miterlimit="4"/><path stroke-linecap="round" transform="matrix(0.847478, 0, 0, 0.847546, 834.769764, 693.343689)" fill="none" stroke-linejoin="miter" d="M 103.998512 80.001237 L 39.58407 79.761574 L 7.581962 23.855702 L 39.998904 -31.810508 L 104.417955 -31.570845 L 136.415454 24.335027 Z M 103.998512 80.001237 " stroke="#000000" stroke-width="3.543" stroke-opacity="1" stroke-miterlimit="4"/></svg>