<svg xmlns="http://www.w3.org/2000/svg" xmlns:xlink="http://www.w3.org/1999/xlink" width="500" zoomAndPan="magnify" viewBox="0 0 375 374.999991" height="500" preserveAspectRatio="xMidYMid meet" version="1.0"><defs><clipPath id="026e39fefa"><path d="M 74 42.65625 L 204 42.65625 L 204 172 L 74 172 Z M 74 42.65625 " clip-rule="nonzero"/></clipPath></defs><path fill="#0197b2" d="M 189.175781 181.0625 C 187.335938 182.308594 185.453125 183.488281 183.523438 184.59375 C 181.597656 185.699219 179.628906 186.734375 177.625 187.695312 C 175.621094 188.65625 173.582031 189.539062 171.511719 190.347656 C 169.441406 191.15625 167.34375 191.886719 165.21875 192.539062 C 163.09375 193.191406 160.945312 193.761719 158.78125 194.253906 C 156.613281 194.75 154.429688 195.160156 152.230469 195.488281 C 150.03125 195.820312 147.824219 196.066406 145.605469 196.230469 C 143.390625 196.398438 141.171875 196.480469 138.949219 196.480469 C 136.726562 196.480469 134.503906 196.398438 132.289062 196.230469 C 130.070312 196.066406 127.863281 195.820312 125.664062 195.488281 C 123.464844 195.160156 121.285156 194.75 119.117188 194.253906 C 116.949219 193.761719 114.800781 193.191406 112.675781 192.539062 C 110.550781 191.886719 108.453125 191.15625 106.382812 190.347656 C 104.3125 189.539062 102.273438 188.65625 100.269531 187.695312 C 98.265625 186.734375 96.296875 185.699219 94.371094 184.59375 C 92.441406 183.488281 90.558594 182.308594 88.71875 181.0625 C 85.691406 182.304688 82.71875 183.65625 79.792969 185.117188 C 76.867188 186.578125 74 188.144531 71.1875 189.816406 C 68.378906 191.488281 65.632812 193.265625 62.953125 195.140625 C 60.277344 197.015625 57.667969 198.984375 55.136719 201.054688 C 52.601562 203.121094 50.148438 205.277344 47.773438 207.527344 C 45.398438 209.773438 43.109375 212.109375 40.90625 214.523438 C 38.703125 216.941406 36.59375 219.4375 34.574219 222.011719 C 32.558594 224.582031 30.636719 227.226562 28.8125 229.941406 C 26.988281 232.65625 25.269531 235.433594 23.648438 238.277344 C 22.03125 241.117188 20.519531 244.015625 19.113281 246.96875 C 17.710938 249.921875 16.414062 252.921875 15.230469 255.96875 C 14.046875 259.019531 12.980469 262.105469 12.023438 265.234375 C 11.066406 268.363281 10.226562 271.519531 9.503906 274.710938 C 8.78125 277.898438 8.179688 281.109375 7.691406 284.34375 C 7.207031 287.578125 6.839844 290.824219 6.59375 294.085938 C 6.347656 297.347656 6.222656 300.613281 6.214844 303.882812 C 6.214844 304.777344 6.257812 305.667969 6.347656 306.558594 C 6.433594 307.445312 6.5625 308.328125 6.738281 309.207031 C 6.910156 310.082031 7.128906 310.949219 7.386719 311.800781 C 7.644531 312.65625 7.945312 313.496094 8.289062 314.324219 C 8.628906 315.148438 9.011719 315.957031 9.433594 316.742188 C 9.851562 317.53125 10.3125 318.296875 10.808594 319.039062 C 11.304688 319.78125 11.835938 320.5 12.402344 321.191406 C 12.96875 321.882812 13.570312 322.542969 14.199219 323.175781 C 14.832031 323.804688 15.492188 324.40625 16.183594 324.972656 C 16.875 325.539062 17.589844 326.070312 18.335938 326.566406 C 19.078125 327.0625 19.84375 327.519531 20.628906 327.941406 C 21.417969 328.363281 22.226562 328.746094 23.050781 329.085938 C 23.875 329.429688 24.71875 329.726562 25.570312 329.988281 C 26.425781 330.246094 27.292969 330.460938 28.167969 330.636719 C 29.046875 330.808594 29.929688 330.941406 30.816406 331.027344 C 31.707031 331.113281 32.597656 331.160156 33.492188 331.15625 L 244.574219 331.15625 C 245.46875 331.160156 246.359375 331.113281 247.246094 331.027344 C 248.136719 330.941406 249.019531 330.808594 249.894531 330.636719 C 250.773438 330.460938 251.636719 330.246094 252.492188 329.988281 C 253.347656 329.726562 254.1875 329.429688 255.015625 329.085938 C 255.839844 328.746094 256.644531 328.363281 257.433594 327.941406 C 258.222656 327.519531 258.988281 327.0625 259.730469 326.566406 C 260.472656 326.070312 261.191406 325.539062 261.882812 324.972656 C 262.570312 324.40625 263.234375 323.804688 263.863281 323.175781 C 264.496094 322.542969 265.09375 321.882812 265.664062 321.191406 C 266.230469 320.5 266.761719 319.78125 267.257812 319.039062 C 267.753906 318.296875 268.210938 317.53125 268.632812 316.742188 C 269.054688 315.957031 269.433594 315.148438 269.777344 314.324219 C 270.117188 313.496094 270.417969 312.65625 270.675781 311.800781 C 270.9375 310.949219 271.152344 310.082031 271.328125 309.207031 C 271.5 308.328125 271.632812 307.445312 271.71875 306.558594 C 271.804688 305.667969 271.847656 304.777344 271.847656 303.882812 C 271.84375 300.609375 271.722656 297.339844 271.476562 294.078125 C 271.234375 290.8125 270.867188 287.5625 270.382812 284.324219 C 269.898438 281.085938 269.292969 277.871094 268.570312 274.679688 C 267.847656 271.484375 267.007812 268.324219 266.050781 265.195312 C 265.09375 262.0625 264.023438 258.972656 262.839844 255.921875 C 261.652344 252.871094 260.355469 249.867188 258.949219 246.910156 C 257.539062 243.957031 256.023438 241.058594 254.402344 238.214844 C 252.78125 235.371094 251.054688 232.589844 249.226562 229.875 C 247.398438 227.160156 245.472656 224.515625 243.449219 221.941406 C 241.425781 219.371094 239.3125 216.875 237.101562 214.457031 C 234.894531 212.042969 232.601562 209.710938 230.21875 207.460938 C 227.839844 205.214844 225.378906 203.058594 222.839844 200.996094 C 220.300781 198.929688 217.6875 196.960938 215 195.089844 C 212.3125 193.21875 209.5625 191.449219 206.746094 189.78125 C 203.929688 188.113281 201.054688 186.550781 198.125 185.097656 C 195.191406 183.640625 192.207031 182.296875 189.175781 181.0625 Z M 189.175781 181.0625 " fill-opacity="1" fill-rule="nonzero"/><g clip-path="url(#026e39fefa)"><path fill="#0197b2" d="M 74.488281 106.691406 C 74.488281 107.746094 74.515625 108.800781 74.570312 109.851562 C 74.621094 110.90625 74.703125 111.957031 74.804688 113.007812 C 74.910156 114.054688 75.042969 115.101562 75.199219 116.144531 C 75.351562 117.1875 75.535156 118.226562 75.742188 119.257812 C 75.949219 120.292969 76.179688 121.320312 76.4375 122.34375 C 76.695312 123.367188 76.976562 124.382812 77.285156 125.390625 C 77.59375 126.398438 77.925781 127.398438 78.28125 128.390625 C 78.636719 129.382812 79.015625 130.367188 79.421875 131.339844 C 79.828125 132.3125 80.253906 133.277344 80.707031 134.230469 C 81.15625 135.183594 81.632812 136.125 82.132812 137.054688 C 82.628906 137.980469 83.148438 138.898438 83.691406 139.800781 C 84.234375 140.707031 84.800781 141.597656 85.386719 142.472656 C 85.972656 143.347656 86.582031 144.210938 87.210938 145.054688 C 87.839844 145.902344 88.488281 146.734375 89.15625 147.546875 C 89.828125 148.359375 90.515625 149.160156 91.226562 149.9375 C 91.933594 150.71875 92.660156 151.484375 93.40625 152.226562 C 94.152344 152.972656 94.917969 153.699219 95.699219 154.40625 C 96.480469 155.113281 97.28125 155.800781 98.097656 156.46875 C 98.910156 157.136719 99.742188 157.785156 100.589844 158.414062 C 101.4375 159.039062 102.300781 159.644531 103.175781 160.230469 C 104.054688 160.816406 104.945312 161.378906 105.851562 161.921875 C 106.753906 162.460938 107.671875 162.980469 108.601562 163.476562 C 109.53125 163.972656 110.472656 164.449219 111.425781 164.898438 C 112.382812 165.347656 113.34375 165.773438 114.320312 166.175781 C 115.292969 166.578125 116.277344 166.957031 117.269531 167.3125 C 118.261719 167.667969 119.265625 167.996094 120.273438 168.304688 C 121.28125 168.609375 122.296875 168.890625 123.320312 169.144531 C 124.34375 169.398438 125.371094 169.628906 126.40625 169.835938 C 127.441406 170.039062 128.480469 170.21875 129.523438 170.375 C 130.566406 170.527344 131.613281 170.65625 132.660156 170.761719 C 133.710938 170.863281 134.761719 170.941406 135.816406 170.992188 C 136.867188 171.042969 137.921875 171.066406 138.976562 171.066406 C 140.03125 171.066406 141.082031 171.039062 142.136719 170.988281 C 143.191406 170.9375 144.242188 170.859375 145.289062 170.753906 C 146.339844 170.652344 147.386719 170.519531 148.429688 170.367188 C 149.472656 170.210938 150.511719 170.03125 151.542969 169.824219 C 152.578125 169.617188 153.605469 169.386719 154.628906 169.132812 C 155.652344 168.875 156.667969 168.59375 157.675781 168.285156 C 158.683594 167.980469 159.6875 167.648438 160.679688 167.292969 C 161.671875 166.9375 162.65625 166.558594 163.628906 166.15625 C 164.601562 165.75 165.566406 165.324219 166.519531 164.875 C 167.472656 164.421875 168.414062 163.949219 169.34375 163.449219 C 170.273438 162.953125 171.191406 162.433594 172.09375 161.890625 C 173 161.351562 173.890625 160.785156 174.765625 160.199219 C 175.640625 159.613281 176.503906 159.007812 177.351562 158.378906 C 178.199219 157.75 179.027344 157.101562 179.84375 156.433594 C 180.65625 155.765625 181.457031 155.074219 182.238281 154.367188 C 183.019531 153.660156 183.78125 152.933594 184.527344 152.1875 C 185.273438 151.441406 186 150.679688 186.707031 149.898438 C 187.417969 149.117188 188.105469 148.316406 188.773438 147.503906 C 189.441406 146.6875 190.089844 145.855469 190.71875 145.011719 C 191.347656 144.164062 191.953125 143.300781 192.539062 142.425781 C 193.125 141.550781 193.691406 140.660156 194.230469 139.753906 C 194.773438 138.851562 195.292969 137.933594 195.789062 137.003906 C 196.289062 136.074219 196.761719 135.132812 197.214844 134.179688 C 197.664062 133.226562 198.089844 132.261719 198.496094 131.289062 C 198.898438 130.3125 199.277344 129.332031 199.632812 128.339844 C 199.988281 127.347656 200.320312 126.34375 200.625 125.335938 C 200.933594 124.328125 201.214844 123.3125 201.472656 122.289062 C 201.726562 121.265625 201.957031 120.238281 202.164062 119.203125 C 202.371094 118.171875 202.550781 117.132812 202.707031 116.089844 C 202.863281 115.046875 202.992188 114 203.09375 112.949219 C 203.199219 111.902344 203.277344 110.851562 203.328125 109.796875 C 203.378906 108.742188 203.40625 107.691406 203.40625 106.636719 C 203.40625 105.582031 203.382812 104.527344 203.332031 103.476562 C 203.28125 102.421875 203.203125 101.371094 203.101562 100.320312 C 202.996094 99.273438 202.867188 98.226562 202.714844 97.183594 C 202.558594 96.140625 202.378906 95.101562 202.175781 94.066406 C 201.96875 93.03125 201.738281 92.003906 201.484375 90.980469 C 201.230469 89.957031 200.949219 88.941406 200.644531 87.933594 C 200.335938 86.925781 200.007812 85.921875 199.652344 84.929688 C 199.296875 83.9375 198.917969 82.953125 198.515625 81.980469 C 198.113281 81.003906 197.6875 80.039062 197.238281 79.085938 C 196.789062 78.132812 196.3125 77.191406 195.816406 76.261719 C 195.320312 75.332031 194.800781 74.414062 194.261719 73.507812 C 193.71875 72.605469 193.15625 71.714844 192.570312 70.835938 C 191.984375 69.960938 191.378906 69.097656 190.753906 68.25 C 190.125 67.402344 189.476562 66.570312 188.808594 65.753906 C 188.140625 64.941406 187.453125 64.140625 186.746094 63.359375 C 186.039062 62.578125 185.3125 61.8125 184.566406 61.066406 C 183.824219 60.320312 183.058594 59.59375 182.277344 58.886719 C 181.5 58.175781 180.703125 57.488281 179.886719 56.816406 C 179.074219 56.148438 178.242188 55.5 177.394531 54.871094 C 176.550781 54.242188 175.6875 53.632812 174.8125 53.046875 C 173.9375 52.460938 173.046875 51.894531 172.140625 51.351562 C 171.238281 50.808594 170.320312 50.289062 169.394531 49.789062 C 168.464844 49.292969 167.523438 48.816406 166.570312 48.367188 C 165.617188 47.914062 164.652344 47.484375 163.679688 47.082031 C 162.707031 46.675781 161.722656 46.296875 160.730469 45.941406 C 159.738281 45.585938 158.738281 45.253906 157.730469 44.945312 C 156.722656 44.636719 155.707031 44.355469 154.683594 44.097656 C 153.660156 43.839844 152.632812 43.609375 151.597656 43.402344 C 150.566406 43.195312 149.527344 43.011719 148.484375 42.855469 C 147.441406 42.703125 146.394531 42.570312 145.347656 42.464844 C 144.296875 42.363281 143.246094 42.28125 142.195312 42.230469 C 141.140625 42.175781 140.085938 42.148438 139.03125 42.148438 C 137.976562 42.148438 136.921875 42.171875 135.863281 42.222656 C 134.808594 42.273438 133.757812 42.351562 132.703125 42.453125 C 131.652344 42.558594 130.605469 42.6875 129.558594 42.839844 C 128.515625 42.996094 127.472656 43.175781 126.4375 43.378906 C 125.402344 43.585938 124.371094 43.816406 123.34375 44.074219 C 122.320312 44.328125 121.300781 44.609375 120.289062 44.914062 C 119.277344 45.222656 118.277344 45.554688 117.28125 45.910156 C 116.285156 46.265625 115.300781 46.644531 114.324219 47.046875 C 113.347656 47.453125 112.382812 47.878906 111.425781 48.332031 C 110.472656 48.78125 109.527344 49.257812 108.597656 49.753906 C 107.664062 50.253906 106.746094 50.773438 105.839844 51.316406 C 104.933594 51.859375 104.039062 52.421875 103.160156 53.011719 C 102.28125 53.597656 101.417969 54.203125 100.570312 54.835938 C 99.722656 55.464844 98.890625 56.113281 98.070312 56.785156 C 97.253906 57.453125 96.457031 58.144531 95.671875 58.851562 C 94.890625 59.5625 94.125 60.289062 93.378906 61.039062 C 92.628906 61.785156 91.902344 62.550781 91.191406 63.332031 C 90.484375 64.117188 89.792969 64.914062 89.125 65.730469 C 88.453125 66.550781 87.804688 67.382812 87.175781 68.230469 C 86.542969 69.078125 85.9375 69.941406 85.351562 70.820312 C 84.761719 71.699219 84.199219 72.59375 83.65625 73.5 C 83.113281 74.40625 82.59375 75.324219 82.09375 76.257812 C 81.597656 77.1875 81.121094 78.132812 80.671875 79.085938 C 80.21875 80.042969 79.792969 81.007812 79.386719 81.984375 C 78.984375 82.960938 78.605469 83.945312 78.25 84.941406 C 77.894531 85.9375 77.5625 86.9375 77.253906 87.949219 C 76.949219 88.960938 76.667969 89.980469 76.414062 91.003906 C 76.15625 92.03125 75.925781 93.0625 75.71875 94.097656 C 75.515625 95.132812 75.335938 96.175781 75.179688 97.21875 C 75.027344 98.265625 74.898438 99.3125 74.792969 100.363281 C 74.691406 101.414062 74.613281 102.46875 74.5625 103.523438 C 74.511719 104.578125 74.488281 105.636719 74.488281 106.691406 Z M 74.488281 106.691406 " fill-opacity="1" fill-rule="nonzero"/></g><path fill="#0197b2" d="M 357.753906 165.695312 L 314.929688 165.695312 L 314.929688 122.835938 C 314.929688 122.003906 314.847656 121.175781 314.683594 120.359375 C 314.523438 119.539062 314.28125 118.746094 313.960938 117.976562 C 313.640625 117.203125 313.25 116.472656 312.789062 115.777344 C 312.324219 115.085938 311.796875 114.441406 311.207031 113.851562 C 310.617188 113.261719 309.976562 112.734375 309.28125 112.273438 C 308.589844 111.808594 307.855469 111.417969 307.085938 111.097656 C 306.316406 110.777344 305.519531 110.539062 304.703125 110.375 C 303.882812 110.210938 303.058594 110.132812 302.222656 110.132812 C 301.390625 110.132812 300.5625 110.210938 299.746094 110.375 C 298.925781 110.539062 298.132812 110.777344 297.359375 111.097656 C 296.589844 111.417969 295.859375 111.808594 295.164062 112.273438 C 294.46875 112.734375 293.828125 113.261719 293.238281 113.851562 C 292.648438 114.441406 292.121094 115.085938 291.660156 115.777344 C 291.195312 116.472656 290.804688 117.203125 290.484375 117.976562 C 290.164062 118.746094 289.925781 119.539062 289.761719 120.359375 C 289.597656 121.175781 289.515625 122.003906 289.515625 122.835938 L 289.515625 165.695312 L 246.65625 165.695312 C 245.824219 165.695312 244.996094 165.777344 244.179688 165.941406 C 243.359375 166.105469 242.566406 166.34375 241.796875 166.664062 C 241.023438 166.984375 240.292969 167.375 239.597656 167.839844 C 238.90625 168.300781 238.261719 168.828125 237.671875 169.417969 C 237.082031 170.007812 236.554688 170.648438 236.09375 171.34375 C 235.628906 172.039062 235.238281 172.769531 234.917969 173.539062 C 234.597656 174.3125 234.359375 175.105469 234.195312 175.925781 C 234.03125 176.742188 233.953125 177.570312 233.953125 178.402344 C 233.953125 179.238281 234.03125 180.0625 234.195312 180.882812 C 234.359375 181.699219 234.597656 182.496094 234.917969 183.265625 C 235.238281 184.035156 235.628906 184.769531 236.09375 185.460938 C 236.554688 186.15625 237.082031 186.796875 237.671875 187.386719 C 238.261719 187.976562 238.90625 188.503906 239.597656 188.96875 C 240.292969 189.429688 241.023438 189.820312 241.796875 190.140625 C 242.566406 190.460938 243.359375 190.703125 244.179688 190.863281 C 244.996094 191.027344 245.824219 191.109375 246.65625 191.109375 L 289.515625 191.109375 L 289.515625 233.953125 C 289.515625 234.785156 289.597656 235.613281 289.761719 236.429688 C 289.925781 237.25 290.164062 238.042969 290.484375 238.8125 C 290.804688 239.585938 291.195312 240.316406 291.660156 241.011719 C 292.121094 241.703125 292.648438 242.347656 293.238281 242.9375 C 293.828125 243.527344 294.46875 244.050781 295.164062 244.515625 C 295.859375 244.980469 296.589844 245.371094 297.359375 245.691406 C 298.132812 246.007812 298.925781 246.25 299.746094 246.414062 C 300.5625 246.574219 301.390625 246.65625 302.222656 246.65625 C 303.058594 246.65625 303.882812 246.574219 304.703125 246.414062 C 305.519531 246.25 306.316406 246.007812 307.085938 245.691406 C 307.855469 245.371094 308.589844 244.980469 309.28125 244.515625 C 309.976562 244.050781 310.617188 243.527344 311.207031 242.9375 C 311.796875 242.347656 312.324219 241.703125 312.789062 241.011719 C 313.25 240.316406 313.640625 239.585938 313.960938 238.8125 C 314.28125 238.042969 314.523438 237.25 314.683594 236.429688 C 314.847656 235.613281 314.929688 234.785156 314.929688 233.953125 L 314.929688 191.109375 L 357.753906 191.109375 C 358.589844 191.109375 359.414062 191.027344 360.234375 190.863281 C 361.050781 190.703125 361.847656 190.460938 362.617188 190.140625 C 363.386719 189.820312 364.121094 189.429688 364.8125 188.96875 C 365.507812 188.503906 366.148438 187.976562 366.738281 187.386719 C 367.328125 186.796875 367.855469 186.15625 368.320312 185.460938 C 368.78125 184.769531 369.175781 184.035156 369.492188 183.265625 C 369.8125 182.496094 370.054688 181.699219 370.214844 180.882812 C 370.378906 180.0625 370.460938 179.238281 370.460938 178.402344 C 370.460938 177.570312 370.378906 176.742188 370.214844 175.925781 C 370.054688 175.105469 369.8125 174.3125 369.492188 173.539062 C 369.175781 172.769531 368.78125 172.039062 368.320312 171.34375 C 367.855469 170.648438 367.328125 170.007812 366.738281 169.417969 C 366.148438 168.828125 365.507812 168.300781 364.8125 167.839844 C 364.121094 167.375 363.386719 166.984375 362.617188 166.664062 C 361.847656 166.34375 361.050781 166.105469 360.234375 165.941406 C 359.414062 165.777344 358.589844 165.695312 357.753906 165.695312 Z M 357.753906 165.695312 " fill-opacity="1" fill-rule="nonzero"/></svg>