<svg xmlns="http://www.w3.org/2000/svg" xmlns:xlink="http://www.w3.org/1999/xlink" width="500" zoomAndPan="magnify" viewBox="0 0 375 374.999991" height="500" preserveAspectRatio="xMidYMid meet" version="1.0"><defs><clipPath id="504d73b547"><path d="M 54.871094 0 L 320.371094 0 L 320.371094 375 L 54.871094 375 Z M 54.871094 0 " clip-rule="nonzero"/></clipPath></defs><path fill="#ffffff" d="M 153.421875 372.003906 L 283.863281 372.003906 L 283.863281 347.855469 L 283.882812 346.039062 L 283.941406 344.226562 L 284.035156 342.410156 L 284.171875 340.601562 L 284.347656 338.792969 L 284.558594 336.988281 L 284.808594 335.1875 L 285.097656 333.394531 L 285.425781 331.609375 L 285.789062 329.828125 L 286.191406 328.058594 L 286.632812 326.296875 L 287.109375 324.542969 L 287.625 322.800781 L 288.175781 321.070312 L 288.765625 319.351562 L 289.390625 317.644531 L 290.050781 315.953125 L 290.746094 314.273438 L 291.480469 312.613281 L 292.246094 310.964844 L 293.050781 309.335938 L 293.886719 307.722656 L 294.757812 306.128906 L 295.664062 304.554688 L 296.601562 303 L 297.574219 301.464844 L 298.578125 299.949219 L 299.613281 298.457031 L 300.734375 296.835938 L 301.824219 295.195312 L 302.882812 293.535156 L 303.902344 291.847656 L 304.890625 290.144531 L 305.839844 288.417969 L 306.757812 286.675781 L 307.636719 284.914062 L 308.480469 283.132812 L 309.285156 281.335938 L 310.054688 279.523438 L 310.785156 277.691406 L 311.480469 275.851562 L 312.136719 273.992188 L 312.753906 272.121094 L 313.332031 270.242188 L 313.875 268.347656 L 314.375 266.441406 L 314.835938 264.527344 L 315.257812 262.601562 L 315.640625 260.671875 L 315.984375 258.730469 L 316.285156 256.785156 L 316.550781 254.832031 L 316.773438 252.878906 L 316.953125 250.914062 L 317.09375 248.953125 L 317.195312 246.984375 L 317.257812 245.015625 L 317.277344 243.046875 L 317.277344 130.679688 L 317.257812 129.71875 L 317.199219 128.761719 L 317.101562 127.804688 L 316.96875 126.851562 L 316.796875 125.910156 L 316.585938 124.972656 L 316.335938 124.042969 L 316.046875 123.125 L 315.726562 122.21875 L 315.367188 121.328125 L 314.972656 120.449219 L 314.542969 119.589844 L 314.078125 118.75 L 313.582031 117.925781 L 313.050781 117.125 L 312.488281 116.34375 L 311.894531 115.589844 L 311.269531 114.855469 L 310.617188 114.152344 L 309.9375 113.472656 L 309.230469 112.820312 L 308.5 112.195312 L 307.742188 111.605469 L 306.960938 111.042969 L 306.15625 110.511719 L 305.335938 110.015625 L 304.492188 109.550781 L 303.632812 109.121094 L 302.753906 108.726562 L 301.863281 108.367188 L 300.957031 108.046875 L 300.039062 107.761719 L 299.109375 107.511719 L 298.171875 107.300781 L 297.222656 107.125 L 296.269531 106.992188 L 295.3125 106.894531 L 294.351562 106.835938 L 293.390625 106.816406 L 292.429688 106.835938 L 291.46875 106.894531 L 290.511719 106.992188 L 289.5625 107.125 L 288.613281 107.300781 L 287.675781 107.511719 L 286.746094 107.761719 L 285.828125 108.046875 L 284.921875 108.367188 L 284.03125 108.726562 L 283.152344 109.121094 L 282.292969 109.550781 L 281.449219 110.015625 L 280.625 110.511719 L 279.824219 111.042969 L 279.042969 111.605469 L 278.285156 112.195312 L 277.550781 112.820312 L 276.847656 113.472656 L 276.164062 114.152344 L 275.511719 114.855469 L 274.890625 115.589844 L 274.296875 116.34375 L 273.734375 117.125 L 273.203125 117.925781 L 272.707031 118.75 L 272.242188 119.589844 L 271.8125 120.449219 L 271.417969 121.328125 L 271.058594 122.21875 L 270.734375 123.125 L 270.449219 124.042969 L 270.199219 124.972656 L 269.988281 125.910156 L 269.816406 126.851562 L 269.679688 127.804688 L 269.582031 128.761719 L 269.523438 129.71875 L 269.503906 130.679688 L 269.503906 110.273438 L 269.488281 109.3125 L 269.429688 108.347656 L 269.332031 107.386719 L 269.195312 106.433594 L 269.019531 105.484375 L 268.808594 104.542969 L 268.558594 103.613281 L 268.273438 102.691406 L 267.949219 101.78125 L 267.589844 100.886719 L 267.191406 100.007812 L 266.761719 99.144531 L 266.292969 98.300781 L 265.796875 97.472656 L 265.261719 96.667969 L 264.699219 95.886719 L 264.101562 95.128906 L 263.476562 94.394531 L 262.824219 93.683594 L 262.140625 93 L 261.429688 92.347656 L 260.695312 91.722656 L 259.933594 91.128906 L 259.152344 90.5625 L 258.347656 90.03125 L 257.519531 89.53125 L 256.671875 89.066406 L 255.808594 88.636719 L 254.929688 88.242188 L 254.035156 87.882812 L 253.125 87.558594 L 252.203125 87.269531 L 251.269531 87.019531 L 250.328125 86.808594 L 249.378906 86.632812 L 248.421875 86.5 L 247.460938 86.402344 L 246.496094 86.34375 L 245.53125 86.324219 L 244.566406 86.34375 L 243.605469 86.402344 L 242.644531 86.5 L 241.6875 86.632812 L 240.738281 86.808594 L 239.796875 87.019531 L 238.863281 87.269531 L 237.941406 87.558594 L 237.03125 87.882812 L 236.136719 88.242188 L 235.253906 88.636719 L 234.390625 89.066406 L 233.546875 89.53125 L 232.71875 90.03125 L 231.914062 90.5625 L 231.132812 91.128906 L 230.371094 91.722656 L 229.636719 92.347656 L 228.925781 93 L 228.242188 93.683594 L 227.589844 94.394531 L 226.964844 95.128906 L 226.367188 95.886719 L 225.804688 96.667969 L 225.269531 97.472656 L 224.773438 98.300781 L 224.304688 99.144531 L 223.875 100.007812 L 223.476562 100.886719 L 223.117188 101.78125 L 222.792969 102.691406 L 222.507812 103.613281 L 222.257812 104.542969 L 222.042969 105.484375 L 221.871094 106.433594 L 221.734375 107.386719 L 221.636719 108.347656 L 221.578125 109.3125 L 221.558594 110.273438 L 221.558594 101.140625 L 221.542969 100.175781 L 221.484375 99.214844 L 221.386719 98.253906 L 221.25 97.300781 L 221.078125 96.351562 L 220.863281 95.410156 L 220.613281 94.476562 L 220.328125 93.558594 L 220.003906 92.648438 L 219.640625 91.753906 L 219.246094 90.875 L 218.816406 90.011719 L 218.347656 89.167969 L 217.847656 88.339844 L 217.316406 87.535156 L 216.75 86.753906 L 216.15625 85.992188 L 215.53125 85.257812 L 214.875 84.550781 L 214.195312 83.867188 L 213.484375 83.214844 L 212.75 82.589844 L 211.988281 81.992188 L 211.207031 81.429688 L 210.398438 80.898438 L 209.574219 80.398438 L 208.726562 79.933594 L 207.863281 79.503906 L 206.984375 79.109375 L 206.085938 78.746094 L 205.179688 78.421875 L 204.257812 78.136719 L 203.324219 77.886719 L 202.382812 77.675781 L 201.433594 77.5 L 200.476562 77.363281 L 199.515625 77.269531 L 198.550781 77.210938 L 197.585938 77.191406 L 196.621094 77.210938 L 195.660156 77.269531 L 194.699219 77.363281 L 193.742188 77.5 L 192.792969 77.675781 L 191.851562 77.886719 L 190.917969 78.136719 L 189.996094 78.421875 L 189.085938 78.746094 L 188.191406 79.109375 L 187.308594 79.503906 L 186.445312 79.933594 L 185.601562 80.398438 L 184.773438 80.898438 L 183.96875 81.429688 L 183.1875 81.992188 L 182.425781 82.589844 L 181.691406 83.214844 L 180.980469 83.867188 L 180.296875 84.550781 L 179.644531 85.257812 L 179.019531 85.992188 L 178.421875 86.753906 L 177.859375 87.535156 L 177.324219 88.339844 L 176.828125 89.167969 L 176.359375 90.011719 L 175.929688 90.875 L 175.53125 91.753906 L 175.171875 92.648438 L 174.847656 93.558594 L 174.5625 94.476562 L 174.3125 95.410156 L 174.097656 96.351562 L 173.925781 97.300781 L 173.789062 98.253906 L 173.691406 99.214844 L 173.632812 100.175781 L 173.613281 101.140625 L 173.613281 26.929688 L 173.59375 25.96875 L 173.539062 25.007812 L 173.441406 24.054688 L 173.304688 23.101562 L 173.132812 22.15625 L 172.921875 21.21875 L 172.671875 20.289062 L 172.386719 19.371094 L 172.0625 18.46875 L 171.703125 17.574219 L 171.308594 16.699219 L 170.878906 15.839844 L 170.414062 14.996094 L 169.917969 14.175781 L 169.386719 13.375 L 168.824219 12.59375 L 168.230469 11.835938 L 167.609375 11.105469 L 166.957031 10.398438 L 166.273438 9.71875 L 165.566406 9.066406 L 164.835938 8.445312 L 164.078125 7.851562 L 163.296875 7.289062 L 162.496094 6.761719 L 161.671875 6.261719 L 160.828125 5.800781 L 159.96875 5.371094 L 159.089844 4.976562 L 158.199219 4.617188 L 157.292969 4.292969 L 156.375 4.007812 L 155.445312 3.757812 L 154.507812 3.546875 L 153.558594 3.375 L 152.609375 3.238281 L 151.652344 3.144531 L 150.691406 3.085938 L 149.730469 3.066406 L 148.765625 3.085938 L 147.804688 3.144531 L 146.851562 3.238281 L 145.898438 3.375 L 144.949219 3.546875 L 144.011719 3.757812 L 143.082031 4.007812 L 142.164062 4.292969 L 141.257812 4.617188 L 140.367188 4.976562 L 139.488281 5.371094 L 138.628906 5.800781 L 137.785156 6.261719 L 136.960938 6.761719 L 136.160156 7.289062 L 135.378906 7.851562 L 134.621094 8.445312 L 133.890625 9.066406 L 133.183594 9.71875 L 132.503906 10.398438 L 131.851562 11.105469 L 131.226562 11.835938 L 130.632812 12.59375 L 130.070312 13.375 L 129.539062 14.175781 L 129.042969 14.996094 L 128.578125 15.839844 L 128.148438 16.699219 L 127.753906 17.574219 L 127.394531 18.46875 L 127.070312 19.371094 L 126.785156 20.289062 L 126.535156 21.21875 L 126.324219 22.15625 L 126.152344 23.101562 L 126.015625 24.054688 L 125.917969 25.007812 L 125.863281 25.96875 L 125.84375 26.929688 L 125.84375 169.273438 L 125.28125 168.058594 L 124.683594 166.859375 L 124.050781 165.679688 L 123.386719 164.519531 L 122.683594 163.378906 L 121.949219 162.261719 L 121.183594 161.164062 L 120.382812 160.089844 L 119.550781 159.042969 L 118.6875 158.019531 L 117.796875 157.019531 L 116.875 156.046875 L 115.925781 155.105469 L 114.949219 154.191406 L 113.945312 153.304688 L 112.914062 152.449219 L 111.859375 151.625 L 110.78125 150.832031 L 109.679688 150.070312 L 108.554688 149.34375 L 107.410156 148.648438 L 106.246094 147.992188 L 105.0625 147.367188 L 103.859375 146.777344 L 102.640625 146.222656 L 101.40625 145.707031 L 100.15625 145.226562 L 98.890625 144.78125 L 97.617188 144.375 L 96.328125 144.007812 L 95.03125 143.679688 L 93.722656 143.390625 L 92.40625 143.136719 L 91.085938 142.925781 L 89.757812 142.75 L 88.425781 142.617188 L 87.089844 142.523438 L 85.75 142.46875 L 84.410156 142.453125 L 83.074219 142.476562 L 81.734375 142.542969 L 80.398438 142.644531 L 79.066406 142.789062 L 78.117188 142.925781 L 77.175781 143.097656 L 76.238281 143.308594 L 75.3125 143.558594 L 74.398438 143.84375 L 73.496094 144.164062 L 72.605469 144.523438 L 71.730469 144.914062 L 70.871094 145.34375 L 70.03125 145.804688 L 69.207031 146.296875 L 68.40625 146.824219 L 67.628906 147.382812 L 66.871094 147.972656 L 66.140625 148.589844 L 65.433594 149.238281 L 64.753906 149.914062 L 64.101562 150.617188 L 63.476562 151.34375 L 62.882812 152.097656 L 62.316406 152.871094 L 61.785156 153.667969 L 61.285156 154.488281 L 60.820312 155.324219 L 60.386719 156.179688 L 59.988281 157.050781 L 59.625 157.9375 L 59.296875 158.839844 L 59.003906 159.75 L 58.75 160.675781 L 58.535156 161.609375 L 58.355469 162.550781 L 58.214844 163.5 L 58.109375 164.449219 L 58.042969 165.40625 L 58.015625 166.363281 L 58.027344 167.320312 L 58.078125 168.277344 L 58.164062 169.234375 L 58.292969 170.183594 L 58.457031 171.128906 L 58.65625 172.0625 L 58.898438 172.992188 L 59.171875 173.910156 L 59.484375 174.816406 L 59.835938 175.710938 L 60.21875 176.585938 L 60.636719 177.449219 L 61.089844 178.292969 L 61.578125 179.121094 L 62.09375 179.925781 L 62.648438 180.710938 L 63.226562 181.472656 L 63.839844 182.210938 L 64.480469 182.921875 L 65.148438 183.609375 L 65.847656 184.269531 L 66.570312 184.898438 L 67.316406 185.5 L 68.085938 186.070312 L 68.878906 186.613281 L 69.691406 187.121094 L 70.523438 187.59375 L 71.375 188.035156 L 72.242188 188.441406 L 73.128906 188.816406 L 74.027344 189.152344 L 75.042969 189.53125 L 76.042969 189.945312 L 77.027344 190.402344 L 77.996094 190.890625 L 78.945312 191.417969 L 79.871094 191.976562 L 80.777344 192.574219 L 81.660156 193.199219 L 82.519531 193.863281 L 83.355469 194.554688 L 84.164062 195.277344 L 84.941406 196.03125 L 85.695312 196.8125 L 86.417969 197.621094 L 87.105469 198.457031 L 87.765625 199.316406 L 88.394531 200.199219 L 88.988281 201.109375 L 89.546875 202.035156 L 90.070312 202.984375 L 90.558594 203.953125 L 91.007812 204.9375 L 91.421875 205.941406 L 91.800781 206.957031 L 92.136719 207.984375 L 92.4375 209.027344 L 92.699219 210.078125 L 92.917969 211.140625 L 93.101562 212.207031 L 93.242188 213.28125 L 93.34375 214.359375 L 93.40625 215.441406 L 93.425781 216.527344 L 93.425781 226.003906 L 93.445312 228.117188 L 93.503906 230.234375 L 93.601562 232.347656 L 93.742188 234.460938 L 93.917969 236.570312 L 94.136719 238.675781 L 94.390625 240.773438 L 94.6875 242.871094 L 95.023438 244.960938 L 95.394531 247.042969 L 95.808594 249.117188 L 96.257812 251.1875 L 96.75 253.246094 L 97.277344 255.296875 L 97.84375 257.335938 L 98.445312 259.363281 L 99.089844 261.378906 L 99.769531 263.386719 L 100.484375 265.375 L 101.238281 267.355469 L 102.027344 269.316406 L 102.855469 271.265625 L 103.71875 273.199219 L 104.621094 275.113281 L 105.554688 277.015625 L 106.523438 278.894531 L 107.53125 280.757812 L 108.570312 282.601562 L 109.644531 284.425781 L 110.75 286.230469 L 111.894531 288.011719 L 113.066406 289.773438 L 114.273438 291.511719 L 115.515625 293.230469 L 116.785156 294.921875 L 118.089844 296.589844 L 119.421875 298.234375 L 120.789062 299.851562 L 122.179688 301.445312 L 123.605469 303.015625 L 125.058594 304.554688 L 126.539062 306.066406 L 128.046875 307.550781 L 129.585938 309.007812 L 131.148438 310.4375 L 132.738281 311.835938 L 134.355469 313.203125 L 135.996094 314.542969 L 137.660156 315.847656 L 138.660156 316.644531 L 139.632812 317.46875 L 140.578125 318.320312 L 141.496094 319.207031 L 142.386719 320.117188 L 143.246094 321.058594 L 144.078125 322.023438 L 144.875 323.015625 L 145.644531 324.035156 L 146.378906 325.074219 L 147.082031 326.140625 L 147.75 327.222656 L 148.382812 328.328125 L 148.984375 329.453125 L 149.546875 330.597656 L 150.070312 331.757812 L 150.5625 332.933594 L 151.015625 334.125 L 151.429688 335.332031 L 151.804688 336.546875 L 152.144531 337.777344 L 152.441406 339.015625 L 152.703125 340.261719 L 152.921875 341.515625 L 153.101562 342.777344 L 153.242188 344.046875 L 153.34375 345.316406 L 153.402344 346.589844 L 153.421875 347.863281 L 153.421875 372.007812 Z M 153.421875 372.003906 " fill-opacity="1" fill-rule="nonzero"/><g clip-path="url(#504d73b547)"><path stroke-linecap="round" transform="matrix(0.674116, 0, 0, 0.673491, -12.997161, -95.972514)" fill="none" stroke-linejoin="round" d="M 463.727933 585.637423 L 465.396785 583.236223 L 467.013485 580.800222 L 468.578033 578.329422 L 470.096225 575.829622 L 471.55647 573.300822 L 472.970358 570.737222 L 474.3263 568.150422 L 475.635885 565.534622 L 476.887524 562.889821 L 478.081216 560.221821 L 479.222757 557.530621 L 480.306352 554.810421 L 481.337795 552.072821 L 482.311292 549.317821 L 483.226842 546.53962 L 484.084446 543.74402 L 484.889899 540.93102 L 485.631611 538.10642 L 486.315377 535.26442 L 486.941196 532.40502 L 487.509069 529.539819 L 488.018996 526.657219 L 488.465182 523.768819 L 488.853422 520.868819 L 489.183715 517.963019 L 489.456063 515.051419 L 489.664669 512.134018 L 489.815329 509.216618 L 489.908043 506.293418 L 489.937016 503.370218 M 205.954099 182.479399 L 205.954099 437.128414 M 276.822346 182.479399 L 276.822346 403.337612 M 489.931222 336.527408 L 489.931222 503.370218 M 419.068769 306.228206 L 419.068769 403.337612 M 347.939763 292.667806 L 347.939763 403.337612 M 157.864517 478.053216 L 157.864517 463.982416 M 246.864142 658.995827 L 246.864142 694.845629 M 440.364011 658.995827 L 440.364011 694.845629 M 276.822346 182.473599 L 276.793373 181.052599 L 276.706454 179.625799 L 276.567383 178.204799 L 276.364571 176.789599 L 276.109608 175.391799 L 275.796698 173.999799 L 275.425842 172.619398 L 275.002835 171.256398 L 274.521881 169.910798 L 273.988775 168.588398 L 273.403518 167.283398 L 272.76611 166.007398 L 272.07655 164.760398 L 271.340632 163.536598 L 270.552564 162.347598 L 269.718138 161.187598 L 268.837355 160.068198 L 267.910215 158.977798 L 266.942513 157.933798 L 265.934248 156.924598 L 264.885422 155.955997 L 263.801827 155.027997 L 262.67767 154.152197 L 261.518745 153.316997 L 260.330847 152.528197 L 259.108182 151.791597 L 257.856543 151.101397 L 256.581726 150.463397 L 255.277936 149.877597 L 253.956761 149.343997 L 252.612409 148.868397 L 251.250672 148.439197 L 249.871552 148.073797 L 248.480842 147.760597 L 247.072748 147.499597 L 245.664655 147.302397 L 244.239177 147.157397 L 242.819495 147.070397 L 241.388223 147.041397 L 239.962745 147.070397 L 238.537268 147.157397 L 237.117585 147.302397 L 235.709491 147.499597 L 234.301398 147.760597 L 232.910688 148.073797 L 231.531568 148.439197 L 230.169831 148.868397 L 228.825478 149.343997 L 227.504304 149.877597 L 226.200514 150.463397 L 224.925697 151.101397 L 223.674058 151.791597 L 222.451392 152.528197 L 221.263494 153.316997 L 220.10457 154.152197 L 218.980413 155.027997 L 217.896818 155.955997 L 216.842197 156.924598 L 215.833932 157.933798 L 214.86623 158.977798 L 213.944885 160.068198 L 213.064102 161.187598 L 212.229676 162.347598 L 211.441607 163.536598 L 210.70569 164.760398 L 210.01613 166.007398 L 209.378721 167.283398 L 208.793464 168.588398 L 208.260359 169.910798 L 207.779405 171.256398 L 207.356398 172.619398 L 206.985542 173.999799 L 206.672632 175.391799 L 206.417669 176.789599 L 206.214857 178.204799 L 206.069991 179.625799 L 205.988866 181.052599 L 205.959893 182.473599 M 223.48863 611.453224 L 221.02012 609.516024 L 218.586378 607.526624 L 216.187404 605.496624 L 213.828992 603.420224 L 211.505348 601.297424 L 209.228061 599.134024 L 206.991336 596.930023 L 204.795174 594.685423 L 202.639574 592.400223 L 200.524536 590.068623 L 198.455856 587.702223 L 196.433532 585.301023 L 194.457565 582.859223 L 192.522161 580.382622 L 190.638908 577.871222 L 188.796218 575.319222 L 187.005679 572.738222 L 185.267292 570.122422 L 183.569467 567.477622 L 181.929589 564.798021 L 180.336067 562.089421 L 178.794697 559.351821 L 177.299685 556.585221 L 175.862618 553.795421 L 174.471908 550.970821 L 173.139145 548.128821 L 171.858533 545.25782 L 170.630073 542.36362 L 169.459559 539.45202 L 168.341196 536.51142 L 167.28078 533.55922 L 166.272516 530.578019 L 165.316403 527.585219 L 164.418236 524.575019 L 163.58381 521.547419 L 162.795741 518.502419 L 162.071414 515.445819 L 161.405032 512.377618 L 160.790802 509.292018 L 160.234518 506.200618 L 159.741975 503.097618 L 159.301583 499.983018 L 158.919138 496.868418 L 158.600434 493.742217 L 158.339676 490.610217 L 158.131069 487.472417 L 157.986204 484.334617 L 157.899284 481.191017 L 157.870311 478.053216 M 136.569275 354.490009 L 135.161181 354.693009 L 133.764677 354.948209 L 132.373967 355.261409 L 131.000641 355.632609 L 129.644699 356.056009 L 128.300347 356.531609 L 126.979172 357.065209 L 125.686971 357.645209 L 124.412154 358.283209 L 123.16631 358.967609 L 121.943644 359.698409 L 120.755747 360.48141 L 119.602617 361.31081 L 118.47846 362.18661 L 117.394865 363.10881 L 116.346038 364.07161 L 115.337773 365.06921 L 114.364277 366.11321 L 113.442932 367.19781 L 112.562149 368.31141 L 111.721928 369.45981 L 110.933859 370.64301 L 110.192148 371.86101 L 109.496793 373.10221 L 108.859384 374.37241 L 108.268333 375.66581 L 107.729433 376.98241 L 107.242684 378.322211 L 106.808087 379.679411 L 106.431437 381.048211 L 106.112733 382.434411 L 105.84618 383.832211 L 105.631779 385.241611 L 105.481119 386.651011 L 105.38261 388.072011 L 105.342048 389.493011 L 105.359431 390.919811 L 105.434762 392.340811 L 105.562243 393.756011 L 105.753466 395.165412 L 105.99684 396.569012 L 106.292366 397.961012 L 106.651633 399.335612 L 107.057256 400.698612 L 107.520826 402.044212 L 108.036548 403.372412 L 108.610215 404.671612 L 109.23024 405.953412 L 109.902416 407.206212 L 110.62095 408.435812 L 111.391635 409.630612 L 112.208677 410.796412 L 113.072076 411.927413 L 113.981832 413.023613 L 114.93215 414.079213 L 115.92303 415.100013 L 116.960268 416.080213 L 118.026479 417.014013 L 119.133252 417.907213 L 120.280587 418.754013 L 121.451101 419.560213 L 122.662178 420.314213 L 123.896433 421.016013 L 125.159661 421.671413 L 126.446067 422.280413 L 127.755652 422.831413 L 129.088415 423.330213 M 347.951352 292.662006 L 347.922379 291.229405 L 347.83546 289.796805 L 347.690594 288.375805 L 347.493577 286.954805 L 347.232819 285.545405 L 346.919909 284.147605 L 346.549053 282.767205 L 346.120251 281.398405 L 345.639297 280.052805 L 345.106192 278.718805 L 344.520935 277.413805 L 343.877732 276.132005 L 343.188171 274.879204 L 342.44646 273.655404 L 341.658391 272.460604 L 340.81817 271.294804 L 339.937388 270.169604 L 339.010248 269.079204 L 338.036751 268.023604 L 337.022692 267.014404 L 335.973865 266.040004 L 334.878681 265.112004 L 333.754524 264.230404 L 332.589805 263.395204 L 331.396112 262.600604 L 330.167652 261.864004 L 328.916013 261.173804 L 327.635401 260.530004 L 326.331611 259.944204 L 324.998848 259.410604 L 323.6487 258.929204 L 322.281169 258.500004 L 320.902049 258.134603 L 319.505544 257.815603 L 318.097451 257.560403 L 316.677768 257.357403 L 315.252291 257.212403 L 313.821019 257.125403 L 312.389747 257.096403 L 310.958475 257.125403 L 309.527202 257.212403 L 308.101725 257.357403 L 306.687837 257.560403 L 305.279743 257.815603 L 303.877444 258.134603 L 302.498324 258.500004 L 301.130793 258.929204 L 299.780645 259.410604 L 298.453677 259.944204 L 297.144092 260.530004 L 295.86348 261.173804 L 294.611841 261.864004 L 293.383381 262.600604 L 292.189688 263.395204 L 291.024969 264.230404 L 289.900812 265.112004 L 288.811423 266.040004 L 287.756801 267.014404 L 286.742742 268.023604 L 285.769245 269.079204 L 284.842106 270.169604 L 283.961323 271.294804 L 283.121102 272.460604 L 282.333034 273.655404 L 281.591322 274.879204 L 280.901761 276.132005 L 280.264353 277.413805 L 279.673301 278.718805 L 279.140196 280.052805 L 278.659242 281.398405 L 278.23044 282.767205 L 277.859584 284.147605 L 277.546674 285.545405 L 277.291711 286.954805 L 277.088899 288.375805 L 276.944033 289.796805 L 276.857114 291.229405 L 276.828141 292.662006 M 347.951352 306.222406 L 347.980325 304.789806 L 348.067245 303.357206 L 348.21211 301.936206 L 348.414922 300.515206 L 348.669885 299.105806 L 348.982795 297.713806 L 349.353651 296.327606 L 349.782453 294.958806 L 350.263407 293.613206 L 350.796512 292.279205 L 351.387564 290.974205 L 352.024973 289.692405 L 352.714533 288.439605 L 353.456245 287.215805 L 354.244313 286.021005 L 355.084534 284.855205 L 355.965317 283.730005 L 356.892456 282.639605 L 357.865953 281.584005 L 358.880012 280.574805 L 359.928839 279.600405 L 361.024023 278.672405 L 362.14818 277.790805 L 363.3129 276.955605 L 364.506592 276.166805 L 365.729258 275.424405 L 366.986691 274.734204 L 368.267303 274.090404 L 369.576888 273.504604 L 370.903857 272.971004 L 372.254004 272.489604 L 373.621535 272.066204 L 375.000656 271.695004 L 376.39716 271.376004 L 377.811048 271.120804 L 379.224936 270.917804 L 380.650414 270.772804 L 382.081686 270.685804 L 383.512958 270.662604 L 384.94423 270.685804 L 386.375502 270.772804 L 387.800979 270.917804 L 389.220662 271.120804 L 390.628756 271.376004 L 392.02526 271.695004 L 393.40438 272.066204 L 394.777706 272.489604 L 396.122059 272.971004 L 397.454822 273.504604 L 398.758613 274.090404 L 400.039224 274.734204 L 401.296658 275.424405 L 402.519323 276.166805 L 403.713016 276.955605 L 404.877735 277.790805 L 406.007687 278.672405 L 407.097076 279.600405 L 408.145903 280.574805 L 409.159962 281.584005 L 410.133459 282.639605 L 411.060599 283.730005 L 411.941382 284.855205 L 412.781602 286.021005 L 413.569671 287.215805 L 414.311383 288.439605 L 415.000943 289.692405 L 415.644146 290.974205 L 416.229403 292.279205 L 416.762508 293.613206 L 417.243462 294.958806 L 417.672264 296.327606 L 418.04312 297.713806 L 418.35603 299.105806 L 418.616788 300.515206 L 418.813805 301.936206 L 418.958671 303.357206 L 419.04559 304.789806 L 419.074563 306.222406 M 157.876106 463.970816 L 157.847133 462.364215 L 157.754419 460.757615 L 157.603759 459.156815 L 157.395152 457.561815 L 157.1286 455.972615 L 156.798306 454.395015 L 156.410066 452.834815 L 155.969675 451.286215 L 155.465543 449.760815 L 154.903464 448.252815 L 154.289234 446.762215 L 153.622852 445.300614 L 152.898524 443.862214 L 152.122045 442.458614 L 151.293413 441.078214 L 150.412631 439.732614 L 149.479696 438.416014 L 148.500405 437.140014 L 147.480551 435.898814 L 146.408546 434.698214 L 145.290183 433.538214 L 144.137053 432.418814 L 142.937566 431.345814 L 141.697517 430.319214 L 140.422699 429.339014 L 139.113114 428.405213 L 137.768762 427.523613 L 136.395436 426.688413 L 134.987342 425.905413 L 133.550276 425.180413 L 132.090031 424.507613 L 130.606607 423.887013 L 129.100005 423.324413 M 136.580864 354.484209 L 138.551036 354.275409 L 140.532797 354.118809 L 142.520353 354.020209 L 144.502114 353.985409 L 146.48967 354.008609 L 148.477226 354.089809 L 150.458988 354.229009 L 152.434954 354.432009 L 154.405126 354.687209 L 156.363709 355.000409 L 158.316497 355.377409 L 160.257696 355.806609 L 162.181511 356.299609 L 164.093737 356.844809 L 165.982784 357.442209 L 167.860243 358.103409 L 169.714522 358.816809 L 171.545623 359.582409 L 173.353546 360.406009 L 175.13829 361.28181 L 176.894061 362.20981 L 178.620859 363.19001 L 180.318683 364.22241 L 181.987535 365.30121 L 183.621619 366.42641 L 185.220935 367.60381 L 186.785484 368.83341 L 188.315264 370.10361 L 189.804482 371.41441 L 191.253138 372.77161 L 192.661232 374.17521 L 194.028763 375.61361 L 195.355732 377.09841 L 196.630549 378.618011 L 197.864804 380.178211 L 199.052702 381.767411 L 200.188448 383.397211 L 201.277837 385.056011 L 202.32087 386.749611 L 203.31175 388.472211 L 204.244685 390.223811 L 205.131262 392.004411 L 205.965688 393.808211 M 246.875731 658.978427 L 246.846758 657.087627 L 246.759839 655.196827 L 246.609178 653.311827 L 246.400572 651.432627 L 246.134019 649.559226 L 245.80952 647.697426 L 245.421281 645.841426 L 244.980889 644.002826 L 244.476757 642.181626 L 243.920473 640.372026 L 243.306243 638.585626 L 242.634067 636.816626 L 241.909739 635.065026 L 241.127464 633.342426 L 240.293039 631.648825 L 239.400667 629.978425 L 238.461938 628.337025 L 237.471057 626.724625 L 236.428025 625.147025 L 235.338635 623.598425 L 234.197095 622.090425 L 233.014991 620.617225 L 231.780736 619.178825 L 230.505919 617.786825 L 229.184745 616.429625 L 227.823008 615.118824 L 226.42071 613.848624 L 224.977848 612.624824 L 223.494425 611.447424 M 440.3756 658.978427 L 440.404573 656.281427 L 440.491492 653.584427 L 440.630563 650.893227 L 440.833375 648.202026 L 441.094133 645.516626 L 441.407043 642.837026 L 441.777899 640.169026 L 442.206701 637.506826 L 442.693449 634.850426 L 443.232349 632.211425 L 443.829196 629.578225 L 444.483988 626.962425 L 445.190932 624.358225 L 445.955823 621.771425 L 446.772864 619.202025 L 447.647853 616.650025 L 448.574992 614.121224 L 449.554284 611.609824 L 450.585727 609.115824 L 451.675116 606.645024 L 452.810862 604.203224 L 454.004555 601.784624 L 455.244604 599.389224 L 456.536805 597.022823 L 457.881158 594.685423 L 459.271868 592.371223 L 460.714729 590.091823 L 462.203947 587.841423 L 463.739523 585.625823 M 205.965688 437.116814 L 205.936715 439.535414 L 205.849795 441.954014 L 205.70493 444.366814 L 205.502118 446.779615 L 205.24136 449.180815 L 204.922656 451.576215 L 204.5518 453.965815 L 204.117203 456.349615 L 203.62466 458.716015 L 203.079965 461.070815 L 202.477324 463.414016 L 201.816737 465.739816 L 201.103999 468.054016 L 200.333314 470.345016 L 199.504683 472.618616 L 198.629694 474.869016 L 197.731528 477.154216 L 196.897102 479.462616 L 196.109033 481.788417 L 195.37891 484.131617 L 194.700939 486.486417 L 194.080915 488.864417 L 193.513042 491.248217 L 193.003115 493.649417 L 192.551134 496.062217 L 192.151305 498.480818 L 191.809422 500.911018 L 191.525486 503.347018 L 191.299495 505.794618 M 419.074563 336.521608 L 419.103536 335.094808 L 419.190456 333.673808 L 419.335321 332.252808 L 419.538133 330.837608 L 419.793097 329.434008 L 420.106006 328.042008 L 420.476862 326.667408 L 420.89987 325.304407 L 421.380823 323.958807 L 421.913929 322.636407 L 422.499186 321.331407 L 423.136594 320.055407 L 423.826155 318.808407 L 424.562072 317.584607 L 425.350141 316.395607 L 426.184567 315.235607 L 427.065349 314.116207 L 427.986694 313.025807 L 428.954397 311.976007 L 429.968456 310.966807 L 431.011488 309.998207 L 432.100877 309.076006 L 433.225034 308.194406 L 434.383959 307.359206 L 435.571857 306.576206 L 436.794523 305.839606 L 438.046161 305.149406 L 439.320978 304.511406 L 440.624769 303.925606 L 441.945943 303.392006 L 443.290296 302.916406 L 444.652032 302.487206 L 446.031153 302.121806 L 447.421862 301.808606 L 448.829956 301.547606 L 450.238049 301.350406 L 451.657732 301.205406 L 453.08321 301.118406 L 454.508687 301.089406 L 455.934165 301.118406 L 457.359642 301.205406 L 458.779325 301.350406 L 460.193213 301.547606 L 461.601307 301.808606 L 462.992016 302.121806 L 464.371137 302.487206 L 465.732873 302.916406 L 467.077226 303.392006 L 468.3984 303.925606 L 469.70219 304.511406 L 470.977008 305.149406 L 472.228646 305.839606 L 473.445517 306.576206 L 474.63921 307.359206 L 475.798135 308.194406 L 476.922292 309.076006 L 478.005886 309.998207 L 479.054713 310.966807 L 480.062978 311.976007 L 481.03068 313.025807 L 481.95782 314.116207 L 482.838602 315.235607 L 483.673028 316.395607 L 484.461097 317.584607 L 485.197014 318.808407 L 485.886574 320.055407 L 486.523983 321.331407 L 487.10924 322.636407 L 487.642345 323.958807 L 488.117504 325.304407 L 488.546307 326.667408 L 488.917163 328.042008 L 489.230072 329.434008 L 489.485036 330.837608 L 489.682053 332.252808 L 489.826918 333.673808 L 489.913838 335.094808 L 489.942811 336.521608 " stroke="#000000" stroke-width="9" stroke-opacity="1" stroke-miterlimit="4"/></g></svg>