<svg xmlns="http://www.w3.org/2000/svg" xmlns:xlink="http://www.w3.org/1999/xlink" width="500" zoomAndPan="magnify" viewBox="0 0 375 374.999991" height="500" preserveAspectRatio="xMidYMid meet" version="1.0"><path fill="#39b54a" d="M 187.5 0 C 83.957031 0 0 83.957031 0 187.5 C 0 291.042969 83.957031 375 187.5 375 C 291.042969 375 375 291.042969 375 187.5 C 375 83.957031 291.042969 0 187.5 0 Z M 293.023438 158.5625 L 183.320312 268.265625 C 178.035156 273.546875 170.882812 276.519531 163.402344 276.519531 C 156.03125 276.519531 148.878906 273.546875 143.597656 268.265625 L 88.796875 213.46875 C 77.792969 202.464844 77.792969 184.75 88.796875 173.746094 C 99.800781 162.851562 117.40625 162.851562 128.410156 173.746094 L 163.402344 208.847656 L 253.300781 118.949219 C 264.304688 107.945312 282.019531 107.945312 293.023438 118.949219 C 303.917969 129.839844 303.917969 147.558594 293.023438 158.5625 Z M 293.023438 158.5625 " fill-opacity="1" fill-rule="nonzero"/><path fill="#ffffff" d="M 293.023438 158.5625 L 183.320312 268.265625 C 178.035156 273.546875 170.882812 276.519531 163.402344 276.519531 C 156.03125 276.519531 148.878906 273.546875 143.597656 268.265625 L 88.796875 213.46875 C 77.792969 202.464844 77.792969 184.75 88.796875 173.746094 C 99.800781 162.851562 117.40625 162.851562 128.410156 173.746094 L 163.402344 208.847656 L 253.300781 118.949219 C 264.304688 107.945312 282.019531 107.945312 293.023438 118.949219 C 303.917969 129.839844 303.917969 147.558594 293.023438 158.5625 Z M 293.023438 158.5625 " fill-opacity="1" fill-rule="nonzero"/></svg>