<svg xmlns="http://www.w3.org/2000/svg" xmlns:xlink="http://www.w3.org/1999/xlink" width="500" zoomAndPan="magnify" viewBox="0 0 375 374.999991" height="500" preserveAspectRatio="xMidYMid meet" version="1.0"><defs><clipPath id="a877cb560c"><path d="M 1 9.097656 L 374 9.097656 L 374 366 L 1 366 Z M 1 9.097656 " clip-rule="nonzero"/></clipPath></defs><g clip-path="url(#a877cb560c)"><path fill="#ffffff" d="M 143.765625 9.433594 C 66.210938 9.433594 1.746094 65.773438 1.746094 136.628906 C 1.746094 170.648438 16.953125 201.535156 41.078125 224.332031 L 40.316406 228.0625 C 34.878906 243.996094 21.507812 253.007812 13.570312 255.886719 C 8.953125 257.527344 5.128906 260.027344 3.011719 264.390625 C 0.921875 268.722656 2.1875 274.730469 5.351562 277.859375 C 12.75 285.289062 22.359375 284.5625 29.378906 284.625 C 55.777344 284.941406 86.890625 271.09375 105.730469 261.671875 L 105.953125 261.574219 L 112.402344 257.84375 L 109.9375 257.085938 L 110.222656 257.148438 C 120.71875 259.585938 131.722656 260.34375 142.535156 260.34375 C 210.730469 260.34375 269.410156 219.589844 282.375 160.941406 L 282.375 160.910156 C 284.113281 153.101562 285.027344 144.972656 285.027344 136.628906 C 285.027344 65.839844 221.320312 9.433594 143.765625 9.433594 Z M 143.765625 25.621094 C 213.511719 25.621094 268.839844 75.578125 268.839844 136.628906 C 268.839844 143.804688 268.050781 150.761719 266.566406 157.429688 C 255.5 207.511719 204.3125 244.15625 142.535156 244.15625 C 132.542969 244.15625 122.710938 243.398438 113.921875 241.375 L 110.378906 240.328125 L 98.398438 247.222656 C 80.503906 256.167969 49.644531 268.691406 29.566406 268.4375 C 26.816406 268.4375 26.566406 267.898438 24.636719 267.679688 C 36.144531 262.050781 49.421875 251.839844 55.746094 233.058594 L 55.871094 232.648438 L 58.78125 218.988281 L 55.210938 215.828125 C 32.035156 195.5625 17.933594 167.453125 17.933594 136.628906 C 17.933594 75.640625 74.019531 25.621094 143.765625 25.621094 Z M 74.589844 82.277344 L 74.589844 98.464844 L 212.183594 98.464844 L 212.183594 82.277344 Z M 74.589844 122.75 L 74.589844 138.9375 L 212.183594 138.9375 L 212.183594 122.75 Z M 299.476562 156.703125 C 299.066406 159.296875 298.78125 161.890625 298.214844 164.449219 C 297.582031 167.234375 296.757812 169.953125 295.9375 172.703125 C 333.210938 187.085938 357.746094 216.078125 357.746094 248.296875 C 357.746094 271.410156 345.734375 293.003906 323.855469 309.160156 L 319.460938 312.414062 L 320.820312 317.726562 C 325.183594 334.453125 340.484375 343.082031 351.074219 348.835938 C 334.289062 351.113281 297.800781 347.320312 279.464844 325.632812 L 276.398438 321.964844 L 271.71875 322.914062 C 264.351562 324.367188 255.816406 325.09375 245.570312 325.09375 C 195.238281 325.09375 154.359375 305.585938 138.457031 276.402344 C 131.878906 276.277344 125.746094 275.835938 119.992188 275.140625 C 135.007812 314.914062 183.289062 341.28125 245.570312 341.28125 C 254.898438 341.28125 263.023438 340.710938 270.328125 339.605469 C 288.191406 357.691406 317.308594 365.53125 340.894531 365.53125 C 342.445312 365.53125 343.992188 365.5 345.480469 365.4375 C 359.167969 364.804688 368.085938 361.640625 372.039062 356.046875 C 373.777344 353.515625 374.378906 350.542969 373.683594 347.636719 C 372.324219 341.851562 367.011719 339.003906 359.644531 335.054688 C 352.402344 331.132812 342.886719 325.980469 338.429688 318.296875 C 361.097656 299.578125 373.933594 274.414062 373.933594 248.296875 C 373.933594 208.585938 344.246094 173.144531 299.476562 156.703125 Z M 74.589844 163.21875 L 74.589844 179.40625 L 171.714844 179.40625 L 171.714844 163.21875 Z M 277.0625 211.78125 C 273.015625 217.472656 268.558594 222.910156 263.65625 227.96875 L 301.21875 227.96875 L 301.21875 211.78125 Z M 233.148438 252.25 C 221.984375 258.953125 209.75 264.421875 196.757812 268.4375 L 301.21875 268.4375 L 301.21875 252.25 Z M 233.148438 252.25 " fill-opacity="1" fill-rule="nonzero"/></g></svg>