<svg xmlns="http://www.w3.org/2000/svg" xmlns:xlink="http://www.w3.org/1999/xlink" width="500" zoomAndPan="magnify" viewBox="0 0 375 374.999991" height="500" preserveAspectRatio="xMidYMid meet" version="1.0"><path fill="#0197b2" d="M 32.171875 269.566406 L 0 375.261719 L 105.695312 343.089844 Z M 32.171875 269.566406 " fill-opacity="1" fill-rule="nonzero"/><path fill="#0197b2" d="M 367.648438 81.140625 C 368.25 80.539062 368.824219 79.910156 369.363281 79.25 C 369.902344 78.59375 370.410156 77.910156 370.882812 77.203125 C 371.355469 76.496094 371.792969 75.765625 372.195312 75.015625 C 372.59375 74.261719 372.960938 73.496094 373.285156 72.707031 C 373.609375 71.921875 373.898438 71.121094 374.144531 70.304688 C 374.390625 69.492188 374.597656 68.664062 374.765625 67.832031 C 374.929688 66.996094 375.054688 66.15625 375.140625 65.308594 C 375.222656 64.460938 375.265625 63.609375 375.265625 62.757812 C 375.265625 61.90625 375.222656 61.058594 375.140625 60.210938 C 375.054688 59.363281 374.929688 58.523438 374.765625 57.6875 C 374.597656 56.851562 374.390625 56.027344 374.144531 55.210938 C 373.898438 54.398438 373.609375 53.597656 373.285156 52.808594 C 372.960938 52.023438 372.59375 51.253906 372.195312 50.503906 C 371.792969 49.753906 371.355469 49.023438 370.882812 48.316406 C 370.410156 47.609375 369.902344 46.925781 369.363281 46.265625 C 368.824219 45.609375 368.25 44.976562 367.648438 44.375 L 330.882812 7.617188 C 330.28125 7.015625 329.652344 6.445312 328.992188 5.902344 C 328.335938 5.363281 327.652344 4.855469 326.945312 4.382812 C 326.238281 3.910156 325.507812 3.472656 324.757812 3.070312 C 324.003906 2.671875 323.238281 2.308594 322.449219 1.980469 C 321.664062 1.65625 320.863281 1.367188 320.046875 1.121094 C 319.234375 0.875 318.40625 0.667969 317.574219 0.5 C 316.738281 0.335938 315.898438 0.210938 315.050781 0.128906 C 314.203125 0.0429688 313.351562 0.00390625 312.5 0.00390625 C 311.648438 0.00390625 310.800781 0.0429688 309.953125 0.128906 C 309.105469 0.210938 308.265625 0.335938 307.429688 0.5 C 306.59375 0.667969 305.769531 0.875 304.953125 1.121094 C 304.140625 1.367188 303.339844 1.65625 302.550781 1.980469 C 301.765625 2.308594 300.996094 2.671875 300.246094 3.070312 C 299.496094 3.472656 298.765625 3.910156 298.058594 4.382812 C 297.351562 4.855469 296.667969 5.363281 296.007812 5.902344 C 295.351562 6.445312 294.71875 7.015625 294.117188 7.617188 L 261.949219 39.78125 L 335.480469 113.3125 Z M 367.648438 81.140625 " fill-opacity="1" fill-rule="nonzero"/><path fill="#0197b2" d="M 41.359375 260.371094 L 252.753906 48.976562 L 284.925781 81.144531 L 73.527344 292.542969 Z M 41.359375 260.371094 " fill-opacity="1" fill-rule="nonzero"/><path fill="#0197b2" d="M 82.71875 301.734375 L 294.117188 90.335938 L 326.285156 122.503906 L 114.886719 333.902344 Z M 82.71875 301.734375 " fill-opacity="1" fill-rule="nonzero"/></svg>