<svg xmlns="http://www.w3.org/2000/svg" xmlns:xlink="http://www.w3.org/1999/xlink" width="500" zoomAndPan="magnify" viewBox="0 0 375 374.999991" height="500" preserveAspectRatio="xMidYMid meet" version="1.0"><path fill="#ffbe0d" d="M 186.824219 29.847656 C 188.355469 29.847656 192.132812 30.285156 194.175781 34.414062 L 230.25 107.582031 C 236.625 120.472656 248.933594 129.425781 263.214844 131.535156 L 343.800781 143.222656 C 344.730469 143.363281 345.308594 143.546875 345.609375 143.664062 C 345.703125 143.6875 345.773438 143.734375 345.867188 143.757812 C 348.371094 144.707031 350.203125 146.957031 350.78125 149.742188 C 351.199219 151.710938 351.105469 154.585938 348.417969 157.207031 L 290.109375 214.117188 C 279.722656 224.207031 275.015625 238.722656 277.472656 252.9375 L 291.246094 333.316406 C 291.683594 335.820312 291.105469 338.023438 289.550781 339.855469 C 287.929688 341.78125 285.566406 342.917969 283.199219 342.917969 C 281.925781 342.917969 280.648438 342.59375 279.375 341.921875 L 207.203125 303.957031 C 200.945312 300.6875 193.894531 298.949219 186.824219 298.949219 C 179.753906 298.949219 172.707031 300.6875 166.421875 303.980469 L 94.253906 341.941406 C 93 342.617188 91.726562 342.941406 90.449219 342.941406 C 86.742188 342.941406 82.589844 339.925781 82.3125 335.449219 C 82.3125 335.265625 82.289062 335.101562 82.265625 334.917969 C 82.242188 334.753906 82.242188 334.246094 82.382812 333.316406 L 96.199219 252.890625 C 98.585938 238.699219 93.882812 224.207031 83.585938 214.140625 L 25.1875 157.207031 C 22.011719 154.125 22.523438 150.644531 23.101562 148.835938 C 23.566406 147.375 25.164062 143.898438 29.730469 143.222656 L 110.410156 131.511719 C 124.644531 129.402344 136.957031 120.449219 143.332031 107.558594 L 179.453125 34.390625 C 181.445312 30.449219 184.925781 29.847656 186.824219 29.847656 M 186.824219 12.035156 C 177.550781 12.035156 168.300781 16.859375 163.527344 26.53125 L 127.40625 99.671875 C 123.625 107.324219 116.324219 112.636719 107.863281 113.886719 L 27.203125 125.597656 C 5.875 128.707031 -2.679688 154.914062 12.785156 169.960938 L 71.160156 226.894531 C 77.257812 232.855469 80.0625 241.460938 78.648438 249.921875 L 64.855469 330.277344 C 64.507812 332.414062 64.367188 334.476562 64.554688 336.46875 C 65.367188 350.316406 77.234375 360.726562 90.472656 360.726562 C 94.484375 360.726562 98.609375 359.777344 102.597656 357.667969 L 174.746094 319.703125 C 178.527344 317.734375 182.699219 316.734375 186.847656 316.734375 C 191.019531 316.734375 195.171875 317.734375 198.949219 319.703125 L 271.097656 357.667969 C 275.085938 359.753906 279.210938 360.703125 283.199219 360.703125 C 298.339844 360.703125 311.691406 347.070312 308.816406 330.253906 L 295.046875 249.898438 C 293.585938 241.4375 296.390625 232.832031 302.535156 226.871094 L 360.867188 169.941406 C 374.84375 156.304688 369.234375 133.601562 352.21875 127.082031 C 350.433594 126.363281 348.53125 125.878906 346.46875 125.574219 L 265.765625 113.863281 C 257.304688 112.613281 250 107.324219 246.222656 99.648438 L 210.148438 26.507812 C 205.347656 16.859375 196.074219 12.035156 186.824219 12.035156 Z M 186.824219 12.035156 " fill-opacity="1" fill-rule="nonzero"/><path fill="#ffbe0d" d="M 186.824219 11.988281 L 186.824219 316.734375 C 182.628906 316.734375 178.503906 317.757812 174.722656 319.726562 L 102.574219 357.691406 C 85.417969 366.734375 65.621094 354.535156 64.554688 336.492188 C 64.367188 334.5 64.507812 332.433594 64.855469 330.300781 L 78.648438 249.945312 C 80.0625 241.480469 77.257812 232.878906 71.160156 226.917969 L 12.785156 169.984375 C -2.679688 154.933594 5.875 128.730469 27.203125 125.621094 L 107.863281 113.910156 C 116.324219 112.660156 123.625 107.371094 127.40625 99.695312 L 163.527344 26.550781 C 168.300781 16.835938 177.550781 11.988281 186.824219 11.988281 Z M 186.824219 11.988281 " fill-opacity="1" fill-rule="nonzero"/><path fill="#ffce00" d="M 186.824219 11.988281 L 186.824219 287.375 C 149.058594 309.199219 108 325.871094 64.53125 336.46875 C 64.34375 334.476562 64.484375 332.414062 64.832031 330.277344 L 78.625 249.921875 C 80.039062 241.460938 77.234375 232.855469 71.136719 226.894531 L 12.761719 169.960938 C -2.703125 154.914062 5.851562 128.707031 27.183594 125.597656 L 107.839844 113.886719 C 116.300781 112.636719 123.601562 107.347656 127.382812 99.671875 L 163.503906 26.53125 C 168.300781 16.835938 177.550781 11.988281 186.824219 11.988281 Z M 186.824219 11.988281 " fill-opacity="1" fill-rule="nonzero"/></svg>