<svg xmlns="http://www.w3.org/2000/svg" xmlns:xlink="http://www.w3.org/1999/xlink" width="500" zoomAndPan="magnify" viewBox="0 0 375 374.999991" height="500" preserveAspectRatio="xMidYMid meet" version="1.0"><defs><clipPath id="0f48448128"><path d="M 46 29.753906 L 372.175781 29.753906 L 372.175781 375 L 46 375 Z M 46 29.753906 " clip-rule="nonzero"/></clipPath><clipPath id="29304ca892"><path d="M 228.898438 244.199219 L 241.648438 244.199219 L 241.648438 256.949219 L 228.898438 256.949219 Z M 228.898438 244.199219 " clip-rule="nonzero"/></clipPath></defs><path fill="#f7c340" d="M 244.863281 373.648438 C 229.839844 373.648438 216.289062 369.617188 203.4375 361.324219 C 189.039062 352.03125 176.078125 340.4375 163.546875 329.226562 C 161.339844 327.246094 159.128906 325.269531 156.910156 323.304688 C 150.609375 317.71875 144.175781 312.0625 137.957031 306.597656 C 115.957031 287.246094 93.203125 267.238281 71.832031 246.46875 C 67.136719 241.90625 63.921875 237.902344 61.40625 233.492188 C 53.78125 220.128906 54.042969 214.847656 62.738281 206.59375 C 65.027344 204.417969 69.152344 203.171875 74.046875 203.171875 C 79.640625 203.171875 85.261719 204.773438 89.460938 207.5625 C 96.445312 212.203125 109.871094 224.386719 122.851562 236.171875 C 133.035156 245.414062 142.652344 254.144531 149.46875 259.574219 C 150.078125 260.058594 150.789062 260.316406 151.519531 260.316406 C 151.523438 260.316406 151.523438 260.316406 151.523438 260.316406 C 152.773438 260.316406 153.949219 259.5625 154.515625 258.402344 C 155.070312 257.261719 154.925781 255.972656 154.125 254.945312 C 143.851562 241.796875 118.523438 215.722656 106.5625 203.773438 C 101.039062 198.257812 95.386719 192.667969 89.921875 187.265625 C 80 177.460938 69.738281 167.316406 59.839844 157.179688 C 52.277344 149.4375 44.535156 140.191406 48.398438 128.394531 C 51.28125 119.585938 57.714844 114.734375 66.515625 114.734375 C 73.058594 114.734375 80.222656 117.5625 86.171875 122.488281 C 97.367188 131.773438 107.550781 142.734375 117.394531 153.332031 C 121.054688 157.269531 124.835938 161.339844 128.621094 165.273438 C 130.925781 167.667969 133.910156 170.867188 137.363281 174.566406 C 148.460938 186.453125 163.65625 202.734375 172.722656 209.917969 C 173.386719 210.441406 174.160156 210.722656 174.964844 210.722656 C 176.269531 210.722656 177.527344 209.964844 178.171875 208.789062 C 178.808594 207.625 178.757812 206.246094 178.03125 205.097656 C 174.550781 199.609375 169.570312 194.222656 165.175781 189.46875 C 162.742188 186.835938 160.441406 184.347656 158.648438 182.121094 C 150.953125 172.554688 142.667969 163.238281 134.660156 154.234375 C 127.554688 146.238281 120.203125 137.972656 113.292969 129.566406 C 110.324219 125.953125 106.054688 121.355469 101.113281 116.03125 C 89.402344 103.410156 74.824219 87.703125 70.566406 77.328125 C 66.914062 68.421875 69.507812 59.175781 77.179688 53.765625 C 81.054688 51.03125 85.199219 49.644531 89.488281 49.644531 C 94.214844 49.644531 99.007812 51.308594 103.730469 54.59375 C 111.21875 59.804688 117.039062 66.90625 122.667969 73.773438 C 124.503906 76.015625 126.402344 78.335938 128.34375 80.558594 C 148.335938 103.5625 188.292969 148.785156 203.519531 165.746094 C 204.089844 166.378906 204.84375 166.726562 205.65625 166.726562 C 206.703125 166.726562 207.714844 166.128906 208.234375 165.203125 C 208.738281 164.304688 208.707031 163.222656 208.148438 162.3125 C 200.871094 150.4375 183.414062 126.207031 157.667969 92.238281 C 156.53125 90.738281 155.347656 89.1875 154.136719 87.601562 C 146.753906 77.9375 138.386719 66.984375 133.929688 58.539062 C 131.648438 54.027344 131.648438 49.15625 133.9375 44.078125 C 136.835938 37.644531 142.875 32.878906 149.703125 31.644531 C 150.820312 31.445312 151.949219 31.339844 153.0625 31.339844 C 157.101562 31.339844 161.070312 32.671875 164.867188 35.296875 C 170.664062 39.308594 180.464844 51.828125 190.835938 65.085938 C 197.820312 74.007812 205.042969 83.234375 211.726562 90.761719 C 215.542969 95.0625 224.292969 106.476562 233.558594 118.5625 C 245.589844 134.257812 259.226562 152.046875 265.277344 158.441406 C 270.191406 163.636719 275.582031 166.269531 281.304688 166.269531 C 283.636719 166.269531 286.054688 165.824219 288.484375 164.949219 C 296.851562 161.933594 301.398438 155.070312 301.285156 145.621094 C 301.058594 126.773438 306.320312 111.6875 317.367188 99.496094 C 323.398438 92.839844 338.285156 87.421875 350.546875 87.421875 C 355.164062 87.421875 359.023438 88.207031 361.714844 89.683594 C 370.554688 94.546875 373.203125 103.457031 368.613281 112.941406 C 367.261719 115.738281 365.839844 118.5625 364.464844 121.296875 C 357.570312 135 350.441406 149.175781 348.972656 165.683594 C 348.15625 174.898438 349.402344 183.785156 350.609375 192.382812 C 351.050781 195.511719 351.507812 198.75 351.851562 201.9375 C 352.609375 208.992188 353.746094 216.136719 354.847656 223.046875 C 357.476562 239.605469 360.203125 256.722656 357.875 273.589844 L 357.867188 273.648438 L 357.863281 273.707031 C 356.523438 301.800781 340.375 323.304688 327.070312 336.398438 C 311.394531 351.816406 290.730469 364.25 271.789062 369.648438 C 262.394531 372.304688 253.332031 373.648438 244.863281 373.648438 " fill-opacity="1" fill-rule="nonzero"/><g clip-path="url(#0f48448128)"><path fill="#c08625" d="M 153.0625 29.992188 C 151.878906 29.992188 150.679688 30.097656 149.460938 30.316406 C 142.105469 31.648438 135.78125 36.707031 132.707031 43.523438 C 130.6875 48.003906 129.875 53.507812 132.734375 59.167969 C 137.980469 69.105469 148.496094 82.371094 156.59375 93.054688 C 169.539062 110.132812 196.769531 146.332031 206.996094 163.019531 C 207.714844 164.191406 206.730469 165.378906 205.65625 165.378906 C 205.265625 165.378906 204.863281 165.21875 204.527344 164.84375 C 189.324219 147.914062 149.160156 102.457031 129.359375 79.675781 C 121.472656 70.601562 114.613281 60.519531 104.5 53.484375 C 99.558594 50.046875 94.472656 48.296875 89.488281 48.296875 C 84.980469 48.296875 80.554688 49.734375 76.402344 52.660156 C 68.78125 58.035156 65.128906 67.632812 69.320312 77.84375 C 75.457031 92.792969 102.132812 118.117188 112.25 130.425781 C 126.96875 148.328125 143.097656 164.945312 157.597656 182.964844 C 162.691406 189.292969 171.570312 197.4375 176.886719 205.820312 C 177.960938 207.511719 176.578125 209.371094 174.964844 209.371094 C 174.496094 209.371094 174.011719 209.21875 173.5625 208.855469 C 161.789062 199.53125 139.355469 174.480469 129.59375 164.339844 C 115.617188 149.816406 102.464844 134.246094 87.03125 121.453125 C 80.8125 116.292969 73.375 113.382812 66.515625 113.382812 C 58.035156 113.382812 50.4375 117.828125 47.117188 127.976562 C 43.035156 140.433594 50.957031 150.015625 58.871094 158.121094 C 74.242188 173.859375 90.066406 189.203125 105.609375 204.730469 C 117.644531 216.753906 142.832031 242.675781 153.058594 255.777344 C 154.175781 257.207031 152.96875 258.964844 151.523438 258.964844 C 151.121094 258.964844 150.703125 258.832031 150.3125 258.515625 C 134.597656 246.003906 102.644531 214.703125 90.207031 206.441406 C 85.550781 203.347656 79.53125 201.824219 74.046875 201.824219 C 69.03125 201.824219 64.460938 203.097656 61.808594 205.613281 C 52.453125 214.5 52.398438 220.421875 60.234375 234.164062 C 63.144531 239.265625 66.808594 243.46875 70.894531 247.441406 C 98.328125 274.105469 127.40625 298.953125 156.015625 324.3125 C 171.058594 337.644531 185.710938 351.496094 202.703125 362.460938 C 216.214844 371.179688 230.292969 375 244.863281 375 C 253.78125 375 262.890625 373.566406 272.160156 370.949219 C 307.429688 360.890625 356.820312 323.832031 359.214844 273.773438 C 362.539062 249.644531 355.777344 225.773438 353.1875 201.796875 C 351.910156 189.890625 349.214844 178.214844 350.320312 165.804688 C 352.050781 146.289062 361.707031 130.320312 369.828125 113.53125 C 374.691406 103.476562 371.878906 93.730469 362.367188 88.5 C 359.3125 86.824219 355.160156 86.074219 350.546875 86.074219 C 338.339844 86.074219 322.933594 91.339844 316.367188 98.585938 C 304.117188 112.101562 299.722656 127.9375 299.933594 145.636719 C 300.039062 154.226562 296.042969 160.789062 288.027344 163.679688 C 285.703125 164.515625 283.464844 164.917969 281.304688 164.917969 C 275.75 164.917969 270.742188 162.253906 266.257812 157.511719 C 255.617188 146.265625 221.566406 99.816406 212.734375 89.863281 C 196 71.015625 175.539062 41.039062 165.636719 34.1875 C 161.832031 31.558594 157.601562 29.992188 153.0625 29.992188 Z M 153.0625 32.691406 C 156.820312 32.691406 160.535156 33.941406 164.101562 36.410156 C 169.730469 40.300781 179.46875 52.746094 189.777344 65.917969 C 196.773438 74.855469 204.003906 84.097656 210.714844 91.65625 C 214.5 95.921875 223.238281 107.320312 232.488281 119.386719 C 244.542969 135.105469 258.199219 152.921875 264.296875 159.367188 C 269.472656 164.84375 275.199219 167.617188 281.304688 167.617188 C 283.796875 167.617188 286.367188 167.148438 288.941406 166.21875 C 297.761719 163.042969 302.75 155.527344 302.632812 145.601562 C 302.527344 136.558594 303.636719 128.640625 306.039062 121.390625 C 308.636719 113.554688 312.667969 106.691406 318.367188 100.402344 C 324.175781 93.992188 338.613281 88.773438 350.546875 88.773438 C 354.9375 88.773438 358.574219 89.496094 361.066406 90.867188 C 365.082031 93.078125 367.792969 96.226562 368.898438 99.972656 C 370.015625 103.742188 369.492188 108.023438 367.398438 112.351562 C 366.050781 115.140625 364.632812 117.960938 363.257812 120.6875 C 356.308594 134.507812 349.121094 148.796875 347.628906 165.5625 C 346.796875 174.933594 348.058594 183.898438 349.273438 192.570312 C 349.714844 195.6875 350.167969 198.914062 350.507812 202.085938 C 351.269531 209.171875 352.410156 216.335938 353.511719 223.257812 C 356.132812 239.714844 358.835938 256.734375 356.539062 273.40625 L 356.523438 273.523438 L 356.515625 273.644531 C 355.195312 301.300781 339.257812 322.511719 326.121094 335.433594 C 310.601562 350.703125 290.152344 363.011719 271.425781 368.351562 C 262.144531 370.972656 253.210938 372.300781 244.863281 372.300781 C 230.105469 372.300781 216.792969 368.339844 204.167969 360.191406 C 189.859375 350.957031 176.941406 339.398438 164.449219 328.21875 C 162.273438 326.273438 160.027344 324.261719 157.804688 322.292969 C 151.5 316.707031 145.070312 311.050781 138.851562 305.582031 C 116.859375 286.246094 94.121094 266.246094 72.773438 245.503906 C 68.171875 241.03125 65.027344 237.121094 62.578125 232.824219 C 58.695312 226.011719 57.105469 221.640625 57.269531 218.195312 C 57.429688 214.8125 59.28125 211.738281 63.667969 207.574219 C 65.679688 205.660156 69.5625 204.523438 74.046875 204.523438 C 79.382812 204.523438 84.726562 206.039062 88.710938 208.6875 C 95.613281 213.269531 109 225.421875 121.945312 237.171875 C 132.144531 246.429688 141.777344 255.171875 148.632812 260.628906 C 149.476562 261.308594 150.480469 261.667969 151.523438 261.667969 C 153.285156 261.667969 154.9375 260.617188 155.730469 258.996094 C 156.503906 257.40625 156.296875 255.535156 155.1875 254.117188 C 144.878906 240.914062 119.496094 214.789062 107.515625 202.820312 C 101.988281 197.296875 96.335938 191.707031 90.867188 186.304688 C 80.949219 176.5 70.695312 166.367188 60.800781 156.234375 C 53.1875 148.4375 46.054688 139.894531 49.679688 128.8125 C 52.367188 120.605469 58.347656 116.085938 66.515625 116.085938 C 72.75 116.085938 79.601562 118.796875 85.308594 123.53125 C 96.4375 132.753906 106.589844 143.683594 116.40625 154.25 C 120.066406 158.191406 123.855469 162.269531 127.648438 166.210938 C 129.945312 168.597656 132.925781 171.789062 136.378906 175.488281 C 147.503906 187.40625 162.738281 203.730469 171.882812 210.976562 C 172.789062 211.691406 173.855469 212.074219 174.964844 212.074219 C 176.777344 212.074219 178.460938 211.0625 179.355469 209.4375 C 180.234375 207.835938 180.164062 205.945312 179.167969 204.375 C 175.625 198.785156 170.601562 193.347656 166.167969 188.554688 C 163.75 185.9375 161.464844 183.464844 159.699219 181.273438 C 151.980469 171.679688 143.6875 162.355469 135.667969 153.332031 C 128.570312 145.347656 121.230469 137.09375 114.335938 128.710938 C 111.339844 125.066406 107.058594 120.449219 102.101562 115.113281 C 90.464844 102.570312 75.980469 86.964844 71.816406 76.8125 C 70.066406 72.550781 69.785156 68.203125 71.007812 64.234375 C 72.160156 60.5 74.566406 57.261719 77.957031 54.871094 C 81.601562 52.296875 85.480469 50.996094 89.488281 50.996094 C 93.9375 50.996094 98.46875 52.578125 102.957031 55.703125 C 110.296875 60.804688 115.800781 67.519531 121.621094 74.628906 C 123.46875 76.878906 125.371094 79.207031 127.324219 81.449219 C 147.332031 104.464844 187.292969 149.691406 202.515625 166.652344 C 203.347656 167.570312 204.457031 168.078125 205.65625 168.078125 C 207.207031 168.078125 208.648438 167.226562 209.410156 165.863281 C 210.15625 164.53125 210.113281 162.941406 209.300781 161.605469 C 202 149.699219 184.519531 125.429688 158.742188 91.421875 C 157.605469 89.921875 156.417969 88.371094 155.207031 86.78125 C 147.863281 77.167969 139.542969 66.273438 135.132812 57.929688 C 133.046875 53.785156 133.0625 49.3125 135.167969 44.632812 C 137.886719 38.597656 143.546875 34.128906 149.941406 32.972656 C 150.980469 32.785156 152.03125 32.691406 153.0625 32.691406 " fill-opacity="1" fill-rule="nonzero"/></g><path fill="#53524e" d="M 204.742188 10.382812 C 227.292969 23.082031 245.550781 42.632812 256.988281 65.84375 C 260.15625 72.265625 262.699219 78.914062 264.71875 85.8125 C 266.308594 91.246094 274.824219 88.933594 273.222656 83.464844 C 265.53125 57.179688 249.714844 33.300781 228.488281 15.992188 C 222.429688 11.050781 216.003906 6.601562 209.191406 2.765625 C 204.238281 -0.0234375 199.792969 7.59375 204.742188 10.382812 " fill-opacity="1" fill-rule="nonzero"/><path fill="#53524e" d="M 195.710938 36.386719 C 215.683594 48.121094 230.425781 67.730469 236.773438 89.972656 C 238.328125 95.421875 246.839844 93.105469 245.273438 87.625 C 239.875 68.699219 228.886719 51.273438 213.851562 38.527344 C 209.570312 34.898438 205 31.609375 200.160156 28.769531 C 195.253906 25.890625 190.8125 33.511719 195.710938 36.386719 " fill-opacity="1" fill-rule="nonzero"/><path fill="#53524e" d="M 2.699219 248.527344 C 14.53125 273.160156 34.136719 293.988281 57.804688 307.597656 C 64.621094 311.519531 71.800781 314.808594 79.191406 317.5 C 81.425781 318.316406 84.015625 316.582031 84.613281 314.417969 C 85.285156 311.964844 83.777344 309.816406 81.535156 308.992188 C 57.644531 300.285156 36.320312 283.925781 21.558594 263.160156 C 17.273438 257.132812 13.515625 250.738281 10.3125 244.074219 C 9.28125 241.925781 6.21875 241.359375 4.28125 242.492188 C 2.089844 243.777344 1.664062 246.371094 2.699219 248.527344 " fill-opacity="1" fill-rule="nonzero"/><path fill="#53524e" d="M 29.21875 241.1875 C 38 258.652344 52.351562 273.234375 69.378906 282.757812 C 74.414062 285.574219 79.714844 287.929688 85.148438 289.871094 C 87.386719 290.667969 89.96875 288.964844 90.566406 286.789062 C 91.238281 284.34375 89.742188 282.167969 87.488281 281.363281 C 65.71875 273.59375 47.226562 257.402344 36.832031 236.734375 C 35.765625 234.609375 32.761719 234.007812 30.800781 235.152344 C 28.636719 236.421875 28.144531 239.054688 29.21875 241.1875 " fill-opacity="1" fill-rule="nonzero"/><g clip-path="url(#29304ca892)"><path fill="#f7c340" d="M 235.34375 244.199219 C 238.90625 244.199219 241.789062 247.085938 241.789062 250.644531 C 241.789062 254.203125 238.90625 257.089844 235.34375 257.089844 C 231.785156 257.089844 228.898438 254.203125 228.898438 250.644531 C 228.898438 247.085938 231.785156 244.199219 235.34375 244.199219 Z M 235.34375 244.199219 " fill-opacity="1" fill-rule="evenodd"/></g></svg>