<svg xmlns="http://www.w3.org/2000/svg" xmlns:xlink="http://www.w3.org/1999/xlink" width="500" zoomAndPan="magnify" viewBox="0 0 375 374.999991" height="500" preserveAspectRatio="xMidYMid meet" version="1.0"><defs><filter x="0%" y="0%" width="100%" height="100%" id="238aedd294"><feColorMatrix values="0 0 0 0 1 0 0 0 0 1 0 0 0 0 1 0 0 0 1 0" color-interpolation-filters="sRGB"/></filter><mask id="e7ee7faef5"><g filter="url(#238aedd294)"><rect x="-37.5" width="450" fill="#000000" y="-37.499999" height="449.999989" fill-opacity="0.69"/></g></mask><clipPath id="1ce2084c9f"><path d="M 0 0 L 375 0 L 375 375 L 0 375 Z M 0 0 " clip-rule="nonzero"/></clipPath><clipPath id="e68f6db7ce"><rect x="0" width="375" y="0" height="375"/></clipPath></defs><g mask="url(#e7ee7faef5)"><g transform="matrix(1, 0, 0, 1, 0, 0)"><g clip-path="url(#e68f6db7ce)"><g clip-path="url(#1ce2084c9f)"><path fill="#737373" d="M 281.355469 175.09375 C 278.949219 205.964844 255.640625 244.039062 187.53125 291.8125 C 119.421875 244.039062 96.121094 205.964844 93.707031 175.09375 L 93.707031 164.359375 C 96.296875 132.105469 117.554688 115.277344 135.9375 113.480469 C 138.960938 113.1875 141.785156 113.042969 144.433594 113.042969 C 165.675781 113.042969 175.867188 122.222656 187.53125 136.125 C 199.195312 122.222656 209.382812 113.042969 230.625 113.042969 C 233.277344 113.042969 236.101562 113.1875 239.125 113.480469 C 257.503906 115.277344 278.761719 132.105469 281.355469 164.359375 Z M 187.535156 0.0117188 C 83.96875 0.0117188 0.0117188 83.96875 0.0117188 187.535156 C 0.0117188 291.097656 83.96875 375.050781 187.535156 375.050781 C 291.097656 375.050781 375.050781 291.097656 375.050781 187.535156 C 375.050781 83.96875 291.097656 0.0117188 187.535156 0.0117188 " fill-opacity="1" fill-rule="nonzero"/></g></g></g></g></svg>