<svg xmlns="http://www.w3.org/2000/svg" xmlns:xlink="http://www.w3.org/1999/xlink" width="500" zoomAndPan="magnify" viewBox="0 0 375 374.999991" height="500" preserveAspectRatio="xMidYMid meet" version="1.0"><defs><clipPath id="40c84411b0"><path d="M 0 0 L 374.25 0 L 374.25 375 L 0 375 Z M 0 0 " clip-rule="nonzero"/></clipPath><clipPath id="904f38bf44"><path d="M 152.898438 199.699219 L 175.398438 199.699219 L 175.398438 222.199219 L 152.898438 222.199219 Z M 152.898438 199.699219 " clip-rule="nonzero"/></clipPath></defs><g clip-path="url(#40c84411b0)"><path fill="#000000" d="M 78.871094 61.960938 L 165.433594 61.960938 C 177.808594 61.960938 188.128906 70.734375 190.519531 82.402344 L 191.039062 87.558594 L 190.519531 92.71875 C 188.128906 104.382812 177.808594 113.160156 165.433594 113.160156 L 71.914062 113.160156 C 60.476562 113.160156 51.207031 122.433594 51.207031 133.867188 L 51.207031 303.09375 C 51.207031 314.527344 60.476562 323.800781 71.914062 323.800781 L 241.15625 323.800781 C 252.59375 323.800781 261.867188 314.527344 261.867188 303.09375 L 261.867188 208.421875 C 261.867188 196.046875 270.644531 185.726562 282.308594 183.339844 L 287.46875 182.820312 L 292.628906 183.339844 C 304.296875 185.726562 313.074219 196.046875 313.074219 208.421875 L 313.074219 322.824219 C 313.074219 351.640625 289.710938 375 260.894531 375 L 52.179688 375 C 23.363281 375 0 351.640625 0 322.824219 L 0 114.132812 C 0 85.320312 23.363281 61.960938 52.179688 61.960938 Z M 348.644531 0 L 353.804688 0.519531 C 358.804688 1.542969 363.273438 4.023438 366.75 7.5 C 371.382812 12.128906 374.25 18.53125 374.25 25.601562 L 374.25 147.113281 C 374.25 161.25 362.785156 172.710938 348.644531 172.710938 C 334.507812 172.710938 323.042969 161.25 323.042969 147.113281 L 323.042969 85.445312 L 162.542969 251.511719 C 152.71875 261.679688 136.511719 261.957031 126.34375 252.128906 C 116.175781 242.308594 115.898438 226.101562 125.722656 215.933594 L 284.933594 51.199219 L 227.121094 51.199219 C 214.75 51.199219 204.429688 42.425781 202.039062 30.761719 L 201.519531 25.601562 L 202.039062 20.441406 C 204.429688 8.777344 214.75 0 227.121094 0 Z M 348.644531 0 " fill-opacity="1" fill-rule="evenodd"/></g><g clip-path="url(#904f38bf44)"><path fill="#000000" d="M 164.148438 199.699219 C 170.363281 199.699219 175.398438 204.738281 175.398438 210.949219 C 175.398438 217.164062 170.363281 222.199219 164.148438 222.199219 C 157.9375 222.199219 152.898438 217.164062 152.898438 210.949219 C 152.898438 204.738281 157.9375 199.699219 164.148438 199.699219 Z M 164.148438 199.699219 " fill-opacity="1" fill-rule="evenodd"/></g></svg>