<svg xmlns="http://www.w3.org/2000/svg" xmlns:xlink="http://www.w3.org/1999/xlink" width="500" zoomAndPan="magnify" viewBox="0 0 375 374.999991" height="500" preserveAspectRatio="xMidYMid meet" version="1.0"><path fill="#000000" d="M 286.875 224.835938 C 280.785156 221.265625 273.300781 221.339844 267.238281 224.941406 L 236.550781 243.226562 C 229.679688 247.320312 221.101562 246.839844 214.800781 241.921875 C 203.910156 233.414062 186.375 219.105469 171.121094 203.851562 C 155.863281 188.59375 141.554688 171.058594 133.050781 160.171875 C 128.128906 153.871094 127.648438 145.289062 131.746094 138.421875 L 150.03125 107.730469 C 153.644531 101.671875 153.675781 94.125 150.105469 88.035156 L 105.074219 11.113281 C 100.710938 3.675781 92.039062 0.015625 83.65625 2.070312 C 75.511719 4.050781 64.933594 8.878906 53.851562 19.980469 C 19.140625 54.691406 0.703125 113.234375 131.234375 243.765625 C 261.765625 374.296875 320.296875 355.875 355.019531 321.148438 C 366.136719 310.035156 370.949219 299.445312 372.945312 291.285156 C 374.96875 282.914062 371.371094 274.304688 363.945312 269.953125 C 345.40625 259.109375 305.414062 235.695312 286.875 224.835938 Z M 286.875 224.835938 " fill-opacity="1" fill-rule="nonzero"/></svg>