<svg xmlns="http://www.w3.org/2000/svg" xmlns:xlink="http://www.w3.org/1999/xlink" width="500" zoomAndPan="magnify" viewBox="0 0 375 374.999991" height="500" preserveAspectRatio="xMidYMid meet" version="1.0"><defs><clipPath id="875392e671"><path d="M 0 40.78125 L 375 40.78125 L 375 334.03125 L 0 334.03125 Z M 0 40.78125 " clip-rule="nonzero"/></clipPath></defs><g clip-path="url(#875392e671)"><path fill="#0197b2" d="M 114.140625 40.78125 C 51.226562 40.78125 0.0273438 91.980469 0.0273438 154.894531 L 0.0273438 334.21875 L 163.046875 334.21875 L 163.046875 171.199219 L 73.386719 171.199219 L 73.386719 154.894531 C 73.386719 123.4375 91.660156 97.839844 114.140625 97.839844 L 122.292969 97.839844 L 122.292969 40.78125 Z M 326.066406 40.78125 C 263.152344 40.78125 211.953125 91.980469 211.953125 154.894531 L 211.953125 334.21875 L 374.972656 334.21875 L 374.972656 171.199219 L 285.3125 171.199219 L 285.3125 154.894531 C 285.3125 123.4375 303.589844 97.839844 326.066406 97.839844 L 334.21875 97.839844 L 334.21875 40.78125 Z M 326.066406 40.78125 " fill-opacity="1" fill-rule="nonzero"/></g></svg>