<svg xmlns="http://www.w3.org/2000/svg" xmlns:xlink="http://www.w3.org/1999/xlink" width="500" zoomAndPan="magnify" viewBox="0 0 375 374.999991" height="500" preserveAspectRatio="xMidYMid meet" version="1.0"><path fill="#ffffff" d="M 337.632812 75.265625 L 117.222656 75.265625 C 116.457031 75.265625 115.699219 75.339844 114.945312 75.492188 C 114.195312 75.640625 113.464844 75.863281 112.753906 76.15625 C 112.046875 76.449219 111.375 76.808594 110.738281 77.234375 C 110.097656 77.660156 109.507812 78.144531 108.96875 78.6875 C 108.425781 79.230469 107.941406 79.820312 107.515625 80.457031 C 107.089844 81.09375 106.730469 81.765625 106.4375 82.476562 C 106.144531 83.183594 105.921875 83.914062 105.773438 84.664062 C 105.621094 85.417969 105.546875 86.175781 105.546875 86.945312 C 105.546875 87.710938 105.621094 88.46875 105.773438 89.222656 C 105.921875 89.972656 106.144531 90.703125 106.4375 91.414062 C 106.730469 92.121094 107.089844 92.792969 107.515625 93.429688 C 107.941406 94.070312 108.425781 94.660156 108.96875 95.199219 C 109.507812 95.742188 110.097656 96.226562 110.738281 96.652344 C 111.375 97.078125 112.046875 97.4375 112.753906 97.730469 C 113.464844 98.027344 114.195312 98.246094 114.945312 98.398438 C 115.699219 98.546875 116.457031 98.621094 117.222656 98.621094 L 337.632812 98.621094 C 338.171875 98.621094 338.707031 98.652344 339.242188 98.722656 C 339.777344 98.789062 340.304688 98.890625 340.828125 99.027344 C 341.347656 99.160156 341.859375 99.328125 342.359375 99.53125 C 342.859375 99.730469 343.34375 99.960938 343.816406 100.222656 C 344.285156 100.484375 344.738281 100.777344 345.171875 101.097656 C 345.605469 101.417969 346.015625 101.761719 346.40625 102.132812 C 346.792969 102.507812 347.160156 102.902344 347.496094 103.320312 C 347.835938 103.738281 348.148438 104.179688 348.429688 104.636719 C 348.714844 105.09375 348.96875 105.570312 349.191406 106.058594 C 349.414062 106.550781 349.601562 107.050781 349.761719 107.566406 C 349.917969 108.082031 350.046875 108.605469 350.136719 109.136719 C 350.230469 109.667969 350.285156 110.199219 350.3125 110.738281 C 350.335938 111.277344 350.324219 111.816406 350.277344 112.351562 C 350.234375 112.886719 350.15625 113.421875 350.042969 113.945312 C 349.929688 114.472656 349.785156 114.992188 349.605469 115.5 C 349.429688 116.007812 349.21875 116.503906 348.976562 116.984375 C 335.632812 143.769531 316.574219 203.515625 307.058594 222.53125 C 306.53125 223.585938 305.871094 224.546875 305.078125 225.414062 C 304.28125 226.28125 303.386719 227.027344 302.382812 227.644531 C 301.382812 228.265625 300.3125 228.734375 299.179688 229.054688 C 298.046875 229.378906 296.894531 229.539062 295.714844 229.539062 L 133.453125 229.539062 C 132.179688 229.539062 130.933594 229.351562 129.71875 228.980469 C 128.503906 228.609375 127.367188 228.066406 126.316406 227.351562 C 125.261719 226.636719 124.335938 225.785156 123.539062 224.792969 C 122.742188 223.800781 122.109375 222.710938 121.640625 221.53125 C 121.640625 221.398438 85.140625 57.652344 85.140625 57.652344 C 84.773438 55.988281 84.335938 54.34375 83.828125 52.71875 C 83.324219 51.09375 82.746094 49.492188 82.105469 47.914062 C 81.460938 46.339844 80.753906 44.792969 79.980469 43.273438 C 79.207031 41.757812 78.371094 40.277344 77.472656 38.828125 C 76.574219 37.382812 75.617188 35.976562 74.597656 34.613281 C 73.582031 33.246094 72.507812 31.925781 71.378906 30.652344 C 70.25 29.378906 69.066406 28.152344 67.835938 26.980469 C 66.601562 25.804688 65.320312 24.683594 63.992188 23.617188 C 62.664062 22.550781 61.296875 21.542969 59.882812 20.59375 C 58.46875 19.644531 57.019531 18.753906 55.53125 17.925781 C 54.042969 17.097656 52.523438 16.335938 50.96875 15.636719 C 49.417969 14.9375 47.835938 14.304688 46.230469 13.742188 C 44.625 13.175781 42.996094 12.679688 41.347656 12.25 C 39.699219 11.824219 38.035156 11.464844 36.359375 11.179688 C 34.679688 10.890625 32.992188 10.675781 31.296875 10.53125 C 29.597656 10.386719 27.898438 10.316406 26.195312 10.316406 L 11.691406 10.316406 C 10.914062 10.28125 10.140625 10.324219 9.371094 10.449219 C 8.601562 10.574219 7.855469 10.777344 7.128906 11.058594 C 6.402344 11.339844 5.714844 11.695312 5.0625 12.121094 C 4.410156 12.542969 3.808594 13.03125 3.257812 13.582031 C 2.707031 14.132812 2.21875 14.738281 1.796875 15.390625 C 1.371094 16.042969 1.019531 16.730469 0.738281 17.457031 C 0.457031 18.183594 0.253906 18.929688 0.132812 19.699219 C 0.0078125 20.46875 -0.0351562 21.242188 0 22.019531 C 0 22.785156 0.078125 23.542969 0.230469 24.296875 C 0.378906 25.046875 0.601562 25.777344 0.894531 26.484375 C 1.191406 27.191406 1.550781 27.863281 1.976562 28.5 C 2.402344 29.136719 2.886719 29.726562 3.429688 30.269531 C 3.96875 30.808594 4.558594 31.292969 5.195312 31.71875 C 5.832031 32.148438 6.503906 32.507812 7.210938 32.800781 C 7.921875 33.09375 8.648438 33.316406 9.402344 33.46875 C 10.152344 33.617188 10.910156 33.695312 11.675781 33.695312 L 26.195312 33.695312 C 27.238281 33.695312 28.28125 33.738281 29.320312 33.828125 C 30.359375 33.914062 31.394531 34.046875 32.421875 34.222656 C 33.449219 34.398438 34.46875 34.613281 35.480469 34.875 C 36.488281 35.136719 37.488281 35.441406 38.472656 35.785156 C 39.457031 36.132812 40.421875 36.519531 41.375 36.945312 C 42.328125 37.371094 43.257812 37.839844 44.171875 38.34375 C 45.082031 38.851562 45.972656 39.394531 46.839844 39.976562 C 47.703125 40.558594 48.546875 41.175781 49.359375 41.828125 C 50.171875 42.476562 50.957031 43.164062 51.714844 43.882812 C 52.472656 44.601562 53.195312 45.351562 53.886719 46.128906 C 54.582031 46.910156 55.242188 47.71875 55.863281 48.550781 C 56.488281 49.386719 57.078125 50.25 57.628906 51.132812 C 58.183594 52.019531 58.695312 52.925781 59.171875 53.855469 C 59.644531 54.78125 60.082031 55.730469 60.476562 56.695312 C 60.871094 57.660156 61.226562 58.640625 61.539062 59.636719 C 61.851562 60.632812 62.121094 61.636719 62.347656 62.65625 L 98.953125 227.109375 C 99.046875 227.480469 99.15625 227.882812 99.273438 228.257812 C 99.871094 230.039062 100.597656 231.765625 101.460938 233.433594 C 102.328125 235.101562 103.316406 236.691406 104.429688 238.203125 C 105.539062 239.71875 106.765625 241.136719 108.097656 242.457031 C 109.433594 243.78125 110.863281 244.992188 112.386719 246.089844 C 113.910156 247.1875 115.511719 248.160156 117.1875 249.007812 C 118.863281 249.859375 120.597656 250.570312 122.382812 251.148438 C 124.171875 251.726562 125.996094 252.160156 127.851562 252.453125 C 129.707031 252.746094 131.574219 252.890625 133.453125 252.890625 L 295.714844 252.890625 C 297.382812 252.890625 299.039062 252.777344 300.6875 252.546875 C 302.335938 252.316406 303.960938 251.972656 305.5625 251.519531 C 307.164062 251.0625 308.726562 250.5 310.25 249.828125 C 311.773438 249.15625 313.246094 248.382812 314.660156 247.507812 C 316.078125 246.632812 317.425781 245.664062 318.707031 244.601562 C 319.988281 243.539062 321.191406 242.390625 322.316406 241.164062 C 323.4375 239.933594 324.472656 238.632812 325.414062 237.261719 C 326.355469 235.886719 327.199219 234.457031 327.945312 232.96875 C 337.445312 213.949219 356.464844 154.230469 369.863281 127.417969 C 370.203125 126.738281 370.523438 126.042969 370.820312 125.339844 C 371.117188 124.636719 371.394531 123.921875 371.644531 123.203125 C 371.898438 122.480469 372.128906 121.753906 372.335938 121.015625 C 372.539062 120.28125 372.722656 119.539062 372.882812 118.792969 C 373.039062 118.046875 373.175781 117.292969 373.285156 116.539062 C 373.398438 115.78125 373.484375 115.023438 373.546875 114.261719 C 373.609375 113.5 373.648438 112.738281 373.664062 111.976562 C 373.675781 111.210938 373.667969 110.449219 373.632812 109.683594 C 373.597656 108.921875 373.539062 108.160156 373.457031 107.398438 C 373.375 106.640625 373.269531 105.882812 373.136719 105.132812 C 373.007812 104.378906 372.851562 103.632812 372.675781 102.886719 C 372.496094 102.144531 372.292969 101.410156 372.070312 100.679688 C 371.84375 99.949219 371.597656 99.226562 371.324219 98.511719 C 371.054688 97.796875 370.761719 97.09375 370.445312 96.398438 C 370.128906 95.703125 369.789062 95.015625 369.429688 94.34375 C 369.070312 93.667969 368.691406 93.007812 368.289062 92.355469 C 367.886719 91.707031 367.464844 91.070312 367.023438 90.449219 C 366.582031 89.824219 366.121094 89.214844 365.640625 88.621094 C 365.160156 88.027344 364.660156 87.449219 364.140625 86.890625 C 363.625 86.328125 363.089844 85.78125 362.535156 85.253906 C 361.984375 84.726562 361.417969 84.214844 360.832031 83.726562 C 360.246094 83.234375 359.648438 82.761719 359.03125 82.304688 C 358.417969 81.851562 357.789062 81.417969 357.148438 81.003906 C 356.503906 80.59375 355.851562 80.199219 355.183594 79.828125 C 354.515625 79.457031 353.835938 79.105469 353.148438 78.777344 C 352.457031 78.445312 351.757812 78.140625 351.050781 77.855469 C 350.339844 77.570312 349.625 77.308594 348.898438 77.070312 C 348.171875 76.832031 347.4375 76.617188 346.699219 76.425781 C 345.960938 76.234375 345.214844 76.066406 344.464844 75.917969 C 343.714844 75.773438 342.960938 75.652344 342.203125 75.558594 C 341.445312 75.460938 340.683594 75.386719 339.921875 75.339844 C 339.160156 75.289062 338.398438 75.265625 337.632812 75.265625 Z M 337.632812 75.265625 " fill-opacity="1" fill-rule="evenodd"/><path fill="#ffffff" d="M 146.144531 266.582031 C 144.582031 266.582031 143.023438 266.660156 141.464844 266.8125 C 139.910156 266.964844 138.367188 267.195312 136.835938 267.5 C 135.300781 267.804688 133.789062 268.183594 132.292969 268.636719 C 130.796875 269.089844 129.328125 269.617188 127.882812 270.214844 C 126.441406 270.8125 125.03125 271.480469 123.652344 272.21875 C 122.273438 272.953125 120.933594 273.757812 119.636719 274.625 C 118.335938 275.492188 117.082031 276.421875 115.875 277.414062 C 114.667969 278.40625 113.511719 279.453125 112.40625 280.558594 C 111.300781 281.664062 110.253906 282.820312 109.261719 284.027344 C 108.269531 285.234375 107.339844 286.488281 106.472656 287.789062 C 105.605469 289.089844 104.800781 290.425781 104.066406 291.804688 C 103.328125 293.183594 102.664062 294.59375 102.066406 296.039062 C 101.464844 297.480469 100.941406 298.953125 100.488281 300.445312 C 100.035156 301.941406 99.65625 303.457031 99.351562 304.988281 C 99.046875 306.523438 98.816406 308.066406 98.664062 309.621094 C 98.511719 311.175781 98.433594 312.734375 98.433594 314.296875 C 98.433594 315.859375 98.511719 317.417969 98.664062 318.972656 C 98.816406 320.527344 99.046875 322.074219 99.351562 323.605469 C 99.65625 325.136719 100.035156 326.652344 100.488281 328.148438 C 100.945312 329.640625 101.46875 331.113281 102.066406 332.554688 C 102.667969 334 103.332031 335.410156 104.070312 336.789062 C 104.808594 338.164062 105.609375 339.503906 106.476562 340.804688 C 107.347656 342.101562 108.277344 343.355469 109.269531 344.5625 C 110.257812 345.773438 111.308594 346.929688 112.414062 348.03125 C 113.519531 349.136719 114.675781 350.1875 115.882812 351.175781 C 117.089844 352.167969 118.34375 353.097656 119.644531 353.964844 C 120.941406 354.832031 122.28125 355.636719 123.660156 356.371094 C 125.039062 357.109375 126.449219 357.773438 127.894531 358.371094 C 129.335938 358.972656 130.804688 359.496094 132.300781 359.949219 C 133.796875 360.402344 135.3125 360.78125 136.84375 361.085938 C 138.375 361.390625 139.921875 361.621094 141.476562 361.773438 C 143.03125 361.925781 144.589844 362.003906 146.152344 362 C 147.714844 362 149.273438 361.925781 150.828125 361.769531 C 152.382812 361.617188 153.925781 361.386719 155.460938 361.082031 C 156.992188 360.777344 158.507812 360.398438 160 359.945312 C 161.496094 359.492188 162.964844 358.964844 164.410156 358.367188 C 165.851562 357.769531 167.265625 357.101562 168.640625 356.363281 C 170.019531 355.625 171.359375 354.824219 172.65625 353.957031 C 173.957031 353.085938 175.210938 352.15625 176.417969 351.164062 C 177.625 350.171875 178.78125 349.125 179.886719 348.019531 C 180.992188 346.914062 182.039062 345.757812 183.03125 344.550781 C 184.019531 343.34375 184.949219 342.089844 185.816406 340.789062 C 186.6875 339.488281 187.488281 338.148438 188.222656 336.773438 C 188.960938 335.394531 189.628906 333.984375 190.226562 332.539062 C 190.824219 331.09375 191.347656 329.625 191.800781 328.128906 C 192.253906 326.632812 192.632812 325.121094 192.9375 323.585938 C 193.242188 322.054688 193.472656 320.511719 193.625 318.957031 C 193.777344 317.402344 193.851562 315.84375 193.851562 314.28125 C 193.851562 312.71875 193.773438 311.160156 193.617188 309.605469 C 193.464844 308.050781 193.234375 306.507812 192.929688 304.976562 C 192.625 303.445312 192.242188 301.929688 191.789062 300.4375 C 191.335938 298.941406 190.808594 297.472656 190.210938 296.03125 C 189.609375 294.585938 188.945312 293.175781 188.207031 291.800781 C 187.46875 290.421875 186.667969 289.085938 185.800781 287.785156 C 184.929688 286.488281 184 285.234375 183.011719 284.027344 C 182.019531 282.820312 180.972656 281.664062 179.867188 280.558594 C 178.761719 279.457031 177.605469 278.410156 176.398438 277.417969 C 175.191406 276.425781 173.9375 275.496094 172.636719 274.628906 C 171.339844 273.761719 170 272.960938 168.625 272.222656 C 167.246094 271.488281 165.835938 270.820312 164.394531 270.222656 C 162.949219 269.625 161.480469 269.097656 159.988281 268.644531 C 158.492188 268.1875 156.980469 267.808594 155.449219 267.503906 C 153.914062 267.199219 152.371094 266.96875 150.816406 266.816406 C 149.261719 266.660156 147.707031 266.585938 146.144531 266.582031 Z M 146.144531 338.648438 C 145.34375 338.648438 144.550781 338.609375 143.757812 338.53125 C 142.960938 338.453125 142.175781 338.335938 141.390625 338.179688 C 140.609375 338.023438 139.835938 337.832031 139.074219 337.597656 C 138.3125 337.367188 137.5625 337.097656 136.824219 336.792969 C 136.085938 336.488281 135.367188 336.148438 134.664062 335.773438 C 133.960938 335.398438 133.277344 334.988281 132.613281 334.542969 C 131.949219 334.101562 131.3125 333.625 130.695312 333.121094 C 130.078125 332.613281 129.488281 332.078125 128.921875 331.515625 C 128.359375 330.953125 127.824219 330.363281 127.316406 329.746094 C 126.8125 329.128906 126.335938 328.488281 125.894531 327.824219 C 125.449219 327.164062 125.042969 326.480469 124.664062 325.777344 C 124.289062 325.074219 123.949219 324.351562 123.644531 323.617188 C 123.339844 322.878906 123.070312 322.128906 122.839844 321.367188 C 122.605469 320.601562 122.414062 319.832031 122.257812 319.046875 C 122.101562 318.265625 121.984375 317.476562 121.90625 316.683594 C 121.828125 315.890625 121.789062 315.09375 121.789062 314.296875 C 121.789062 313.5 121.828125 312.703125 121.90625 311.910156 C 121.984375 311.117188 122.101562 310.328125 122.253906 309.546875 C 122.410156 308.765625 122.605469 307.992188 122.835938 307.226562 C 123.066406 306.464844 123.335938 305.714844 123.640625 304.976562 C 123.945312 304.242188 124.285156 303.519531 124.660156 302.816406 C 125.035156 302.113281 125.445312 301.429688 125.890625 300.765625 C 126.332031 300.105469 126.808594 299.464844 127.3125 298.847656 C 127.816406 298.230469 128.351562 297.640625 128.917969 297.074219 C 129.480469 296.511719 130.070312 295.976562 130.6875 295.46875 C 131.304688 294.964844 131.941406 294.488281 132.605469 294.046875 C 133.269531 293.601562 133.953125 293.191406 134.65625 292.816406 C 135.359375 292.441406 136.078125 292.101562 136.816406 291.792969 C 137.550781 291.488281 138.300781 291.21875 139.066406 290.988281 C 139.828125 290.757812 140.601562 290.5625 141.382812 290.40625 C 142.164062 290.25 142.953125 290.132812 143.746094 290.054688 C 144.542969 289.976562 145.335938 289.9375 146.132812 289.9375 C 146.933594 289.9375 147.726562 289.976562 148.519531 290.054688 C 149.316406 290.132812 150.101562 290.25 150.886719 290.402344 C 151.667969 290.558594 152.441406 290.753906 153.203125 290.984375 C 153.96875 291.214844 154.71875 291.484375 155.453125 291.789062 C 156.191406 292.09375 156.910156 292.433594 157.613281 292.808594 C 158.320312 293.183594 159.003906 293.59375 159.664062 294.035156 C 160.328125 294.480469 160.96875 294.953125 161.585938 295.460938 C 162.203125 295.964844 162.792969 296.5 163.355469 297.0625 C 163.921875 297.628906 164.457031 298.21875 164.960938 298.832031 C 165.46875 299.449219 165.945312 300.089844 166.386719 300.753906 C 166.832031 301.414062 167.242188 302.097656 167.617188 302.800781 C 167.992188 303.503906 168.335938 304.222656 168.640625 304.960938 C 168.945312 305.699219 169.214844 306.449219 169.445312 307.210938 C 169.679688 307.972656 169.871094 308.746094 170.027344 309.527344 C 170.183594 310.3125 170.300781 311.097656 170.378906 311.890625 C 170.457031 312.6875 170.496094 313.480469 170.5 314.28125 C 170.496094 315.078125 170.457031 315.871094 170.378906 316.667969 C 170.300781 317.460938 170.183594 318.25 170.027344 319.03125 C 169.871094 319.8125 169.679688 320.585938 169.445312 321.347656 C 169.214844 322.113281 168.945312 322.863281 168.640625 323.597656 C 168.335938 324.335938 167.996094 325.054688 167.617188 325.761719 C 167.242188 326.464844 166.832031 327.148438 166.390625 327.808594 C 165.945312 328.472656 165.472656 329.113281 164.964844 329.730469 C 164.460938 330.347656 163.925781 330.9375 163.363281 331.5 C 162.796875 332.066406 162.207031 332.601562 161.589844 333.105469 C 160.976562 333.613281 160.335938 334.089844 159.671875 334.53125 C 159.007812 334.976562 158.324219 335.386719 157.621094 335.761719 C 156.917969 336.136719 156.199219 336.480469 155.460938 336.785156 C 154.726562 337.089844 153.976562 337.359375 153.210938 337.59375 C 152.449219 337.824219 151.675781 338.019531 150.894531 338.175781 C 150.113281 338.332031 149.324219 338.449219 148.53125 338.527344 C 147.738281 338.605469 146.941406 338.648438 146.144531 338.648438 Z M 146.144531 338.648438 " fill-opacity="1" fill-rule="evenodd"/><path fill="#ffffff" d="M 279.113281 266.582031 C 277.550781 266.582031 275.992188 266.660156 274.4375 266.8125 C 272.882812 266.964844 271.339844 267.195312 269.804688 267.5 C 268.273438 267.804688 266.761719 268.183594 265.265625 268.636719 C 263.769531 269.089844 262.300781 269.617188 260.855469 270.214844 C 259.414062 270.8125 258 271.480469 256.625 272.21875 C 255.246094 272.953125 253.90625 273.757812 252.609375 274.625 C 251.308594 275.492188 250.054688 276.421875 248.847656 277.414062 C 247.640625 278.40625 246.484375 279.453125 245.378906 280.558594 C 244.273438 281.664062 243.226562 282.820312 242.234375 284.027344 C 241.242188 285.234375 240.3125 286.488281 239.445312 287.789062 C 238.578125 289.089844 237.773438 290.425781 237.039062 291.804688 C 236.300781 293.183594 235.632812 294.59375 235.035156 296.039062 C 234.4375 297.480469 233.914062 298.953125 233.457031 300.445312 C 233.003906 301.941406 232.625 303.457031 232.320312 304.988281 C 232.015625 306.523438 231.789062 308.066406 231.636719 309.621094 C 231.480469 311.175781 231.40625 312.734375 231.40625 314.296875 C 231.40625 315.859375 231.484375 317.417969 231.636719 318.972656 C 231.789062 320.527344 232.019531 322.074219 232.324219 323.605469 C 232.628906 325.136719 233.007812 326.652344 233.460938 328.148438 C 233.914062 329.640625 234.441406 331.113281 235.039062 332.554688 C 235.636719 334 236.304688 335.410156 237.042969 336.789062 C 237.777344 338.164062 238.582031 339.503906 239.449219 340.804688 C 240.316406 342.101562 241.246094 343.355469 242.238281 344.5625 C 243.230469 345.773438 244.277344 346.929688 245.382812 348.03125 C 246.488281 349.136719 247.644531 350.1875 248.855469 351.175781 C 250.0625 352.167969 251.316406 353.097656 252.613281 353.964844 C 253.914062 354.832031 255.253906 355.636719 256.632812 356.371094 C 258.007812 357.109375 259.421875 357.773438 260.863281 358.371094 C 262.308594 358.972656 263.777344 359.496094 265.273438 359.949219 C 266.769531 360.402344 268.28125 360.78125 269.816406 361.085938 C 271.347656 361.390625 272.890625 361.621094 274.445312 361.773438 C 276.003906 361.925781 277.5625 362.003906 279.125 362 C 280.6875 362 282.246094 361.925781 283.800781 361.769531 C 285.355469 361.617188 286.898438 361.386719 288.429688 361.082031 C 289.964844 360.777344 291.476562 360.398438 292.972656 359.945312 C 294.46875 359.492188 295.9375 358.964844 297.382812 358.367188 C 298.824219 357.769531 300.234375 357.101562 301.613281 356.363281 C 302.992188 355.625 304.332031 354.824219 305.628906 353.957031 C 306.929688 353.085938 308.183594 352.15625 309.390625 351.164062 C 310.597656 350.171875 311.753906 349.125 312.859375 348.019531 C 313.960938 346.914062 315.011719 345.757812 316 344.550781 C 316.992188 343.34375 317.921875 342.089844 318.789062 340.789062 C 319.65625 339.488281 320.460938 338.148438 321.195312 336.773438 C 321.933594 335.394531 322.597656 333.984375 323.195312 332.539062 C 323.792969 331.09375 324.320312 329.625 324.773438 328.128906 C 325.226562 326.632812 325.605469 325.121094 325.910156 323.585938 C 326.214844 322.054688 326.441406 320.511719 326.59375 318.957031 C 326.75 317.402344 326.824219 315.84375 326.824219 314.28125 C 326.824219 312.71875 326.746094 311.160156 326.589844 309.605469 C 326.4375 308.050781 326.207031 306.507812 325.902344 304.972656 C 325.597656 303.441406 325.21875 301.929688 324.761719 300.433594 C 324.308594 298.941406 323.78125 297.472656 323.183594 296.027344 C 322.585938 294.585938 321.917969 293.175781 321.183594 291.796875 C 320.445312 290.417969 319.644531 289.082031 318.773438 287.78125 C 317.90625 286.484375 316.976562 285.230469 315.984375 284.023438 C 314.996094 282.816406 313.945312 281.660156 312.839844 280.554688 C 311.738281 279.453125 310.582031 278.40625 309.371094 277.414062 C 308.164062 276.421875 306.910156 275.492188 305.613281 274.625 C 304.3125 273.757812 302.976562 272.957031 301.597656 272.21875 C 300.21875 271.484375 298.808594 270.816406 297.367188 270.21875 C 295.925781 269.621094 294.453125 269.09375 292.960938 268.640625 C 291.464844 268.1875 289.953125 267.808594 288.417969 267.503906 C 286.886719 267.195312 285.34375 266.96875 283.789062 266.816406 C 282.234375 266.660156 280.675781 266.585938 279.113281 266.582031 Z M 279.113281 338.648438 C 278.316406 338.648438 277.523438 338.609375 276.726562 338.53125 C 275.933594 338.453125 275.144531 338.335938 274.363281 338.179688 C 273.582031 338.023438 272.808594 337.832031 272.046875 337.597656 C 271.28125 337.367188 270.53125 337.097656 269.796875 336.792969 C 269.058594 336.488281 268.339844 336.148438 267.636719 335.773438 C 266.933594 335.398438 266.25 334.988281 265.585938 334.542969 C 264.921875 334.101562 264.28125 333.625 263.664062 333.121094 C 263.050781 332.613281 262.457031 332.078125 261.894531 331.515625 C 261.332031 330.953125 260.796875 330.363281 260.289062 329.746094 C 259.785156 329.128906 259.308594 328.488281 258.867188 327.824219 C 258.421875 327.164062 258.011719 326.480469 257.636719 325.777344 C 257.261719 325.074219 256.921875 324.351562 256.613281 323.617188 C 256.308594 322.878906 256.042969 322.128906 255.808594 321.367188 C 255.578125 320.601562 255.382812 319.832031 255.226562 319.046875 C 255.074219 318.265625 254.957031 317.476562 254.878906 316.683594 C 254.800781 315.890625 254.761719 315.09375 254.757812 314.296875 C 254.757812 313.5 254.796875 312.703125 254.875 311.910156 C 254.953125 311.117188 255.070312 310.328125 255.226562 309.546875 C 255.382812 308.765625 255.574219 307.992188 255.808594 307.226562 C 256.039062 306.464844 256.304688 305.714844 256.613281 304.976562 C 256.917969 304.242188 257.257812 303.519531 257.632812 302.816406 C 258.007812 302.113281 258.417969 301.429688 258.859375 300.765625 C 259.304688 300.105469 259.777344 299.464844 260.285156 298.847656 C 260.789062 298.230469 261.324219 297.640625 261.886719 297.074219 C 262.453125 296.511719 263.042969 295.976562 263.660156 295.46875 C 264.273438 294.964844 264.914062 294.488281 265.578125 294.046875 C 266.242188 293.601562 266.925781 293.191406 267.628906 292.816406 C 268.332031 292.441406 269.050781 292.101562 269.789062 291.792969 C 270.523438 291.488281 271.273438 291.21875 272.039062 290.988281 C 272.800781 290.757812 273.574219 290.5625 274.355469 290.40625 C 275.136719 290.25 275.925781 290.132812 276.71875 290.054688 C 277.511719 289.976562 278.308594 289.9375 279.105469 289.9375 C 279.902344 289.9375 280.699219 289.976562 281.492188 290.054688 C 282.285156 290.132812 283.074219 290.25 283.855469 290.402344 C 284.640625 290.558594 285.410156 290.753906 286.175781 290.984375 C 286.9375 291.214844 287.6875 291.484375 288.425781 291.789062 C 289.164062 292.09375 289.882812 292.433594 290.585938 292.808594 C 291.289062 293.183594 291.972656 293.59375 292.636719 294.035156 C 293.300781 294.480469 293.941406 294.953125 294.558594 295.460938 C 295.171875 295.964844 295.765625 296.5 296.328125 297.0625 C 296.894531 297.628906 297.429688 298.21875 297.933594 298.832031 C 298.441406 299.449219 298.914062 300.089844 299.359375 300.753906 C 299.800781 301.414062 300.210938 302.097656 300.589844 302.800781 C 300.964844 303.503906 301.304688 304.222656 301.609375 304.960938 C 301.917969 305.699219 302.183594 306.449219 302.417969 307.210938 C 302.648438 307.972656 302.84375 308.746094 303 309.527344 C 303.15625 310.3125 303.273438 311.097656 303.351562 311.890625 C 303.429688 312.6875 303.46875 313.480469 303.46875 314.28125 C 303.46875 315.078125 303.429688 315.871094 303.351562 316.667969 C 303.273438 317.460938 303.15625 318.25 303 319.03125 C 302.84375 319.8125 302.648438 320.585938 302.417969 321.347656 C 302.1875 322.113281 301.917969 322.863281 301.613281 323.597656 C 301.308594 324.335938 300.964844 325.054688 300.589844 325.761719 C 300.214844 326.464844 299.804688 327.148438 299.363281 327.808594 C 298.917969 328.472656 298.445312 329.113281 297.9375 329.730469 C 297.433594 330.347656 296.898438 330.9375 296.332031 331.5 C 295.769531 332.066406 295.179688 332.601562 294.5625 333.105469 C 293.945312 333.613281 293.304688 334.089844 292.644531 334.53125 C 291.980469 334.976562 291.296875 335.386719 290.59375 335.761719 C 289.890625 336.136719 289.171875 336.480469 288.433594 336.785156 C 287.695312 337.089844 286.945312 337.359375 286.183594 337.59375 C 285.421875 337.824219 284.648438 338.019531 283.867188 338.175781 C 283.082031 338.332031 282.296875 338.449219 281.5 338.527344 C 280.707031 338.605469 279.914062 338.648438 279.113281 338.648438 Z M 279.113281 338.648438 " fill-opacity="1" fill-rule="evenodd"/></svg>