<svg xmlns="http://www.w3.org/2000/svg" xmlns:xlink="http://www.w3.org/1999/xlink" width="500" zoomAndPan="magnify" viewBox="0 0 375 374.999991" height="500" preserveAspectRatio="xMidYMid meet" version="1.0"><defs><clipPath id="5902975165"><path d="M 25.078125 0 L 349.828125 0 L 349.828125 375 L 25.078125 375 Z M 25.078125 0 " clip-rule="nonzero"/></clipPath></defs><g clip-path="url(#5902975165)"><path fill="#0197b2" d="M 323.480469 40.601562 L 269.429688 40.601562 L 269.429688 32.882812 C 269.429688 14.785156 254.703125 0.0585938 236.605469 0.0585938 L 137.980469 0.0585938 C 119.878906 0.0585938 105.152344 14.785156 105.152344 32.882812 L 105.152344 40.601562 L 51.105469 40.601562 C 36.945312 40.601562 25.421875 52.121094 25.421875 66.277344 L 25.421875 78.453125 C 25.421875 91.707031 35.515625 102.644531 48.417969 103.996094 L 74.863281 336.0625 C 77.382812 358.226562 96.113281 374.9375 118.421875 374.9375 L 256.160156 374.9375 C 278.464844 374.9375 297.195312 358.226562 299.714844 336.0625 L 326.164062 103.996094 C 339.066406 102.648438 349.160156 91.707031 349.160156 78.453125 L 349.160156 66.277344 C 349.160156 52.121094 337.632812 40.601562 323.476562 40.601562 Z M 121.824219 32.882812 C 121.824219 23.972656 129.070312 16.726562 137.984375 16.726562 L 236.609375 16.726562 C 245.519531 16.726562 252.765625 23.972656 252.765625 32.882812 L 252.765625 40.601562 L 121.824219 40.601562 Z M 283.164062 334.175781 C 281.601562 347.914062 269.992188 358.269531 256.167969 358.269531 L 118.429688 358.269531 C 104.605469 358.269531 92.996094 347.914062 91.433594 334.175781 L 65.222656 104.136719 L 309.378906 104.136719 L 283.167969 334.175781 Z M 332.5 78.453125 C 332.5 83.425781 328.453125 87.472656 323.484375 87.472656 L 51.105469 87.472656 C 46.132812 87.472656 42.085938 83.425781 42.085938 78.453125 L 42.085938 66.277344 C 42.085938 61.3125 46.132812 57.265625 51.105469 57.265625 L 323.476562 57.265625 C 328.445312 57.265625 332.492188 61.3125 332.492188 66.277344 L 332.492188 78.453125 Z M 332.5 78.453125 " fill-opacity="1" fill-rule="nonzero"/></g><path fill="#0197b2" d="M 187.292969 313.167969 C 191.890625 313.167969 195.625 309.433594 195.625 304.832031 L 195.625 157.574219 C 195.625 152.976562 191.890625 149.242188 187.292969 149.242188 C 182.691406 149.242188 178.957031 152.976562 178.957031 157.574219 L 178.957031 304.832031 C 178.957031 309.433594 182.691406 313.167969 187.292969 313.167969 Z M 187.292969 313.167969 " fill-opacity="1" fill-rule="nonzero"/><path fill="#0197b2" d="M 237.109375 312.777344 C 237.382812 312.808594 237.660156 312.820312 237.925781 312.820312 C 242.167969 312.820312 245.792969 309.605469 246.207031 305.296875 L 260.484375 158.730469 C 260.929688 154.144531 257.578125 150.070312 253 149.625 C 248.355469 149.152344 244.339844 152.527344 243.894531 157.109375 L 229.621094 303.675781 C 229.175781 308.257812 232.523438 312.332031 237.105469 312.777344 Z M 237.109375 312.777344 " fill-opacity="1" fill-rule="nonzero"/><path fill="#0197b2" d="M 136.660156 312.820312 C 136.925781 312.820312 137.199219 312.808594 137.476562 312.777344 C 142.054688 312.335938 145.402344 308.257812 144.957031 303.675781 L 130.683594 157.109375 C 130.238281 152.527344 126.226562 149.160156 121.578125 149.625 C 117 150.066406 113.648438 154.144531 114.097656 158.730469 L 128.371094 305.296875 C 128.792969 309.601562 132.417969 312.820312 136.652344 312.820312 Z M 136.660156 312.820312 " fill-opacity="1" fill-rule="nonzero"/></svg>